<svg width="24" height="24" viewBox="0 0 24 24" fill="none" xmlns="http://www.w3.org/2000/svg">
<path fill-rule="evenodd" clip-rule="evenodd" d="M12.052 7.86672L12.2527 8.52484C12.0854 8.65869 10.6466 9.94146 10.5574 9.79645C10.5462 9.78529 8.06982 8.49137 6.39665 8.94871C4.56732 9.45066 3.23996 11.3692 3.51882 13.8009C3.8423 16.5672 8.24836 18.0731 10.4235 16.1545L10.8362 15.7864C10.9924 15.8533 12.0966 16.3776 12.2751 16.3776C12.3643 16.3776 12.3866 16.4445 12.3309 16.5784C11.0481 19.7686 16.3354 22.4568 18.979 19.947C20.5629 18.4412 19.8044 14.5594 17.8635 14.3029C17.1831 14.2136 17.1273 14.4925 17.7073 15.0837C19.7151 17.1584 17.105 21.3971 14.8406 19.7351C12.3755 17.9392 14.2049 14.2917 16.5808 14.2694C16.9043 14.2694 17.0046 14.0798 16.7592 13.9459C15.8222 13.444 14.439 13.8455 13.3682 14.9387L12.7213 15.6972C12.6097 15.6525 11.6058 15.251 11.3046 15.1171L11.5613 14.4813C12.0074 13.3659 12.0297 12.4512 11.6058 11.4696C11.2935 10.7223 11.2712 10.6219 11.4385 10.5215C11.6839 10.3765 12.7548 9.57336 12.9332 9.43951L13.5244 9.82991C16.6253 11.8823 20.5294 10.0753 20.5183 6.58396C20.5071 4.76578 19.0682 3.8065 17.5623 3.36032C13.0448 2.04409 11.2823 5.39043 12.052 7.86672ZM18.9901 6.27163C18.9901 9.5622 14.9634 11.0234 13.8479 8.13443C13.4017 6.96321 13.6025 2.84721 17.1273 3.91804C18.1312 4.21921 18.9901 5.06695 18.9901 6.27163ZM10.4235 10.845C11.3381 12.1835 10.602 14.9164 8.60532 15.9314C7.44526 16.5226 5.89474 15.7529 5.43741 14.3586C5.03585 13.1651 5.45974 11.6927 6.18478 10.7334C7.48985 9.00448 9.95499 10.1645 10.4235 10.845Z" fill="#1D4E1A"/>
</svg>
