<svg width="24" height="24" viewBox="0 0 24 24" fill="none" xmlns="http://www.w3.org/2000/svg">
<path fill-rule="evenodd" clip-rule="evenodd" d="M7.77985 4.68567C5.32164 5.45115 4.14648 8.44843 4.89041 12.0279C5.1276 13.16 6.0656 13.1924 7.20844 12.4808C8.41598 11.7152 9.83912 10.1088 10.8849 8.04951C12.0063 5.81773 10.2489 3.90939 7.77985 4.68567ZM8.93347 5.67756C10.1518 6.39993 9.83912 7.63982 7.80143 10.0225L6.61546 11.4134L6.58313 10.3676C6.4861 7.05761 7.57502 4.86895 8.93347 5.67756ZM14.7771 6.69104C13.106 7.46731 10.5508 10.788 10.5508 12.1897C10.5508 13.1061 11.2084 13.0738 14.4429 11.9956C16.9982 11.1438 18.2272 10.6586 18.777 9.97941C20.5991 7.74763 17.5156 5.41881 14.7771 6.69104ZM17.3 7.70451C17.8715 8.57782 16.4698 10.3784 14.7987 10.9282C13.4294 11.3811 12.4914 11.629 12.5884 11.4889C12.6423 11.4242 12.9766 10.9821 13.3323 10.5078C15.0142 8.27594 16.8364 6.99293 17.3 7.70451ZM10.9173 14.3891C8.55613 14.7988 7.70439 16.416 10.5399 17.3864C11.0359 17.5589 12.1033 18.0548 12.9119 18.4861C15.273 19.7691 16.4482 19.7906 17.4402 18.5831C18.2056 17.6559 18.0116 16.168 17.2784 15.0684C15.4779 12.3622 12.1896 14.1627 10.9173 14.3891ZM16.3728 15.4996C16.9874 15.8123 16.9658 16.5238 16.3189 17.2462C15.4456 18.2165 14.7124 18.1626 12.6316 16.9659L11.1222 16.1034C11.3593 16.0603 12.2111 15.9201 13.6343 15.5858C14.9389 15.2624 15.8553 15.2408 16.3728 15.4996Z" fill="#1D4E1A"/>
</svg>
