<svg width="24" height="24" viewBox="0 0 24 24" fill="none" xmlns="http://www.w3.org/2000/svg">
<path d="M19.8076 9.77941L19.4734 8.65182L19.8493 8.1611C21.2379 6.33399 18.6591 3.47325 16.6127 4.56952C16.3934 4.68436 16.1325 4.6948 15.7566 4.60084C15.0675 4.42335 12.8123 4.04748 12.3529 3.99528C10.8286 3.80735 11.2462 4.54863 11.9039 4.61128C13.3865 4.76789 13.3552 4.68436 12.9585 5.10199C12.3425 5.75975 12.8749 8.32815 13.8564 9.44531C14.7438 10.4581 16.8946 11.001 17.5628 10.3745C18.8888 9.12165 18.5234 14.9267 17.1556 16.7016C12.8958 22.2456 3.91683 16.8999 5.53513 9.77941L5.7231 8.94415L6.4957 9.45575C7.84254 10.3536 8.39588 9.9047 7.36225 8.75622C5.67086 6.88734 6.24513 4.50687 8.02005 6.02077C8.61516 6.53236 9.34602 6.60545 9.6488 6.19826C10.5467 4.96626 11.0791 5.40477 11.0687 6.72029C11.0687 7.43026 10.7346 7.91053 9.36688 9.18429C8.1662 10.3014 8.114 10.6773 9.15807 10.6773C9.85759 10.6773 12.1232 7.99405 12.3216 6.93954C12.6035 5.45697 10.5989 4.24585 9.40863 5.17507C9.13718 5.39433 8.97016 5.43609 8.86575 5.33168C8.76134 5.22728 8.78221 5.03934 9.11632 4.85141C9.45042 4.66348 9.96201 4.51731 9.84716 4.20409C9.69055 3.78647 8.53163 4.32938 8.37502 4.42334C8.21841 4.50687 7.65461 4.87229 7.17434 4.87229C5.52471 4.87229 4.89827 5.37344 5.034 6.57412C5.10709 7.24232 5.06535 7.43026 4.68948 8.09846C1.75565 13.2979 5.72309 19.8651 11.8726 19.9904C18.1266 20.1366 21.5616 15.6993 19.8076 9.77941ZM17.6985 8.69358C16.5709 9.94646 16.4039 9.99866 15.4747 9.45575C14.7334 9.01724 14.1278 7.8792 14.0025 6.67853C13.8772 5.41521 14.5246 5.08111 15.6313 5.83284L16.1742 6.2087L16.7171 5.85372C18.2728 4.82009 20.3191 5.79108 17.6985 8.69358Z" fill="#1D4E1A"/>
<path d="M6.85074 12.1077C6.92382 12.3269 7.08042 13.0578 7.20571 13.7364C8.13493 18.8002 16.2578 18.7062 16.6754 13.632C16.7276 13.0056 16.8425 12.4522 16.926 12.4C17.6568 11.9302 15.7044 11.3038 14.3263 11.5752C13.8982 11.6587 12.259 11.6796 10.3066 11.6274C6.69414 11.523 6.67325 11.523 6.85074 12.1077ZM15.7045 12.4522V13.2248C15.7045 16.096 10.578 17.6726 8.87622 15.313C8.29154 14.509 8.302 14.0183 8.21848 12.5044C13.0212 12.3478 13.1361 12.3687 15.7045 12.4522Z" fill="#1D4E1A"/>
</svg>
