<svg width="24" height="24" viewBox="0 0 24 24" fill="none" xmlns="http://www.w3.org/2000/svg">
<path fill-rule="evenodd" clip-rule="evenodd" d="M13.1668 2.64744C11.0872 3.70411 6.39953 8.92004 4.87073 11.8428C3.94895 13.6076 4.06139 13.7088 7.04032 13.8774L9.1649 14.0011C5.30916 20.7458 5.70259 20.0264 5.66887 20.0938C4.82577 21.5439 5.97238 22.5107 7.18643 21.3753C7.19767 21.3641 17.6183 13.2704 19.4843 10.5837C19.6979 10.2802 19.6417 9.93174 19.1696 9.58327C18.3939 9.00996 17.3485 8.8301 13.5377 8.51535C12.9419 8.47038 12.6722 8.40295 12.7171 8.31301C12.9982 7.6273 14.0773 4.74954 14.5944 3.62542C15.2014 2.31019 15.1452 1.63573 13.1668 2.64744ZM12.3911 5.16547C12.2899 5.40154 11.0421 8.3917 10.9859 8.51535C10.6937 9.09989 10.8848 9.40342 11.6155 9.48211C14.0436 9.74065 15.0103 9.83058 15.9883 9.87555C17.607 9.95424 17.6183 9.88678 15.9096 11.6067C14.0886 13.4502 9.43469 17.7219 9.33352 17.6207C9.24359 17.5308 10.7387 14.6756 11.1434 14.1472C11.874 13.1917 11.6492 13.0568 9.32226 13.0568C8.27683 13.0568 7.62484 13.0343 7.13022 13.0006C6.66933 12.9669 6.38829 12.4723 6.61312 12.0563C7.45621 10.5163 8.96256 8.59405 11.4693 5.83995C12.616 4.60341 12.6384 4.58093 12.3911 5.16547Z" fill="#1D4E1A"/>
</svg>
