<svg xmlns="http://www.w3.org/2000/svg" width="42" height="14" fill="none"><path fill="#FFECB8" d="M19.748 8.581c0-1.656-1.378-2.957-3.117-2.957-1.714 0-3.117 1.301-3.117 2.957 0 1.657 1.403 2.958 3.117 2.958 1.74 0 3.117-1.301 3.117-2.958Zm2.543-4.842v9.693H19.7v-.876c-.902.718-2.042 1.12-3.281 1.12-3.068 0-5.463-2.263-5.463-5.095 0-2.823 2.403-5.095 5.463-5.095 1.239 0 2.379.402 3.281 1.12V3.74h2.592Zm8.614 7.493h-1.953c-.59 0-.976-.245-.976-.766V5.931h2.92V3.74h-2.92V.979H25.36v2.76h-1.97v2.2h1.97v5.15c0 1.302.976 2.335 2.731 2.335h2.806v-2.192h.008Zm5.906 2.445c2.995 0 4.684-1.35 4.684-3.21 0-1.326-1-2.312-3.092-2.737l-2.215-.426c-1.28-.221-1.69-.45-1.69-.9 0-.583.615-.938 1.756-.938 1.238 0 2.14.315 2.403 1.388h2.592c-.14-2.019-1.69-3.368-4.823-3.368-2.707 0-4.61 1.057-4.61 3.1 0 1.412 1.05 2.335 3.305 2.784l2.47.536c.976.182 1.238.426 1.238.805 0 .607-.738.986-1.928.986-1.493 0-2.354-.316-2.682-1.388h-2.617c.386 2.019 1.977 3.368 5.21 3.368ZM.495.3h9.77v2.24H3.137v3.21h6.94v2.177h-6.94v3.25h7.128v2.24H.495V.3Z"/></svg>