<svg xmlns="http://www.w3.org/2000/svg" width="48" height="38" fill="none"><path fill="#1D4E1A" d="M29.12 2.923c.86-1.749-.258-3.01-1.448-1.62-.875 1.033-2.108 3.972-1.893 4.531.502 1.276 1.879.072 3.341-2.91ZM20.56 6.45c.903.288 1.219-.243 1.118-1.878-.215-3.226-1.204-4.56-2.896-3.886-.803.316.774 5.45 1.778 5.765ZM11.512 7.283c2.036 1.52 3.456 2.194 4.172 1.935.89-.315.746-.616-.874-1.892-2.065-1.65-3.198-2.137-4.288-1.85-.774.2-.53.66.99 1.807ZM29.106 7.827c-.488.531-.488.545-.115.818 1.061.774 2.194.157 6.682-3.671 1.205-1.033-.788-1.85-2.194-.89-.731.503-3.8 3.127-4.373 3.743ZM46.17 33.667c-.502-.416-.832-1.19-.975-2.295-.1-.76-1.707-13.32-2.438-16.633-.602-2.753-2.294-4.058-3.642-4.13-.846-.043-1.334.516-1.678.301-.932-.588-1.19-.86-2.108-.774-.43.029-1.39.287-1.72.574-.216.172-.488.172-1.09.014-2.954-.789-4.259 2.022-2.925 6.31.76 2.451 1.85 1.376 1.534-1.506-.416-3.815-.33-4.216.86-3.786.645.23.674.287.617 1.075-.086 1.104.688 6.152.975 6.338.788.517 1.39-.401 1.133-1.763-.703-3.815-.23-6.18 1.175-5.822.43.115.746.502.746.946.072 4.316.115 7.199 1.434 7.199.832 0 .832.028.645-3.714-.2-3.972.273-4.187.975-3.972 1.018.315 1.119 2.696 1.22 3.34 0 .015 2.265 14.9 2.265 14.928.272 3.384 2.38 6.352 3.857 5.406.301-.201-.258-1.535-.86-2.036ZM10.752 15.6c0-2.31.028-2.496.487-3.012.818-.96 1.076-.086 1.233 4.33.115 3.227.13 3.27.818 3.47.889.273.975-.143.875-3.785-.1-3.284-.086-3.398.344-3.829.889-.903 1.075-.544 1.448 2.567.215 1.893.186 2.954-.115 4.589-.072.416 0 .544.344.645.932.244 1.09-.072 1.363-2.796.473-4.718-.172-6.137-2.84-6.166-.788-.014-1.692-.115-2.007-.258-.316-.13-1.033-.23-1.592-.215-.559.014-1.477-.029-2.022-.1-.66-.087-1.204-.03-1.591.143-1.65.76-1.936 1.649-3.872 12.102-.33 1.807-.702 4.058-.803 4.99-.2 1.735-.803 3.757-1.606 5.42-.559 1.147-.43 1.563.46 1.563 1.59 0 3.082-2.58 3.44-5.98.187-1.806.517-2.552 1.09-6.681 1.09-7.959 1.29-8.876 2.094-9.808 1.104-1.277 1.004-.86 1.147 6.567 0 .316.287.56.602.53.574-.042.703-.573.703-4.287ZM37.494 35.373c-.903-1.663-.975-1.72-2.58-1.893-1.95-.215-3.457-.975-4.102-2.065-1.42-2.423-3.412-8.861-3.183-10.28.316-1.994.975-1.85 2.05.415.847 1.778 1.406 2.409 3.399 3.9.889.66 1.434 1.248 1.792 1.95.445.86.602 1.004 1.119 1.004 1.764 0-.344-3.828-2.495-4.517-.918-.287-1.205-.53-1.205-1.003 0-2.366-3.456-4.933-5.29-3.93-1.578.875-1.707 2.194-.617 6.166 2.093 7.615 3.269 9.163 7.198 9.507 1.534.144 1.907.402 2.681 1.85 1.061 1.993 2.28.631 2.036.316-.086-.13-.444-.76-.803-1.42Z"/><path fill="#1D4E1A" d="M18.438 19.887c-1.047.487-2.18 1.692-2.667 2.839-.359.846-.46.932-1.262 1.061-1.75.272-3.27 1.577-3.499 2.968-.2 1.233 1.061 1.864 1.52.746.602-1.448 1.792-2.567 3.097-2.897.803-.2 2.41-1.806 3.771-3.728.86-1.219 1.434.43.832 2.352-1.893 5.936-4.345 9.206-7.17 9.521-1.19.143-1.448.387-2.466 2.409-.674 1.32-.688 1.39-.33 1.649.86.63 1.678.029 2.237-1.635.387-1.147.43-1.204 1.305-1.42 3.298-.845 4.933-2.795 7.299-8.66 1.807-4.474.645-6.74-2.667-5.205Z"/></svg>