<svg xmlns="http://www.w3.org/2000/svg" width="24" height="20" fill="none"><path fill="#FCF3D9" d="M3.742 14.608C-1.275 8.124-.525 1.94 5.476.423 7.309-.043 9.659.49 10.96 1.657l.666.6.984-.584c5.684-3.433 12.684 2.9 9.717 8.784-2.7 5.35-11.484 11.101-13.284 8.701-.534-.716-.267-.817 1.15-.466 1.35.333 7.584-5.201 9.134-8.118 1.867-3.5 1.5-5.4-1.484-7.8-1.233-.984-3.15-.55-4.65 1.083-1.183 1.267-2.417 1.367-3.434-.234-2.883-4.5-7.617-.933-6.267 4.718.567 2.333 1.184 3.5 3.534 6.6 1.6 2.1 1.65 2.2 1.117 2.484-1.017.55-2.6-.467-4.4-2.817Z"/><path fill="#FCF3D9" d="M16.127 4.974c-.817-.15-.134-1.067.633-.8.633.233 1.517.616 1.867 1.6.383 1.033-.383 2.033-.817 1.917-.383-.1-.5-.534-.45-1.417.05-.884-.417-1.15-1.233-1.3ZM17.994 10.257c-1.084.25-1.9-.566-1.417-1.116.366-.4 1.75-.434 2.15-.034.333.35.117.95-.733 1.15Z"/></svg>