<svg xmlns="http://www.w3.org/2000/svg" width="33" height="32" fill="none"><path fill="#FCF3D9" fill-rule="evenodd" d="M10.623 6.247c-3.277 1.021-4.844 5.018-3.852 9.79.316 1.51 1.566 1.553 3.09.604 1.61-1.02 3.508-3.163 4.902-5.908 1.495-2.976-.848-5.52-4.14-4.486Zm1.538 1.323c1.625.963 1.208 2.616-1.51 5.793l-1.58 1.855-.043-1.395C8.898 9.41 10.35 6.492 12.16 7.57Zm7.792 1.351c-2.228 1.035-5.635 5.463-5.635 7.332 0 1.222.877 1.179 5.19-.259 3.406-1.136 5.045-1.783 5.778-2.688 2.43-2.976-1.682-6.081-5.333-4.385Zm3.364 1.352c.762 1.164-1.107 3.565-3.335 4.298-1.826.604-3.077.934-2.947.747.072-.086.517-.675.991-1.308 2.243-2.976 4.673-4.686 5.29-3.737Zm-8.51 8.912c-3.149.547-4.284 2.703-.504 3.997.661.23 2.085.891 3.163 1.466 3.148 1.71 4.715 1.74 6.038.13 1.02-1.237.761-3.22-.216-4.687-2.4-3.608-6.785-1.207-8.482-.906Zm7.273 1.481c.82.417.791 1.366-.071 2.329-1.165 1.294-2.142 1.222-4.917-.374l-2.012-1.15c.316-.057 1.452-.244 3.349-.69 1.74-.431 2.961-.46 3.651-.115Z" clip-rule="evenodd"/></svg>