<svg xmlns="http://www.w3.org/2000/svg" width="24" height="20" fill="none"><path fill="#FCF3D9" d="M19.013 1.336c-3.606-1.832-5.838-.243-3.162.386 6.782 1.603 7.713 9.974 1.202 14.653-7.727 5.538-17.43-1.96-12.507-9.659 2.09-3.262 4.45-5.022 6.811-5.094 2.075-.057 1.417-1.102-.7-1.102C5.432.52-.19 7.174.853 12.125c.845 4.05 4.164 6.683 9.244 7.312 11.834 1.474 18.96-13.007 8.915-18.101Z"/><path fill="#FCF3D9" d="M10.256 12.44c-.63-1.002-.687-1.045-1.317-1.002-1.645.13-.558 2.476 1.517 3.249 1.717.644 4.379.3 5.28-.659 1.36-1.445 1.03-3.734-.4-2.79-.086.057-.287.4-.444.744-1.059 2.347-3.334 2.562-4.636.458ZM16.48 7.861c-.515-1.23-1.316-1.531-1.889-.701-.686 1.016-.3 1.96.802 1.96s1.445-.386 1.087-1.259ZM10.542 8.061c0-1.001-.644-1.46-1.531-1.087-.801.329-1.174 1.846-.601 2.375.901.816 2.132.057 2.132-1.288Z"/></svg>