<!-- Generated by IcoMoon.io -->
<svg version="1.1" xmlns="http://www.w3.org/2000/svg" width="1024" height="1024" viewBox="0 0 1024 1024">
<g id="icomoon-ignore">
</g>
<path fill="#000" d="M977.92 910.080c9.411 8.787 15.277 21.267 15.277 35.117 0 26.51-21.49 48-48 48-13.85 0-26.33-5.866-35.092-15.249l-0.026-0.028-398.080-398.080-398.080 398.080c-8.787 9.411-21.267 15.277-35.117 15.277-26.51 0-48-21.49-48-48 0-13.85 5.866-26.33 15.249-35.092l0.028-0.026 398.080-398.080-398.080-398.080c-7.982-8.549-12.883-20.063-12.883-32.723 0-26.51 21.49-48 48-48 12.659 0 24.174 4.901 32.751 12.908l-0.028-0.026 398.080 398.080 398.080-398.080c8.549-7.982 20.063-12.883 32.723-12.883 26.51 0 48 21.49 48 48 0 12.659-4.901 24.174-12.908 32.751l0.026-0.028-398.080 398.080 398.080 398.080z"></path>
</svg>
