<!-- Generated by IcoMoon.io -->
<svg version="1.1" xmlns="http://www.w3.org/2000/svg" width="945" height="1024" viewBox="0 0 945 1024">
<g id="icomoon-ignore">
</g>
<path d="M216.615 0c-15.295 0.003-28.397 9.39-33.861 22.717l-0.088 0.244-61.44 153.6h702.779l-61.44-153.6c-5.553-13.571-18.654-22.958-33.949-22.961h-512zM180.5 993.004l-55.138-358.282h694.548l-55.138 358.282c-2.79 17.656-17.899 30.996-36.125 30.996-0.011 0-0.021 0-0.032 0h-511.998c-18.222-0.005-33.327-13.343-36.089-30.788l-0.027-0.207zM115.397 267.934h714.516c43.874 0 79.36 30.838 79.36 68.923v137.61c0 38.046-35.525 68.766-79.36 68.766h-714.594c-43.874 0-79.36-30.72-79.36-68.766v-137.649c0-38.046 35.604-68.923 79.439-68.923z"></path>
</svg>
