<svg xmlns="http://www.w3.org/2000/svg" width="33" height="32" fill="none"><path fill="#FCF3D9" d="M27.75 13.843c-3.736-3.68-6.817-6.384-8.838-7.61-1.7-1.032-3.052-1.185-4.67.069-1.714 1.338-4.07 3.75-6.899 6.16-3.554 3.04-2.662 5.451-.223 5.688l1.115.112c.042.864.223 5.896.335 6.634.041.307 0 .655-.112.767-.822.822 1.896 1.101 7.109.739 9.924-.697 10.719-.823 10.022-1.603-.25-.279-.028-7.15-.028-7.15l.627-.21c2.3-.739 2.942-2.244 1.562-3.596ZM15.19 24.84c-.195-1.534-.445-3.624-.041-4.823.613-1.255 1.63-1.645 2.592-1.018.864.572 1.2 1.561 1.213 3.638l.014 1.882c0-.014-2.983.223-3.777.32Zm8.517-.474-3.206.083s-.028-.878-.111-2.09c-.195-3.165-1.101-4.294-3.457-4.28-2.913.014-3.75 1.575-3.164 5.938l.125.934h-2.983l-.543-6.426c-.126-1.463.265-1.965 4.042-5.324 2.425-2.147 1.924-2.063 3.526-.614 1.143 1.032 5.757 5.018 5.757 5.018v6.76h.014Zm2.063-8.07c-.725.724-1.324.403-4.21-2.315-5.38-5.046-4.613-5.018-9.506-.306-1.617 1.547-2.564 2.453-3.178 2.927-1.282.975-2.16-.516-1.463-1.575.516-.795 1.77-2.063 4.223-4.572 4.475-4.586 4.544-4.642 5.59-3.847.278.209 1.324 1.157 2.3 2.09.014.014 5.868 5.409 5.98 5.506.85.725.933 1.422.264 2.091Z"/><path fill="#FCF3D9" d="M15.344 13.439c-1.143.502-1.422 2.244-.488 3.122.934.878 3.22.627 3.861-.418 1.213-1.98-.99-3.736-3.373-2.704Zm2.077.725c.753.53.18 2.048-.78 2.048-.837 0-.92-1.49-.126-2.104.376-.293.418-.279.906.056Z"/></svg>