<svg width="24" height="24" viewBox="0 0 24 24" fill="none" xmlns="http://www.w3.org/2000/svg">
<path fill-rule="evenodd" clip-rule="evenodd" d="M9.46981 6.0606C9.4872 6.94755 10.522 8.37364 11.2263 8.10407C11.5307 7.98234 11.5307 7.85191 11.2002 6.90408C10.4089 4.65191 9.45242 5.34755 9.46981 6.0606ZM15.2089 8.06929C14.9655 8.75625 15.8089 8.87799 16.3916 8.2432C16.9829 7.59103 17.6176 6.61712 17.9568 5.95625C18.3307 5.32147 17.6002 4.99973 16.9915 5.52147C16.2698 6.13017 15.3742 7.59103 15.2089 8.06929ZM3.22635 7.53886C2.68722 7.75625 4.49591 9.99973 5.22635 10.0171C6.07852 10.0345 6.14807 9.84321 5.55677 9.0519C4.62633 7.79973 3.84374 7.28668 3.22635 7.53886ZM11.4003 10.7649C11.0785 11.0867 10.6959 11.5302 10.5481 11.7389C9.2785 13.6345 9.2611 13.6519 8.6785 13.2084C7.33067 12.1997 5.11328 11.5128 5.54806 13.2693C5.81763 14.3302 6.61764 16.2693 6.82634 16.9128C7.36547 18.6084 7.65243 18.8867 8.60895 18.6606C10.9829 18.0867 14.3742 18.0693 16.8003 18.6171C17.4003 18.7563 17.4351 18.6867 17.4959 17.478C17.6177 15.0345 19.0263 12.6519 19.0263 11.8867C19.0263 11.0258 17.4003 11.6693 15.1916 13.3997L14.9655 13.5736L14.6437 13.3563C13.9829 12.9128 13.6524 13.2606 14.0263 13.9997C14.3307 14.5997 14.5829 14.7997 15.2524 14.478C15.635 14.2954 16.1655 13.9476 16.9133 13.4171C17.2089 13.2084 17.4524 13.0606 17.4524 13.0867C17.4524 13.2084 16.922 15.4867 16.922 15.4954L15.6002 15.3823C14.5481 15.3389 14.4263 15.8954 15.5133 16.0606C15.6263 16.078 16.7394 16.2171 16.7394 16.2171C16.7394 16.2171 16.6959 16.7041 16.5742 16.9823C16.4437 17.2606 16.2263 17.3302 15.8698 17.2084C13.0785 16.2867 8.53069 17.4084 8.52199 17.4084C8.35677 17.4345 6.84374 13.4432 6.96548 13.3215C6.98287 13.3041 7.16545 13.4171 7.37415 13.5736C9.73067 15.2867 9.97417 15.2345 11.5307 12.7389L12.2611 11.5649L12.5481 11.991C13.3828 13.2345 14.5655 12.6867 13.9046 11.7736C13.6785 11.4693 13.3046 11.0171 12.7046 10.3128C12.435 9.99103 12.035 10.1302 11.4003 10.7649ZM22.7133 10.6345C22.4003 10.8171 20.7655 12.3823 20.5742 12.678C20.1655 13.3302 21.0177 13.478 21.7916 12.8867C22.6959 12.1997 23.9742 11.0171 23.9742 10.8606C23.9829 10.5476 23.1394 10.391 22.7133 10.6345ZM1.17417 14.7997C2.44373 15.1128 3.17415 15.191 3.4611 15.0345C3.93067 14.7823 3.71329 14.5997 2.60024 14.3215C2.4959 14.2954 1.4698 14.0084 0.765452 14.0084C0.261105 14.0084 -0.860618 14.2867 1.17417 14.7997Z" fill="#1D4E1A"/>
</svg>
