<svg width="24" height="24" viewBox="0 0 24 24" fill="none" xmlns="http://www.w3.org/2000/svg">
<path fill-rule="evenodd" clip-rule="evenodd" d="M9.93329 4.90413C8.30351 5.03557 7.96177 5.18014 8.40864 5.54816C8.52693 5.65331 9.65729 5.69274 12.1151 5.66645C16.5181 5.62702 17.2147 5.70588 17.7536 6.28419C18.3188 6.88878 19.3965 7.07279 19.3965 6.5602C19.3965 6.32362 18.4633 5.4693 18.0165 5.29844C17.1227 4.95671 12.2071 4.72013 9.93329 4.90413ZM5.4777 5.91617C3.00674 8.38713 4.4525 19.1121 7.17318 18.5075C7.68577 18.3892 7.67264 18.2052 7.12062 17.9818C6.056 17.5349 5.77998 16.6674 6.05599 14.6828C6.21371 13.5525 6.23999 12.6061 6.17427 10.0826C6.08227 6.62591 6.1743 6.13961 6.92347 5.88989C7.3572 5.75845 7.12062 5.50873 6.52917 5.45616C6.04286 5.41673 5.92457 5.4693 5.4777 5.91617ZM14.7438 7.41452C13.9683 8.03226 14.402 8.84714 15.5192 8.84714C16.321 8.84714 16.7678 8.46598 16.7678 7.78253C16.7678 7.11222 15.4404 6.8625 14.7438 7.41452ZM18.253 7.69053C17.8719 8.79457 17.8982 9.42545 17.8982 15.6554C17.8587 15.7737 18.253 17.1538 16.5444 17.5218C15.8741 17.6663 14.678 17.7058 12.1282 17.7321C7.85659 17.7978 7.6463 17.8241 8.11946 18.3761C8.86863 19.283 16.6495 19.4801 18.3056 18.639C19.357 18.1001 19.804 15.9314 19.804 11.3181C19.7777 8.55799 18.7787 6.1659 18.253 7.69053ZM9.2104 10.0826C7.00231 12.1461 9.10521 15.7737 12.8511 15.1691C15.2037 14.7879 16.0187 9.88547 13.6923 9.88547C13.2323 9.88547 13.1665 10.0826 13.5346 10.3718C15.4272 11.857 13.3768 14.9588 11.0899 14.2228C8.75036 13.4736 9.27612 9.76718 11.8391 9.76718C12.4174 9.76718 12.7722 9.50431 12.1939 9.26773C11.6945 9.05744 10.5773 8.82086 9.2104 10.0826Z" fill="#1D4E1A"/>
</svg>
