<svg width="24" height="24" viewBox="0 0 24 24" fill="none" xmlns="http://www.w3.org/2000/svg">
<path d="M7.42926 13.0019C7.6683 14.9869 8.2711 15.9847 9.62217 16.6186C10.8901 17.211 11.0668 16.7018 10.1003 15.7769C8.136 13.8853 7.6995 12.6069 8.95704 11.9938C9.61182 11.682 14.4653 11.869 14.4653 11.869C14.9537 11.8587 15.3487 12.264 15.3175 12.7525C15.1823 14.883 14.4861 16.6498 12.3348 16.6602C11.7736 16.6602 11.5968 16.8784 11.9813 17.0863C14.008 18.1776 16.4607 15.6833 16.5127 12.4823C16.5335 11.0376 13.769 10.6011 7.99047 11.1312C7.24218 11.2143 7.22141 11.2767 7.42926 13.0019Z" fill="#1D4E1A"/>
<path d="M13.2493 8.93834C13.6235 9.09425 13.7274 9.22938 13.769 9.6139C13.8417 10.4142 14.4653 10.3934 14.4653 9.60347V9.01112H15.3279C16.6582 9.01112 16.6063 8.39792 15.2656 8.17967L14.5381 8.06535L14.4965 7.42099C14.4445 6.62073 14.0497 6.30894 13.6339 6.72466C13.5403 6.8182 13.4572 7.1092 13.4572 7.37941C13.4572 7.81592 13.4156 7.85748 13.0207 7.85748C12.1684 7.85748 12.3243 8.54342 13.2493 8.93834Z" fill="#1D4E1A"/>
<path d="M14.933 4.80188C13.1454 4.54205 12.8336 4.84345 14.1743 5.55016C15.7436 6.3816 17.9989 9.0006 18.3003 11.4118C18.6744 14.3842 16.2321 17.7202 13.2597 18.2711C8.718 19.1129 4.353 14.2282 5.82879 9.94634C6.78494 7.17146 9.15452 4.77069 10.9941 5.18641C12.0645 5.42545 12.1476 4.84345 11.3058 4.68755C10.8382 4.60441 10.1418 4.58362 9.57026 4.68755C4.28025 5.60213 1.98342 13.48 5.93272 17.1798C10.277 21.2435 17.1883 19.5702 19.6722 13.8645C21.1687 10.4349 18.4874 5.31113 14.933 4.80188Z" fill="#1D4E1A"/>
<path d="M8.25032 8.86547C8.78035 8.86547 8.82191 8.8966 8.82191 9.29155C8.82191 10.3309 9.60139 10.6115 9.76774 9.62416C9.91322 8.76155 9.94435 8.71999 10.4952 8.71999C11.2227 8.71999 11.1396 8.26267 10.3809 8.0756C9.89243 7.95088 9.84043 7.89892 9.84043 7.45202C9.84043 6.46469 9.19609 6.01781 8.85313 6.76609C8.75956 6.97395 8.68684 7.29613 8.68684 7.4936C8.68684 7.82617 8.65568 7.84695 8.12563 7.76381C7.0032 7.58713 7.04474 8.86547 8.25032 8.86547Z" fill="#1D4E1A"/>
</svg>
