<svg xmlns="http://www.w3.org/2000/svg" width="20" height="22" fill="none"><path fill="#1D4E1A" d="M19.648 15.125a.75.75 0 0 1-.273 1.023l-9 5.25a.75.75 0 0 1-.756 0l-9-5.25a.75.75 0 0 1 .756-1.296L10 19.882l8.625-5.03a.75.75 0 0 1 1.023.273Zm-1.023-4.773L10 15.382l-8.625-5.03a.75.75 0 0 0-.75 1.296l9 5.25a.75.75 0 0 0 .756 0l9-5.25a.749.749 0 1 0-.756-1.296ZM.25 6.5a.75.75 0 0 1 .375-.648l9-5.25a.75.75 0 0 1 .756 0l9 5.25a.75.75 0 0 1 0 1.296l-9 5.25a.75.75 0 0 1-.756 0l-9-5.25A.75.75 0 0 1 .25 6.5Zm2.239 0L10 10.882 17.511 6.5 10 2.118 2.489 6.5Z"/></svg>