<svg xmlns="http://www.w3.org/2000/svg" width="21" height="21" fill="none"><path fill="#1D4E1A" d="M20.25 8.689a1.489 1.489 0 0 0-.44-1.06l-6.438-6.44a1.5 1.5 0 0 0-2.122 0L8.585 3.854 3.147 5.895a1.506 1.506 0 0 0-.958 1.158L.01 20.126a.75.75 0 0 0 .864.864l13.072-2.18a1.499 1.499 0 0 0 1.158-.952l2.041-5.438 2.665-2.67a1.49 1.49 0 0 0 .44-1.061ZM13.7 17.33 2.936 19.125l4.441-4.441a2.625 2.625 0 1 0-1.061-1.061l-4.441 4.443L3.668 7.299l5.144-1.928 6.816 6.816-1.928 5.144Zm-6.2-4.956a1.125 1.125 0 1 1 2.25 0 1.125 1.125 0 0 1-2.25 0Zm9-1.436L10.06 4.5l2.25-2.25 6.44 6.439-2.25 2.25Z"/></svg>