<svg xmlns="http://www.w3.org/2000/svg" width="20" height="18" fill="none"><path fill="#1D4E1A" d="M18.25.75H1.75a1.5 1.5 0 0 0-1.5 1.5v13.5a1.5 1.5 0 0 0 1.5 1.5h16.5a1.5 1.5 0 0 0 1.5-1.5V2.25a1.5 1.5 0 0 0-1.5-1.5Zm0 1.5v9.633L15.806 9.44a1.5 1.5 0 0 0-2.122 0l-1.875 1.875L7.684 7.19a1.5 1.5 0 0 0-2.12 0L1.75 11.003V2.25h16.5ZM1.75 13.125 6.625 8.25l7.5 7.5H1.75v-2.625Zm16.5 2.625h-2.003l-3.375-3.375 1.875-1.875 3.503 3.504v1.746ZM11.5 6.375a1.125 1.125 0 1 1 2.25 0 1.125 1.125 0 0 1-2.25 0Z"/></svg>