<svg xmlns="http://www.w3.org/2000/svg" width="18" height="18" fill="none"><path fill="#1D4E1A" d="M5.25 6A.75.75 0 0 1 6 5.25h6a.75.75 0 1 1 0 1.5H6A.75.75 0 0 1 5.25 6ZM6 9.75h6a.75.75 0 1 0 0-1.5H6a.75.75 0 0 0 0 1.5Zm3 1.5H6a.75.75 0 1 0 0 1.5h3a.75.75 0 1 0 0-1.5Zm9-9.75v10.19a1.487 1.487 0 0 1-.44 1.06l-4.81 4.81a1.487 1.487 0 0 1-1.06.44H1.5A1.5 1.5 0 0 1 0 16.5v-15A1.5 1.5 0 0 1 1.5 0h15A1.5 1.5 0 0 1 18 1.5Zm-16.5 15h9.75V12a.75.75 0 0 1 .75-.75h4.5V1.5h-15v15Zm11.25-3.75v2.69l2.69-2.69h-2.69Z"/></svg>