<svg aria-hidden="true" style="position: absolute; width: 0; height: 0; overflow: hidden;" version="1.1" xmlns="http://www.w3.org/2000/svg" xmlns:xlink="http://www.w3.org/1999/xlink">
<defs>
<symbol id="icon-abut-crown" viewBox="0 0 32 32">
<path d="M12.626 8.080c0.023 1.184 1.403 3.086 2.343 2.726 0.405-0.162 0.405-0.336-0.035-1.6-1.055-3.003-2.331-2.075-2.307-1.125zM20.279 10.759c-0.325 0.917 0.8 1.079 1.577 0.232 0.789-0.869 1.634-2.168 2.087-3.049 0.498-0.846-0.475-1.275-1.288-0.579-0.962 0.811-2.157 2.759-2.377 3.397zM4.302 10.051c-0.719 0.29 1.693 3.281 2.666 3.305 1.137 0.023 1.23-0.232 0.441-1.287-1.241-1.67-2.285-2.355-3.107-2.018zM15.2 14.354c-0.429 0.429-0.939 1.021-1.136 1.298-1.693 2.528-1.715 2.551-2.493 1.96-1.798-1.345-4.754-2.261-4.174 0.080 0.359 1.416 1.426 4 1.704 4.859 0.719 2.261 1.102 2.632 2.377 2.33 3.166-0.766 7.687-0.789 10.921-0.058 0.8 0.185 0.846 0.093 0.928-1.519 0.162-3.257 2.040-6.434 2.040-7.455 0-1.149-2.168-0.29-5.112 2.017l-0.302 0.232-0.43-0.29c-0.88-0.591-1.321-0.127-0.823 0.858 0.406 0.8 0.743 1.066 1.634 0.638 0.511-0.243 1.218-0.707 2.215-1.415 0.394-0.278 0.72-0.475 0.72-0.44 0 0.162-0.709 3.2-0.709 3.211l-1.762-0.151c-1.402-0.057-1.566 0.685-0.115 0.904 0.151 0.023 1.634 0.209 1.634 0.209s-0.057 0.649-0.219 1.021c-0.175 0.37-0.464 0.464-0.939 0.301-3.722-1.229-9.786 0.267-9.798 0.267-0.219 0.034-2.238-5.287-2.075-5.449 0.023-0.023 0.267 0.127 0.545 0.336 3.143 2.283 3.467 2.215 5.543-1.113l0.974-1.566 0.382 0.569c1.113 1.657 2.69 0.927 1.809-0.29-0.302-0.406-0.8-1.009-1.6-1.947-0.359-0.43-0.893-0.243-1.739 0.602zM30.286 14.179c-0.417 0.243-2.598 2.331-2.853 2.725-0.545 0.869 0.592 1.066 1.623 0.278 1.207-0.915 2.911-2.491 2.911-2.701 0.011-0.417-1.113-0.626-1.681-0.302zM1.566 19.734c1.694 0.417 2.667 0.521 3.050 0.312 0.626-0.336 0.336-0.579-1.147-0.951-0.139-0.034-1.509-0.417-2.447-0.417-0.672 0-2.168 0.371 0.545 1.055z"></path>
</symbol>
<symbol id="icon-abut-drop" viewBox="0 0 32 32">
<path d="M7.246 0.83c-5.099 1.588-7.536 7.804-5.991 15.228 0.491 2.347 2.436 2.414 4.807 0.939 2.503-1.588 5.456-4.919 7.625-9.191 2.325-4.629-1.319-8.587-6.441-6.976zM9.639 2.887c2.528 1.499 1.879 4.071-2.347 9.012l-2.462 2.885-0.068-2.169c-0.199-6.866 2.059-11.406 4.876-9.728zM21.76 4.988c-3.467 1.611-8.766 8.498-8.766 11.404 0 1.902 1.364 1.835 8.071-0.402 5.301-1.767 7.851-2.773 8.99-4.181 3.78-4.629-2.615-9.46-8.295-6.821zM26.992 7.092c1.186 1.81-1.721 5.547-5.188 6.684-2.841 0.94-4.786 1.454-4.585 1.164 0.112-0.135 0.805-1.052 1.543-2.036 3.488-4.629 7.268-7.289 8.231-5.813zM13.755 20.955c-4.898 0.85-6.665 4.204-0.782 6.217 1.028 0.357 3.241 1.387 4.919 2.281 4.896 2.661 7.333 2.706 9.392 0.201 1.588-1.922 1.184-5.008-0.336-7.289-3.733-5.612-10.555-1.879-13.193-1.41zM25.068 23.259c1.275 0.649 1.23 2.124-0.112 3.623-1.81 2.012-3.332 1.9-7.646-0.581l-3.131-1.79c0.491-0.089 2.258-0.38 5.209-1.074 2.706-0.67 4.608-0.715 5.68-0.178z"></path>
</symbol>
<symbol id="icon-abut-flash" viewBox="0 0 24 32">
<path d="M13.815 1.452c-3.235 1.641-10.527 9.757-12.905 14.304-1.433 2.745-1.259 2.903 3.376 3.164l3.304 0.193c-5.997 10.491-5.387 9.373-5.437 9.477-1.312 2.256 0.472 3.76 2.36 1.993 0.017-0.017 16.227-12.608 19.131-16.787 0.332-0.472 0.244-1.015-0.491-1.557-1.207-0.891-2.832-1.171-8.76-1.66-0.927-0.071-1.347-0.176-1.276-0.315 0.436-1.067 2.115-5.544 2.92-7.293 0.944-2.045 0.856-3.093-2.221-1.52zM12.608 5.368c-0.157 0.368-2.099 5.019-2.187 5.212-0.453 0.909-0.156 1.381 0.98 1.503 3.777 0.403 5.28 0.543 6.803 0.613 2.517 0.121 2.536 0.017-0.123 2.693-2.832 2.867-10.072 9.512-10.229 9.355-0.14-0.14 2.187-4.583 2.815-5.404 1.137-1.487 0.787-1.696-2.832-1.696-1.627 0-2.64-0.035-3.411-0.088-0.519-0.037-0.925-0.467-0.925-0.992 0-0.174 0.045-0.338 0.124-0.481l-0.003 0.005c1.312-2.396 3.655-5.387 7.555-9.671 1.783-1.923 1.819-1.959 1.433-1.049z"></path>
</symbol>
<symbol id="icon-abut-heart" viewBox="0 0 32 32">
<path d="M7.992 20.608c-5.017-6.484-4.267-12.668 1.733-14.185 1.833-0.467 4.184 0.067 5.484 1.233l0.667 0.6 0.983-0.583c5.684-3.434 12.684 2.9 9.717 8.784-2.7 5.35-11.484 11.101-13.284 8.701-0.533-0.717-0.267-0.817 1.15-0.467 1.35 0.333 7.584-5.2 9.134-8.117 1.867-3.5 1.5-5.4-1.483-7.801-1.233-0.983-3.15-0.55-4.65 1.083-1.183 1.267-2.417 1.367-3.434-0.233-2.884-4.5-7.617-0.933-6.267 4.717 0.567 2.334 1.183 3.5 3.534 6.601 1.6 2.1 1.65 2.2 1.117 2.484-1.017 0.55-2.6-0.467-4.4-2.817z"></path>
<path d="M20.377 10.974c-0.817-0.15-0.133-1.067 0.633-0.8 0.633 0.233 1.517 0.617 1.867 1.6 0.383 1.033-0.383 2.034-0.817 1.917-0.383-0.1-0.5-0.533-0.45-1.417s-0.417-1.15-1.233-1.3z"></path>
<path d="M22.244 16.257c-1.083 0.25-1.9-0.567-1.417-1.117 0.367-0.4 1.75-0.433 2.15-0.033 0.333 0.35 0.117 0.95-0.733 1.15z"></path>
</symbol>
<symbol id="icon-abut-home" viewBox="0 0 32 32">
<path d="M30.666 13.124c-4.981-4.907-9.088-8.512-11.783-10.148-2.267-1.375-4.069-1.579-6.226 0.094-2.286 1.783-5.426 4.998-9.199 8.213-4.739 4.053-3.55 7.267-0.298 7.584l1.487 0.148c0.055 1.152 0.298 7.861 0.446 8.846 0.055 0.41 0 0.875-0.149 1.023-1.095 1.097 2.528 1.468 9.479 0.985 13.232-0.928 14.291-1.097 13.362-2.137-0.334-0.372-0.037-9.535-0.037-9.535l0.836-0.278c3.067-0.985 3.922-2.992 2.082-4.795zM13.92 27.787c-0.26-2.045-0.594-4.832-0.055-6.431 0.818-1.673 2.174-2.193 3.456-1.357 1.152 0.763 1.6 2.082 1.618 4.851l0.018 2.509c0-0.018-3.978 0.298-5.037 0.427zM25.276 27.154l-4.274 0.112s-0.037-1.171-0.149-2.788c-0.26-4.219-1.468-5.724-4.608-5.706-3.885 0.019-5.001 2.101-4.22 7.918l0.167 1.245h-3.979l-0.725-8.567c-0.166-1.952 0.354-2.621 5.391-7.1 3.233-2.862 2.564-2.751 4.702-0.818 1.523 1.376 7.676 6.691 7.676 6.691v9.013h0.018zM28.027 16.394c-0.966 0.966-1.765 0.54-5.613-3.085-7.174-6.727-6.153-6.691-12.675-0.409-2.156 2.062-3.42 3.27-4.238 3.902-1.71 1.301-2.88-0.687-1.952-2.099 0.689-1.059 2.362-2.751 5.632-6.096 5.966-6.115 6.059-6.189 7.453-5.131 0.372 0.279 1.765 1.543 3.067 2.788 0.018 0.019 7.824 7.211 7.973 7.342 1.133 0.966 1.245 1.895 0.352 2.787z"></path>
<path d="M14.125 12.585c-1.524 0.67-1.895 2.993-0.651 4.163 1.246 1.171 4.293 0.836 5.148-0.558 1.617-2.639-1.319-4.98-4.497-3.605zM16.894 13.551c1.003 0.706 0.241 2.733-1.041 2.733-1.115 0-1.227-1.989-0.167-2.806 0.501-0.39 0.558-0.372 1.209 0.075z"></path>
</symbol>
<symbol id="icon-abut-hospitality" viewBox="0 0 32 32">
<path d="M29.88 12.053l-0.593-2.005 0.668-0.873c2.468-3.248-2.116-8.333-5.755-6.384-0.389 0.204-0.853 0.223-1.521 0.055-1.225-0.315-5.235-0.983-6.051-1.076-2.711-0.333-1.968 0.984-0.799 1.095 2.636 0.28 2.58 0.131 1.875 0.873-1.095 1.169-0.148 5.735 1.596 7.72 1.579 1.801 5.401 2.767 6.589 1.653 2.357-2.227 1.708 8.093-0.724 11.248-7.573 9.856-23.535 0.352-20.659-12.307l0.335-1.485 1.373 0.911c2.395 1.596 3.379 0.797 1.541-1.244-3.008-3.323-1.987-7.555 1.169-4.863 1.057 0.909 2.357 1.040 2.895 0.315 1.596-2.189 2.543-1.411 2.524 0.928 0 1.263-0.593 2.116-3.025 4.381-2.133 1.987-2.227 2.653-0.371 2.653 1.244 0 5.272-4.769 5.624-6.644 0.501-2.636-3.063-4.791-5.179-3.137-0.483 0.389-0.78 0.464-0.965 0.279-0.185-0.187-0.148-0.52 0.445-0.853 0.595-0.335 1.504-0.595 1.3-1.152-0.28-0.74-2.339 0.223-2.617 0.391-0.279 0.148-1.28 0.797-2.135 0.797-2.933 0-4.047 0.892-3.805 3.027 0.131 1.187 0.056 1.52-0.613 2.709-5.213 9.243 1.839 20.919 12.771 21.141 11.12 0.26 17.225-7.629 14.107-18.153zM26.131 10.12c-2.004 2.227-2.301 2.32-3.953 1.356-1.317-0.78-2.395-2.803-2.617-4.937-0.223-2.247 0.928-2.84 2.896-1.504l0.965 0.668 0.965-0.631c2.765-1.837 6.403-0.112 1.744 5.048z"></path>
<path d="M6.847 16.191c0.129 0.391 0.408 1.689 0.631 2.896 1.652 9.003 16.093 8.836 16.835-0.185 0.093-1.113 0.297-2.097 0.445-2.191 1.3-0.835-2.172-1.948-4.621-1.467-0.76 0.149-3.675 0.187-7.147 0.093-6.421-0.187-6.459-0.187-6.143 0.853zM22.585 16.804v1.373c0 5.104-9.113 7.907-12.139 3.712-1.040-1.429-1.020-2.301-1.169-4.993 8.539-0.277 8.743-0.24 13.308-0.093z"></path>
</symbol>
<symbol id="icon-abut-logo-inverted" viewBox="0 0 32 32">
<path d="M8 0c-0.478 0-0.887 0.293-1.058 0.71l-0.003 0.008-1.92 4.8h21.961l-1.92-4.8c-0.173-0.424-0.583-0.717-1.060-0.717h-16zM6.871 31.031l-1.724-11.196h21.707l-1.724 11.196c-0.087 0.552-0.559 0.968-1.129 0.969h-16c-0.569-0-1.041-0.417-1.128-0.962l-0.001-0.006zM4.836 8.373h22.329c1.372 0 2.48 0.964 2.48 2.152v4.302c0 1.188-1.111 2.148-2.48 2.148h-22.331c-1.371 0-2.48-0.96-2.48-2.148v-4.302c0-1.188 1.114-2.153 2.483-2.153z"></path>
</symbol>
<symbol id="icon-abut-love" viewBox="0 0 32 32">
<path d="M30.872 11.77l-0.637-2.149 0.717-0.934c2.645-3.48-2.267-8.929-6.166-6.841-0.417 0.218-0.914 0.239-1.631 0.059-1.312-0.338-5.608-1.054-6.482-1.154-2.904-0.357-2.109 1.055-0.856 1.174 2.824 0.298 2.765 0.139 2.009 0.935-1.174 1.254-0.16 6.145 1.71 8.274 1.691 1.928 5.787 2.962 7.061 1.769 2.526-2.386 1.829 8.671-0.776 12.051-8.114 10.56-25.217 0.377-22.134-13.185l0.358-1.591 1.471 0.975c2.566 1.71 3.619 0.855 1.651-1.333-3.223-3.56-2.128-8.095 1.253-5.211 1.134 0.975 2.526 1.114 3.103 0.338 1.71-2.346 2.723-1.511 2.704 0.994 0 1.353-0.637 2.267-3.241 4.694-2.287 2.128-2.386 2.845-0.398 2.845 1.333 0 5.648-5.112 6.025-7.12 0.537-2.824-3.28-5.131-5.549-3.36-0.517 0.417-0.834 0.496-1.033 0.297s-0.16-0.557 0.477-0.914c0.637-0.359 1.611-0.637 1.392-1.234-0.297-0.794-2.505 0.24-2.803 0.418-0.298 0.16-1.373 0.855-2.287 0.855-3.143 0-4.336 0.955-4.078 3.242 0.139 1.273 0.061 1.631-0.656 2.903-5.589 9.904 1.969 22.413 13.682 22.651 11.912 0.279 18.455-8.174 15.114-19.449zM26.855 9.702c-2.149 2.386-2.466 2.486-4.237 1.451-1.411-0.834-2.565-3.002-2.803-5.289-0.239-2.407 0.994-3.043 3.102-1.611l1.034 0.717 1.034-0.677c2.963-1.969 6.862-0.119 1.87 5.409z"></path>
<path d="M6.192 16.206c0.139 0.417 0.438 1.809 0.677 3.102 1.77 9.646 17.242 9.466 18.038-0.199 0.099-1.193 0.318-2.247 0.477-2.346 1.392-0.895-2.327-2.088-4.952-1.571-0.815 0.16-3.937 0.199-7.656 0.099-6.88-0.199-6.921-0.199-6.583 0.914zM23.056 16.862v1.471c0 5.47-9.765 8.472-13.006 3.977-1.113-1.531-1.094-2.465-1.253-5.349 9.147-0.298 9.367-0.258 14.258-0.099z"></path>
</symbol>
<symbol id="icon-abut-quality" viewBox="0 0 32 32">
<path d="M23.597 1.898c-1.535 0.691-2.362 2.039-2.48 4.029-0.151 2.665-0.759 3.577-1.45 2.193-2.513-4.959-11.148-6.358-12.025-1.94-0.102 0.473-0.116 0.473-1.213 0.473-4.823-0.033-7.607 9.46-4.15 14.167 0.237 0.32-0.102 1.449-1.095 3.658-0.557 1.231-0.489 1.434 0.489 1.872 0.895 0.404 1.181-0.016 2.967-4.401 0.128-0.304 0.203-0.658 0.203-1.029s-0.074-0.725-0.209-1.047l0.007 0.018c-0.474-1.165-0.903-2.080-1.37-2.972l0.091 0.19c-1.283-2.512-0.439-6.054 1.955-8.177 2.193-1.939 4.436-0.337 2.513 1.804-2.647 2.935-0.135 6.495 3.76 5.331 3.491-1.030 3.626-5.903 0.186-6.831-1.821-0.489-2.598-3.053-1.215-3.98 3.44-2.327 7.724 2.444 7.268 8.112-0.236 2.951 2.733 1.601 2.733-0.422 0-0.524 0.134-0.81 0.673-1.434 1.148-1.332 1.687-2.732 1.94-5.143 0.236-2.225 3.136-4.081 3.962-2.531 0.524 0.979-0.303 6.208-1.231 7.709-0.742 1.213-3.373 4.198-4.217 4.771-1.095 0.742-0.977 1.383 0.32 1.603 0.641 0.102 0.742 0.067 1.94-0.928 2.985-2.479 3.929-3.693 4.637-6.020 0.506-1.652 1.248-1.28 1.265 0.439 0.017 3.524-3.676 7.639-7.217 9.089-0.844 0.353-0.895 0.742-0.169 1.281 1.079 0.793 3.001-0.033 5.21-2.243 1.383-1.382 1.452-1.417 1.299-0.86-0.826 3.204-3.491 5.852-6.88 6.847-2.243 0.657-4.335 1.13-5.903 1.332-0.22 0.067-1.552 0.017-2.665 1.197-1.636 1.737 0.877 3.12 1.737 1.737 0.64-1.046 0.844-1.146 2.092-1.164 1.231 0 1.299-0.016 4.79-0.995 2.967-0.826 4.721-1.687 5.985-2.916 2.665-2.615 3.779-6.393 2.396-8.214-0.304-0.404-0.304-0.422 0.185-1.484 0.995-2.125 0.759-4.925-0.556-6.511-0.473-0.573-0.506-0.724-0.557-2.108-0.067-3.273-3.322-5.716-6.003-4.502zM11.505 10.262c1.399 0.708 0.573 4.368-1.062 4.772-0.575 0.153-3.121-1.164-1.132-3.913 0.911-1.264 1.181-1.382 2.193-0.858z"></path>
</symbol>
<symbol id="icon-abut-sustainability" viewBox="0 0 32 32">
<path d="M12.003 1.507c-1.733 0.207-1.688 0.115-1.688 3.42v2.959l-1.664-0.672c-3.605-1.409-4.16-1.063-6.333 4.045-0.971 2.265-0.993 2.219 1.433 3.444l1.988 0.993s-4.577 3.629-4.507 3.56c-0.288 0.256-0.468 0.627-0.468 1.041 0 0.303 0.097 0.584 0.262 0.813l-0.003-0.004c3.467 4.993 6.773 6.38 9.361 3.952l0.648-0.6 0.047 1.248c0.023 0.693 0.023 1.803-0.024 2.449-0.115 2.359 2.404 2.889 9.685 2.057 2.196-0.253 2.057-0.069 1.896-2.704l-0.14-2.333 0.671 0.347c2.381 1.224 3.26 0.808 5.871-2.636 2.659-3.513 2.567-3.167 1.133-4.369-1.688-1.432-3.653-2.959-3.976-3.073 1.272-1.387 3.607-4 3.607-4 0.323-0.323 0.485-0.761 0.485-1.2 0-0.44-0.208-0.88-0.533-1.18-3.859-3.536-6.055-4.347-7.951-2.889l-1.063 0.809s-0.069-4.023-0.093-4.276c-0.091-1.040-4.644-1.687-8.643-1.201zM19.307 11.191c1.040-0.161 2.265-0.832 3.56-1.987 1.364-1.227 1.34-1.227 2.659-0.14 0.577 0.485 1.155 0.947 1.293 1.040 0.161 0.116 0 0.393-0.44 0.787-4.275 3.72-5.408 5.385-3.697 5.385 0.301 0 4.323 3.259 4.323 3.259l-2.681 3.884-0.717-0.44c-4.576-2.796-5.847-2.357-4.784 1.664 0.879 3.329 0.925 3.861 0.185 3.861-0.301 0-4.023 0.3-4.023 0.3l-0.139-2.751c-0.139-2.981 0.069-8.691-5.363-3.929-1.572 1.387-1.78 1.711-2.496 0.947-0.342-0.395-1-1.185-1.653-1.979l-0.358-0.448s2.728-2.219 3.305-2.635c2.751-1.872 2.38-2.080-0.832-3.744-1.225-0.648-2.288-1.227-2.381-1.319s1.988-4.067 1.988-4.067l2.196 1.132c3.097 1.617 4.853 1.849 4.507-0.163-0.231-1.387-0.231-6.472-0.231-6.472l3.813-0.045s-0.439 4.16-0.231 6.287c0.139 0.925 0.301 1.849 2.196 1.572z"></path>
</symbol>
<symbol id="icon-banner-eats" viewBox="0 0 32 32">
<path d="M15.046 17.205c0-1.262-1.050-2.253-2.375-2.253-1.306 0-2.375 0.991-2.375 2.253s1.069 2.254 2.375 2.254c1.326 0 2.375-0.991 2.375-2.254zM16.984 13.515v7.385h-1.974v-0.667c-0.687 0.547-1.556 0.853-2.5 0.853-2.338 0-4.162-1.724-4.162-3.882 0-2.151 1.831-3.882 4.162-3.882 0.944 0 1.813 0.306 2.5 0.853v-0.66h1.975zM23.547 19.224h-1.488c-0.45 0-0.744-0.187-0.744-0.584v-3.455h2.225v-1.669h-2.225v-2.104h-1.993v2.103h-1.501v1.676h1.501v3.924c0 0.992 0.744 1.779 2.081 1.779h2.138v-1.67h0.006zM28.046 21.087c2.282 0 3.569-1.029 3.569-2.446 0-1.010-0.762-1.762-2.356-2.085l-1.688-0.325c-0.975-0.168-1.288-0.343-1.288-0.686 0-0.444 0.469-0.715 1.338-0.715 0.943 0 1.63 0.24 1.831 1.058h1.975c-0.107-1.538-1.288-2.566-3.675-2.566-2.062 0-3.512 0.805-3.512 2.362 0 1.076 0.8 1.779 2.518 2.121l1.882 0.408c0.744 0.139 0.943 0.325 0.943 0.613 0 0.462-0.562 0.751-1.469 0.751-1.138 0-1.794-0.241-2.043-1.058h-1.994c0.294 1.538 1.506 2.566 3.97 2.566zM0.377 10.895h7.444v1.707h-5.431v2.446h5.288v1.659h-5.288v2.476h5.431v1.707h-7.444v-9.994z"></path>
</symbol>
<symbol id="icon-banner-hands" viewBox="0 0 32 32">
<path d="M19.413 5.282c0.573-1.166-0.172-2.007-0.965-1.080-0.583 0.689-1.405 2.648-1.262 3.021 0.335 0.851 1.253 0.048 2.227-1.94zM13.707 7.633c0.602 0.192 0.813-0.162 0.745-1.252-0.143-2.151-0.803-3.040-1.931-2.591-0.535 0.211 0.516 3.633 1.185 3.843zM7.675 8.189c1.357 1.013 2.304 1.463 2.781 1.29 0.593-0.21 0.497-0.411-0.583-1.261-1.377-1.1-2.132-1.425-2.859-1.233-0.516 0.133-0.353 0.44 0.66 1.205zM19.404 8.551c-0.325 0.354-0.325 0.363-0.077 0.545 0.707 0.516 1.463 0.105 4.455-2.447 0.803-0.689-0.525-1.233-1.463-0.593-0.487 0.335-2.533 2.085-2.915 2.495zM30.78 25.778c-0.335-0.277-0.555-0.793-0.65-1.53-0.067-0.507-1.138-8.88-1.625-11.089-0.401-1.835-1.529-2.705-2.428-2.753-0.564-0.029-0.889 0.344-1.119 0.201-0.621-0.392-0.793-0.573-1.405-0.516-0.287 0.019-0.927 0.191-1.147 0.383-0.144 0.115-0.325 0.115-0.727 0.009-1.969-0.526-2.839 1.348-1.95 4.207 0.507 1.634 1.233 0.917 1.023-1.004-0.277-2.543-0.22-2.811 0.573-2.524 0.43 0.153 0.449 0.191 0.411 0.717-0.057 0.736 0.459 4.101 0.65 4.225 0.525 0.345 0.927-0.267 0.755-1.175-0.469-2.543-0.153-4.12 0.783-3.881 0.287 0.077 0.497 0.335 0.497 0.631 0.048 2.877 0.077 4.799 0.956 4.799 0.555 0 0.555 0.019 0.43-2.476-0.133-2.648 0.182-2.791 0.65-2.648 0.679 0.21 0.746 1.797 0.813 2.227 0 0.010 1.51 9.933 1.51 9.952 0.181 2.256 1.587 4.235 2.571 3.604 0.201-0.134-0.172-1.023-0.573-1.357zM7.168 13.733c0-1.54 0.019-1.664 0.325-2.008 0.545-0.64 0.717-0.057 0.822 2.887 0.077 2.151 0.087 2.18 0.545 2.313 0.593 0.182 0.65-0.095 0.583-2.523-0.067-2.189-0.057-2.265 0.229-2.553 0.593-0.602 0.717-0.363 0.965 1.711 0.143 1.262 0.124 1.969-0.077 3.059-0.048 0.277 0 0.363 0.229 0.43 0.621 0.163 0.727-0.048 0.909-1.864 0.315-3.145-0.115-4.091-1.893-4.111-0.525-0.009-1.128-0.077-1.338-0.172-0.211-0.087-0.689-0.153-1.061-0.143s-0.985-0.019-1.348-0.067c-0.44-0.058-0.803-0.020-1.061 0.095-1.1 0.507-1.291 1.099-2.581 8.068-0.22 1.205-0.468 2.705-0.535 3.327-0.133 1.157-0.535 2.505-1.071 3.613-0.373 0.765-0.287 1.042 0.307 1.042 1.060 0 2.055-1.72 2.293-3.987 0.125-1.204 0.345-1.701 0.727-4.454 0.727-5.306 0.86-5.917 1.396-6.539 0.736-0.851 0.669-0.573 0.765 4.378 0 0.211 0.191 0.373 0.401 0.353 0.383-0.028 0.469-0.382 0.469-2.858zM24.996 26.915c-0.602-1.109-0.65-1.147-1.72-1.262-1.3-0.143-2.305-0.65-2.735-1.377-0.947-1.615-2.275-5.907-2.122-6.853 0.211-1.329 0.65-1.233 1.367 0.277 0.565 1.185 0.937 1.606 2.266 2.6 0.593 0.44 0.956 0.832 1.195 1.3 0.297 0.573 0.401 0.669 0.746 0.669 1.176 0-0.229-2.552-1.663-3.011-0.612-0.191-0.803-0.353-0.803-0.669 0-1.577-2.304-3.289-3.527-2.62-1.052 0.583-1.138 1.463-0.411 4.111 1.395 5.077 2.179 6.109 4.799 6.338 1.023 0.096 1.271 0.268 1.787 1.233 0.707 1.329 1.52 0.421 1.357 0.211-0.057-0.087-0.296-0.507-0.535-0.947z"></path>
<path d="M12.292 16.591c-0.698 0.325-1.453 1.128-1.778 1.893-0.239 0.564-0.307 0.621-0.841 0.707-1.167 0.181-2.18 1.051-2.333 1.979-0.133 0.822 0.707 1.243 1.013 0.497 0.401-0.965 1.195-1.711 2.065-1.931 0.535-0.133 1.607-1.204 2.514-2.485 0.573-0.813 0.956 0.287 0.555 1.568-1.262 3.957-2.897 6.137-4.78 6.347-0.793 0.095-0.965 0.258-1.644 1.606-0.449 0.88-0.459 0.927-0.22 1.099 0.573 0.42 1.119 0.019 1.491-1.090 0.258-0.765 0.287-0.803 0.87-0.947 2.199-0.563 3.289-1.863 4.866-5.773 1.205-2.983 0.43-4.493-1.778-3.47z"></path>
</symbol>
<symbol id="icon-banner-home" viewBox="0 0 32 32">
<path d="M27.313 9.605c-0.056-0.076-0.112-0.171-0.112-0.265-0.28-3.259-0.748-5.437-0.748-5.437-0.081-0.366-0.375-0.645-0.743-0.701l-2.586-0.322h-0.075c-0.3 0.003-0.541 0.247-0.541 0.547 0 0.001 0 0.002 0 0.003v-0 0.909c0 0.019-0.020 0.037-0.039 0.037h-0.019c-1.546-1.422-3.244-2.733-5.050-3.891l-0.147-0.088c-0.357-0.245-0.797-0.393-1.271-0.397h-0.001c-0.467 0-0.916 0.152-1.272 0.397-8.881 5.552-13.781 14.608-13.968 15.1-0.047 0.103-0.075 0.224-0.075 0.351 0 0.010 0 0.020 0.001 0.030l-0-0.001c0 0.416 0.28 0.776 0.673 0.871l2.561 0.493c0.342 0.102 0.595 0.395 0.636 0.753l0 0.004c0.019 0.455 0.505 10.685 1.123 13.339 0.093 0.379 0.448 0.663 0.86 0.663h0.019c1.496-0.037 2.86-0.057 4.337-0.076h0.131c0.151 0 0.28-0.133 0.28-0.284-0.055-0.891-0.187-2.937-0.299-5.077 0-0.057 0-0.113-0.019-0.171-0.014-0.184-0.114-0.341-0.259-0.435l-0.002-0.001c-0.769-0.481-1.287-1.301-1.346-2.245l-0-0.008c-0.131-3.581-0.205-7.731 0-10.971 0.019-0.267 0.244-0.493 0.505-0.493 0.28 0 0.524 0.227 0.524 0.512v0.037c-0.131 2.16-0.131 4.719-0.093 7.239 0 0.34 0.28 0.605 0.616 0.605 0.333-0.006 0.6-0.277 0.6-0.611 0-0.005-0-0.010-0-0.016v0.001c-0.039-2.539-0.039-5.115 0.093-7.275 0.017-0.267 0.243-0.493 0.504-0.493 0.28 0 0.524 0.227 0.524 0.512v0.037c-0.132 2.16-0.132 4.7-0.093 7.2 0 0.341 0.28 0.607 0.616 0.607 0.333-0.006 0.6-0.277 0.6-0.611 0-0.006-0-0.011-0-0.017l0 0.001c-0.039-2.519-0.039-5.096 0.093-7.255 0.017-0.267 0.241-0.493 0.504-0.493 0.28 0 0.524 0.227 0.524 0.512v0.037c-0.187 3.147-0.132 7.143 0 10.648v0.133c0 0.965-0.468 1.8-1.197 2.311-0.132 0.086-0.22 0.232-0.224 0.398v0.001s-0.056 0.529 0.168 3.144c0.112 1.137 0.187 1.933 0.224 2.273 0.019 0.133 0.131 0.247 0.263 0.247h3.888l1.459 0.019c0.131 0 0.243-0.113 0.28-0.245 0.336-3.127 0.411-4.869 0.411-4.869-0.001-0.159-0.123-0.29-0.279-0.304l-0.001-0-1.757-0.284c-0.28-0.056-0.449-0.227-0.505-0.435-0.037-0.133-0.019-0.285-0.019-0.285 0.711-10.4 4.095-13.925 4.095-13.925 0.093-0.093 0.169-0.151 0.169-0.151 0.089-0.063 0.198-0.104 0.315-0.114l0.002-0c0.226 0.004 0.419 0.142 0.504 0.338l0.001 0.004s0.019 0.076 0.037 0.247c0.299 3.277 0.149 8.848-0.037 13.187-0.115 2.895-0.236 5.18-0.383 7.457l0.045-0.883c0 0.115 0.093 0.209 0.205 0.209l2.936 0.056c0.412 0 0.748-0.284 0.861-0.663 0.616-2.653 1.084-12.884 1.121-13.339 0.041-0.362 0.294-0.655 0.63-0.756l0.006-0.002 2.561-0.493c0.388-0.108 0.669-0.456 0.673-0.87v-0.001c0-0.133-0.037-0.265-0.075-0.379-0.131-0.208-1.459-2.709-3.947-5.836z"></path>
</symbol>
<symbol id="icon-banner-uber" viewBox="0 0 32 32">
<path d="M31.615 14.903v-1.344h-0.535c-0.849 0-1.478 0.373-1.856 0.958v-0.904h-1.522v7.299h1.535v-4.146c0-1.134 0.73-1.863 1.737-1.863h0.641zM20.568 16.59c0.277-1.115 1.233-1.862 2.372-1.862s2.101 0.741 2.36 1.862h-4.731zM22.971 13.474c-2.265 0-3.989 1.73-3.989 3.791 0 2.176 1.793 3.81 4.127 3.81 1.416 0 2.573-0.585 3.347-1.562l-1.114-0.77c-0.579 0.729-1.34 1.073-2.24 1.073-1.308 0-2.359-0.885-2.573-2.072h6.316v-0.471c0.008-2.181-1.635-3.797-3.875-3.797zM14.187 19.815c-1.491 0-2.68-1.133-2.68-2.531 0-1.416 1.202-2.531 2.68-2.531 1.46 0 2.661 1.115 2.661 2.531 0.007 1.398-1.195 2.531-2.661 2.531zM10.004 20.918h1.522v-0.916c0.699 0.675 1.692 1.085 2.769 1.085 2.283 0 4.076-1.707 4.076-3.81 0-2.116-1.793-3.821-4.076-3.821-1.082 0-2.057 0.416-2.756 1.085v-3.646h-1.535v10.023zM4.599 19.742c1.478 0 2.618-1.073 2.618-2.664v-6.184h1.598v10.017h-1.584v-0.927c-0.718 0.699-1.706 1.103-2.819 1.103-2.284 0-4.034-1.562-4.034-3.924v-6.269h1.605v6.184c0 1.621 1.126 2.664 2.617 2.664z"></path>
</symbol>
<symbol id="icon-banner-vector" viewBox="0 0 32 32">
<path d="M30.253 11.351c-1.341-2.504-3.94-4.179-6.929-4.179-0.007 0-0.013 0-0.020 0h-22.002c-0.156 0.001-0.3 0.050-0.42 0.132l0.002-0.002c-0.202 0.14-0.333 0.371-0.333 0.633 0 0.209 0.083 0.398 0.219 0.537l-0-0 4.793 4.845c0.423 0.43 1 0.67 1.6 0.67h15.509c0.005-0 0.011-0 0.018-0 1.102 0 1.997 0.89 2.005 1.99v0.001c0 0.008 0 0.017 0 0.027 0 1.099-0.884 1.991-1.98 2.005h-10.694c-0.157 0-0.302 0.048-0.422 0.131l0.003-0.002c-0.203 0.14-0.334 0.372-0.334 0.634 0 0.209 0.083 0.398 0.218 0.536l-0-0 4.796 4.851c0.426 0.429 1.001 0.67 1.6 0.669h4.836c6.292 0 11.050-6.764 7.534-13.48z"></path>
</symbol>
<symbol id="icon-footer-brewhouse" >
<path d="M2.14 18.688c-0.221 0-0.477-0.009-0.768-0.028s-0.653-0.028-1.085-0.028c-0.103-0.127-0.155-0.275-0.155-0.444 0.16 0 0.272-0.026 0.338-0.078 0.066-0.056 0.099-0.15 0.099-0.282v-3.311c0-0.132-0.033-0.223-0.099-0.275-0.066-0.056-0.178-0.085-0.338-0.085 0-0.169 0.052-0.317 0.155-0.444 0.333 0 0.599-0.002 0.796-0.007 0.197-0.009 0.364-0.016 0.5-0.021 0.126-0.004 0.274-0.007 0.422-0.007 0 0 0 0 0 0v0c0.409 0 0.744 0.038 1.007 0.113 0.263 0.070 0.467 0.164 0.613 0.282 0.15 0.113 0.254 0.239 0.31 0.38 0.061 0.136 0.092 0.272 0.092 0.409 0 0.263-0.068 0.488-0.204 0.676s-0.366 0.35-0.69 0.486c0.404 0.085 0.697 0.216 0.881 0.394 0.188 0.178 0.282 0.456 0.282 0.831 0 0 0 0.001 0 0.001 0 0.192-0.034 0.375-0.095 0.545l0.004-0.011c-0.061 0.169-0.171 0.322-0.331 0.458-0.155 0.136-0.373 0.244-0.655 0.324s-0.641 0.12-1.078 0.12zM1.943 15.856c0.343 0 0.585-0.075 0.726-0.225 0.146-0.15 0.218-0.352 0.218-0.606s-0.070-0.456-0.211-0.606c-0.136-0.15-0.355-0.225-0.655-0.225-0.047 0-0.099 0.002-0.155 0.007-0.052 0.005-0.096 0.012-0.134 0.021v1.62c0.033 0.005 0.068 0.009 0.106 0.014h0.106zM2.027 18.174c0.657 0 0.986-0.284 0.986-0.852 0-0.319-0.082-0.559-0.247-0.719-0.16-0.16-0.427-0.239-0.803-0.239-0.038 0-0.080 0.002-0.127 0.007h-0.106v1.782c0.033 0.005 0.075 0.009 0.127 0.014s0.108 0.007 0.169 0.007zM4.773 18.632c-0.052-0.052-0.092-0.108-0.12-0.169s-0.042-0.131-0.042-0.211c0.136 0 0.232-0.028 0.289-0.085 0.061-0.061 0.092-0.162 0.092-0.303v-2.036c0-0.122-0.033-0.209-0.099-0.261-0.066-0.056-0.188-0.085-0.366-0.085v-0.317c0.113-0.066 0.247-0.122 0.402-0.169 0.155-0.052 0.308-0.092 0.458-0.12 0.15-0.033 0.268-0.049 0.352-0.049 0.108 0 0.186 0.038 0.232 0.113 0.052 0.075 0.077 0.237 0.077 0.486 0.052-0.099 0.127-0.195 0.225-0.289s0.213-0.175 0.337-0.236l0.008-0.004c0.127-0.061 0.258-0.092 0.394-0.092 0.221 0 0.378 0.056 0.472 0.169s0.141 0.258 0.141 0.437c0 0.202-0.052 0.366-0.155 0.493s-0.247 0.19-0.43 0.19c-0.16 0-0.286-0.045-0.38-0.134-0.094-0.094-0.141-0.2-0.141-0.317 0-0.075 0.007-0.134 0.021-0.176-0.084 0.021-0.157 0.048-0.226 0.081l0.007-0.003c-0.070 0.028-0.141 0.075-0.211 0.141v2.113c0 0.108 0.016 0.195 0.049 0.261s0.096 0.115 0.19 0.148c0.099 0.028 0.244 0.042 0.437 0.042 0 0.080-0.009 0.15-0.028 0.211s-0.054 0.117-0.106 0.169h-1.881zM9.405 18.695c-0.526 0-0.946-0.167-1.261-0.5-0.31-0.333-0.465-0.798-0.465-1.395 0-0.409 0.077-0.761 0.232-1.057 0.155-0.301 0.364-0.531 0.627-0.69 0.268-0.16 0.571-0.239 0.909-0.239 0.423 0 0.761 0.124 1.014 0.373 0.258 0.244 0.387 0.589 0.387 1.036 0 0.178-0.031 0.336-0.092 0.472-0.056 0.131-0.176 0.197-0.359 0.197h-1.522c0.014 0.371 0.099 0.634 0.254 0.789 0.16 0.155 0.366 0.232 0.62 0.232 0.16 0 0.308-0.023 0.444-0.070 0.145-0.056 0.271-0.127 0.384-0.214l-0.004 0.003c0.042 0.038 0.075 0.096 0.099 0.176 0.028 0.075 0.042 0.139 0.042 0.19 0 0.075-0.054 0.169-0.162 0.282-0.103 0.108-0.254 0.204-0.451 0.289-0.193 0.085-0.425 0.127-0.697 0.127zM8.877 16.356h0.711c0.080 0 0.129-0.031 0.148-0.092 0.023-0.061 0.035-0.136 0.035-0.225 0-0.301-0.038-0.498-0.113-0.592-0.070-0.099-0.155-0.148-0.254-0.148-0.080 0-0.16 0.031-0.24 0.092s-0.146 0.169-0.197 0.324c-0.052 0.15-0.082 0.364-0.092 0.641zM12.221 18.681l-0.958-3.001c-0.042-0.127-0.092-0.218-0.148-0.275-0.052-0.061-0.139-0.092-0.261-0.092 0-0.075 0.012-0.15 0.035-0.225 0.023-0.080 0.061-0.146 0.113-0.197h1.585c0.052 0.052 0.092 0.117 0.12 0.197 0.028 0.075 0.042 0.15 0.042 0.225-0.094 0-0.174 0.026-0.24 0.078-0.061 0.052-0.092 0.132-0.092 0.239 0 0.019 0.002 0.042 0.007 0.070 0.007 0.021 0.015 0.047 0.020 0.073l0.001 0.004 0.183 0.958 0.211 0.993 0.31-0.993 0.204-0.733c0.056-0.221 0.117-0.406 0.183-0.556 0.070-0.155 0.19-0.232 0.359-0.232h0.542l0.366 1.514 0.31 0.972 0.155-0.972 0.232-0.993c0.019-0.070 0.028-0.134 0.028-0.19 0-0.155-0.094-0.232-0.282-0.232 0-0.075 0.009-0.15 0.028-0.225 0.019-0.080 0.054-0.146 0.106-0.197h1.345c0.056 0.052 0.094 0.117 0.113 0.197 0.018 0.068 0.028 0.145 0.028 0.225v0c-0.131 0-0.235 0.023-0.31 0.070-0.070 0.042-0.124 0.127-0.162 0.254l-0.627 2.275c-0.047 0.183-0.096 0.331-0.148 0.444s-0.12 0.195-0.204 0.247c-0.080 0.052-0.197 0.078-0.352 0.078h-0.556l-0.662-2.113-0.38 1.36c-0.061 0.23-0.124 0.406-0.19 0.528-0.066 0.117-0.178 0.19-0.338 0.218v0.007h-0.719z"></path>
<path d="M19.97 18.674c-0.23 0-0.406-0.035-0.528-0.106s-0.183-0.183-0.183-0.338v-2.268c0-0.15-0.042-0.265-0.127-0.345-0.085-0.085-0.195-0.127-0.331-0.127-0.089 0-0.186 0.031-0.289 0.092-0.099 0.056-0.174 0.134-0.225 0.232v2.057c0 0.136 0.028 0.235 0.085 0.296 0.061 0.056 0.162 0.085 0.303 0.085 0 0.146-0.054 0.272-0.162 0.38h-1.557c-0.108-0.108-0.162-0.235-0.162-0.38 0.141 0 0.239-0.028 0.296-0.085 0.061-0.061 0.092-0.16 0.092-0.296v-3.818c0-0.108-0.031-0.193-0.092-0.254s-0.188-0.092-0.38-0.092v-0.289c0.117-0.061 0.254-0.117 0.409-0.169 0.16-0.052 0.317-0.092 0.472-0.12 0.16-0.033 0.291-0.049 0.395-0.049 0.108 0 0.186 0.026 0.232 0.078 0.047 0.047 0.070 0.129 0.070 0.247v1.388l-0.014 0.564c0.122-0.155 0.279-0.286 0.472-0.394s0.411-0.162 0.655-0.162c0.667 0 1 0.348 1 1.043v1.972c0 0.239 0.113 0.38 0.338 0.423l0.007 0.204c-0.169 0.155-0.427 0.232-0.775 0.232zM22.2 18.681c-0.352 0-0.639-0.096-0.859-0.289-0.216-0.197-0.324-0.448-0.324-0.754s0.099-0.552 0.296-0.74c0.202-0.188 0.512-0.282 0.93-0.282 0.136 0 0.279 0.014 0.43 0.042 0.15 0.023 0.272 0.061 0.366 0.113v-0.937c0-0.197-0.052-0.333-0.155-0.409-0.099-0.080-0.221-0.12-0.366-0.12-0.155 0-0.282 0.038-0.38 0.113 0.094 0.033 0.162 0.085 0.204 0.155 0.042 0.066 0.063 0.139 0.063 0.218 0 0.155-0.056 0.279-0.169 0.373-0.108 0.089-0.242 0.134-0.402 0.134-0.178 0-0.322-0.052-0.43-0.155-0.108-0.108-0.162-0.242-0.162-0.402s0.054-0.31 0.162-0.451c0.108-0.146 0.275-0.265 0.5-0.359 0.23-0.094 0.526-0.141 0.888-0.141 0.944 0 1.416 0.373 1.416 1.12v1.867c0 0.225 0.108 0.362 0.324 0.409v0.225c-0.061 0.089-0.164 0.157-0.31 0.204-0.146 0.042-0.286 0.063-0.423 0.063-0.319 0-0.545-0.11-0.676-0.331-0.094 0.085-0.218 0.162-0.373 0.232-0.155 0.066-0.338 0.099-0.549 0.099zM22.658 18.11c0.066 0 0.134-0.009 0.204-0.028 0.070-0.023 0.129-0.052 0.176-0.085v-0.683c-0.047-0.033-0.108-0.061-0.183-0.085-0.070-0.023-0.141-0.035-0.211-0.035-0.122 0-0.228 0.040-0.317 0.12-0.089 0.075-0.134 0.195-0.134 0.359 0 0.127 0.042 0.232 0.127 0.317 0.085 0.080 0.197 0.12 0.338 0.12zM26.112 18.681c-0.329 0-0.585-0.101-0.768-0.303s-0.275-0.474-0.275-0.817v-1.937c0-0.080-0.031-0.136-0.092-0.169s-0.146-0.049-0.254-0.049v-0.31c0.061-0.052 0.188-0.106 0.38-0.162 0.197-0.061 0.418-0.092 0.662-0.092 0.183 0 0.303 0.021 0.359 0.063 0.061 0.042 0.092 0.146 0.092 0.31v2.367c0 0.141 0.023 0.249 0.070 0.324s0.129 0.113 0.247 0.113c0.099 0 0.193-0.031 0.282-0.092 0.094-0.061 0.171-0.131 0.232-0.211v-2.092c0-0.080-0.035-0.136-0.106-0.169s-0.167-0.049-0.289-0.049v-0.31c0.066-0.052 0.195-0.106 0.387-0.162 0.193-0.061 0.42-0.092 0.683-0.092 0.183 0 0.308 0.021 0.373 0.063s0.099 0.146 0.099 0.31v2.592c0 0.113 0.028 0.207 0.085 0.282 0.061 0.075 0.145 0.117 0.253 0.127v0.197c-0.075 0.089-0.195 0.157-0.359 0.204-0.16 0.042-0.315 0.063-0.465 0.063-0.155 0-0.291-0.040-0.409-0.12-0.113-0.085-0.188-0.204-0.225-0.359-0.23 0.319-0.552 0.479-0.965 0.479zM30.311 18.702c-0.169 0-0.34-0.019-0.514-0.056-0.169-0.038-0.326-0.092-0.472-0.162-0.141-0.070-0.256-0.157-0.345-0.261-0.089-0.108-0.134-0.23-0.134-0.366 0-0.164 0.047-0.296 0.141-0.394 0.094-0.103 0.214-0.155 0.359-0.155 0.131 0 0.242 0.042 0.331 0.127 0.094 0.085 0.141 0.195 0.141 0.331 0 0.061-0.010 0.115-0.028 0.162-0.019 0.042-0.047 0.089-0.084 0.141 0.042 0.042 0.117 0.073 0.225 0.092s0.214 0.028 0.317 0.028c0.164 0 0.291-0.031 0.38-0.092s0.134-0.136 0.134-0.225c0-0.141-0.075-0.261-0.225-0.359-0.15-0.103-0.322-0.207-0.514-0.31-0.249-0.133-0.419-0.231-0.587-0.333l0.066 0.037c-0.169-0.108-0.312-0.242-0.43-0.402-0.113-0.16-0.169-0.362-0.169-0.606 0-0.31 0.129-0.566 0.387-0.768s0.625-0.303 1.099-0.303c0.329 0 0.592 0.042 0.789 0.127 0.197 0.080 0.34 0.183 0.43 0.31 0.089 0.122 0.134 0.251 0.134 0.387 0 0.146-0.047 0.263-0.141 0.352-0.089 0.085-0.2 0.127-0.331 0.127-0.117 0-0.221-0.035-0.31-0.106-0.089-0.075-0.134-0.171-0.134-0.289 0-0.056 0.009-0.117 0.028-0.183s0.045-0.12 0.078-0.162c-0.052-0.042-0.113-0.070-0.183-0.085-0.066-0.019-0.146-0.028-0.24-0.028-0.155 0-0.275 0.038-0.359 0.113-0.080 0.070-0.12 0.157-0.12 0.261 0 0.16 0.075 0.291 0.225 0.394 0.155 0.103 0.326 0.204 0.514 0.303 0.207 0.107 0.373 0.203 0.535 0.305l-0.027-0.016c0.169 0.103 0.31 0.232 0.423 0.387s0.169 0.355 0.169 0.599c0 0.263-0.075 0.474-0.225 0.634-0.15 0.155-0.345 0.268-0.585 0.338-0.235 0.070-0.484 0.106-0.747 0.106z"></path>
</symbol>
<symbol id="icon-footer-facebook" viewBox="0 0 32 32">
<path d="M30.814 16c-0.002-8.18-6.634-14.811-14.814-14.811-8.182 0-14.814 6.633-14.814 14.814 0 6.911 4.732 12.716 11.133 14.353l0.103 0.022v-9.851h-3.056v-4.528h3.056v-1.95c0-5.044 2.281-7.38 7.232-7.38 0.939 0 2.558 0.183 3.221 0.368v4.103c-0.35-0.036-0.958-0.053-1.712-0.053-2.43 0-3.369 0.919-3.369 3.312v1.6h4.841l-0.832 4.528h-4.009v10.18c7.374-0.925 13.022-7.157 13.022-14.707 0-0 0-0 0-0.001v0z"></path>
</symbol>
<symbol id="icon-footer-instagram" viewBox="0 0 32 32">
<path d="M15.998 3.684c4.012 0 4.488 0.016 6.066 0.088 1.466 0.064 2.26 0.31 2.786 0.516 0.7 0.27 1.204 0.6 1.726 1.12 0.528 0.528 0.85 1.028 1.12 1.726 0.206 0.528 0.452 1.326 0.516 2.786 0.072 1.584 0.088 2.060 0.088 6.068 0 4.012-0.016 4.488-0.086 6.066-0.066 1.468-0.312 2.26-0.518 2.788-0.27 0.698-0.598 1.202-1.12 1.724-0.472 0.486-1.049 0.868-1.694 1.11l-0.032 0.010c-0.528 0.206-1.326 0.452-2.786 0.518-1.584 0.070-2.060 0.088-6.066 0.088-4.014 0-4.49-0.020-6.068-0.088-1.466-0.066-2.26-0.312-2.786-0.518-0.7-0.268-1.204-0.598-1.726-1.12-0.486-0.472-0.868-1.048-1.109-1.692l-0.011-0.032c-0.206-0.528-0.452-1.326-0.516-2.788-0.072-1.584-0.088-2.060-0.088-6.066 0-4.014 0.016-4.49 0.088-6.068 0.064-1.466 0.31-2.26 0.516-2.786 0.27-0.7 0.598-1.204 1.12-1.726 0.472-0.486 1.049-0.868 1.694-1.11l0.032-0.010c0.528-0.206 1.326-0.452 2.786-0.516 1.58-0.072 2.054-0.088 6.068-0.088zM15.998 0.978c-4.080 0-4.59 0.020-6.19 0.088-1.596 0.070-2.694 0.33-3.644 0.7-1.043 0.398-1.932 0.989-2.663 1.735l-0.001 0.001c-0.748 0.731-1.339 1.617-1.723 2.608l-0.017 0.050c-0.366 0.956-0.626 2.048-0.696 3.644-0.070 1.606-0.088 2.116-0.088 6.196 0 4.076 0.020 4.588 0.088 6.19 0.070 1.594 0.33 2.692 0.7 3.642 0.386 0.992 0.896 1.832 1.736 2.664 0.832 0.834 1.672 1.35 2.658 1.732 0.956 0.37 2.048 0.628 3.644 0.698 1.6 0.070 2.112 0.088 6.19 0.088 4.076 0 4.588-0.018 6.19-0.088 1.596-0.070 2.692-0.328 3.644-0.7 1.040-0.397 1.927-0.986 2.657-1.729l0.001-0.001c0.832-0.832 1.348-1.672 1.73-2.658 0.37-0.956 0.628-2.048 0.698-3.644 0.070-1.6 0.088-2.112 0.088-6.19 0-4.076-0.018-4.588-0.088-6.19-0.070-1.596-0.328-2.692-0.7-3.642-0.382-1.048-0.969-1.941-1.716-2.668l-0.002-0.002c-0.731-0.745-1.618-1.334-2.608-1.715l-0.050-0.017c-0.956-0.37-2.046-0.628-3.642-0.698-1.608-0.076-2.12-0.092-6.196-0.092z"></path>
<path d="M15.998 8.284c-4.169 0.12-7.503 3.528-7.503 7.715s3.334 7.595 7.492 7.715l0.011 0c4.169-0.12 7.503-3.528 7.503-7.715s-3.334-7.595-7.492-7.715l-0.011-0zM15.998 21.004c-2.765 0-5.006-2.241-5.006-5.006s2.241-5.006 5.006-5.006v0c2.765 0 5.006 2.241 5.006 5.006s-2.241 5.006-5.006 5.006v0zM25.82 7.98c-0.001 0.995-0.807 1.801-1.802 1.801s-1.802-0.807-1.802-1.802c0-0 0-0.001 0-0.001v0c0-0.995 0.807-1.802 1.802-1.802s1.802 0.807 1.802 1.802v0z"></path>
</symbol>
<symbol id="icon-footer-mail" viewBox="0 0 32 32">
<path d="M10.614 5c-8.968 0.406-9.58 1.096-9.58 10.446 0.020 8.18 0.708 11.018 2.72 11.018 0.114 0 0.88 0.23 1.706 0.498 4.12 1.38 23.892-0.096 24.716-1.86 0.652-1.38 0.996-12.644 0.5-15.788-0.52-3.18-1.802-4.176-5.194-4.1-2.912 0.076-2.472 1.304 0.48 1.304 2.202 0 2.222 0.056 2.26 9.062 0.040 8.622 0.058 8.412-1.264 8.738-2.414 0.594-16.344 0.728-22.322 0.824-0.556-1.054-0.672-0.71-1.226-9.064-0.52-8.008-0.5-8.048 5.114-8.794 3.928-0.518 4.638-0.576 8.91-0.69 3.966-0.116 4.6-0.192 4.6-0.48-0.020-0.88-5.25-1.398-11.42-1.11zM25.654 8.24c-0.65 0.518-2.146 2.108-7.050 7.34-1.63 1.742-1.572 1.742-3.24 0.574-2.546-1.764-4.75-3.104-6.474-4.656-2.454-2.204-4.006-3.066-4.542-2.53-0.326 0.326 2.452 2.606 6.15 6.342l1.61 1.628c-0.058 0.060-3.354 2.606-4.828 4.6-0.996 1.34 0.058 1.59 0.94 0.958 0.92-0.69 2.45-2.396 4.712-4.734l0.804 0.326c1.284 0.518 3.756 0.172 4.62-0.632 0.612-0.574 1.168-0.766 1.168-0.42 0 0.248 4.004 4.194 5.42 5.42 0.806 0.69 3.182 1.458 1.17-0.88-1.474-1.686-4.388-4.618-5.44-5.346-0.25-0.172-0.422-0.346-0.384-0.384 2.78-1.8 5.652-4.848 6.648-6.61 1.246-2.126-0.958-1.246-1.284-0.996z"></path>
</symbol>
<symbol id="icon-footer-phone" viewBox="0 0 32 32">
<path d="M18.678 14.74c0.458 0.948 0.726 1.058 1.548 0.694 2.146-0.962-1.028-5.54-3.38-4.88-0.742 0.206-2.038 0.87-0.46 1.644 0.934 0.44 1.692 1.294 2.292 2.54zM17.1 21.83c-3.586-1.768-4.264-0.538-4.264 0.174 0 0.614-0.538 0.868-1.896-0.806-2.384-2.938-2.652-3.68-1.404-3.948 2.414-0.52 2.51-2.304 0.33-6.19-1.61-2.874-3.426-4.074-5.29-3.504-1.514 0.458-3.236 2.984-3.63 5.336-0.428 2.56 0.552 3.996 0.98 5.020 1.514 3.586 6.756 10.076 9.124 11.276 5.274 2.684 11.038 1.894 10.706-1.484-0.22-2.306-1.594-4.36-4.658-5.874zM16.656 28.698c-6.726-0.11-13.894-9.71-13.894-14.89 0-2.89 2.068-6.52 2.858-5.084 0.014 0.016 3.552 5.906 3.82 6.948 0.080 0.316 0 0.394-0.68 0.616-2.052 0.68-2.32 1.736-1.088 4.262 2.036 4.2 6.3 5.654 6.584 2.274 0.158-1.784 1.296-1.326 3.98 2.196 2.288 3.030 1.61 3.726-1.58 3.68z"></path>
<path d="M16.008 6.53c-1.53 0.758-1.468 1.12 0.222 1.42 3.98 0.694 7.326 4.69 7.326 8.748 0 1.816 1.47 2.51 2.432-0.632 1.326-4.342-6.11-11.464-9.98-9.536z"></path>
<path d="M17.004 1.95c-1.848 0.662-1.69 1.406 0.348 1.548 6.726 0.472 12.126 7.816 10.816 14.7-0.3 1.61 1.104 2.32 2.43-0.49 3.144-6.648-6.804-18.16-13.594-15.76z"></path>
</symbol>
<symbol id="icon-footer-twitterX" viewBox="0 0 32 32">
<path d="M24.596 2.667h4.54l-9.973 11.316 11.652 15.351h-9.141l-7.159-9.328-8.196 9.328h-4.54l10.564-12.103-11.156-14.564h9.369l6.468 8.521 7.573-8.521zM23.004 26.676h2.519l-16.292-21.449h-2.708l16.48 21.451z"></path>
</symbol>
<symbol id="icon-hero-close-btn" viewBox="0 0 32 32">
<path d="M30.56 28.44c0.294 0.275 0.477 0.665 0.477 1.097 0 0.828-0.672 1.5-1.5 1.5-0.433 0-0.823-0.183-1.097-0.477l-0.001-0.001-12.44-12.44-12.44 12.44c-0.275 0.294-0.665 0.477-1.097 0.477-0.828 0-1.5-0.672-1.5-1.5 0-0.433 0.183-0.823 0.477-1.097l0.001-0.001 12.44-12.44-12.44-12.44c-0.249-0.267-0.403-0.627-0.403-1.023 0-0.828 0.672-1.5 1.5-1.5 0.396 0 0.755 0.153 1.023 0.403l-0.001-0.001 12.44 12.44 12.44-12.44c0.267-0.249 0.627-0.403 1.023-0.403 0.828 0 1.5 0.672 1.5 1.5 0 0.396-0.153 0.755-0.403 1.023l0.001-0.001-12.44 12.44 12.44 12.44z"></path>
</symbol>
<symbol id="icon-hero-logo" viewBox="0 0 32 32">
<path d="M8.004 0c-0.478 0-0.887 0.293-1.058 0.71l-0.003 0.008-1.92 4.8h21.962l-1.92-4.8c-0.174-0.424-0.583-0.717-1.061-0.718h-16zM6.875 31.031l-1.723-11.196h21.705l-1.723 11.196c-0.087 0.552-0.559 0.969-1.129 0.969-0 0-0.001 0-0.001 0h-16c-0.569-0-1.041-0.417-1.128-0.962l-0.001-0.006zM4.841 8.373h22.329c1.371 0 2.48 0.964 2.48 2.154v4.3c0 1.189-1.11 2.149-2.48 2.149h-22.331c-1.371 0-2.48-0.96-2.48-2.149v-4.302c0-1.189 1.113-2.154 2.482-2.154z"></path>
</symbol>
<symbol id="icon-home-heart" viewBox="0 0 32 32">
<path d="M4.989 22.144c-6.689-8.645-5.689-16.891 2.312-18.913 2.444-0.621 5.577 0.089 7.312 1.645l0.888 0.8 1.312-0.779c7.579-4.577 16.912 3.867 12.956 11.712-3.6 7.133-15.312 14.801-17.712 11.601-0.712-0.955-0.356-1.089 1.533-0.621 1.8 0.444 10.112-6.935 12.179-10.824 2.489-4.667 2-7.2-1.979-10.4-1.644-1.312-4.2-0.733-6.2 1.444-1.577 1.689-3.223 1.823-4.579-0.312-3.844-6-10.156-1.244-8.356 6.291 0.756 3.111 1.579 4.667 4.712 8.8 2.133 2.8 2.2 2.933 1.489 3.312-1.356 0.733-3.467-0.623-5.867-3.756z"></path>
<path d="M21.503 9.299c-1.089-0.2-0.179-1.423 0.844-1.067 0.844 0.311 2.023 0.821 2.489 2.133 0.511 1.377-0.511 2.711-1.089 2.556-0.511-0.133-0.667-0.712-0.6-1.889 0.067-1.179-0.556-1.533-1.644-1.733zM23.992 16.343c-1.445 0.333-2.533-0.755-1.889-1.488 0.488-0.533 2.333-0.579 2.867-0.045 0.444 0.467 0.156 1.267-0.977 1.533z"></path>
</symbol>
<symbol id="icon-home-home" viewBox="0 0 32 32">
<path d="M26.909 13.908c-3.623-3.569-6.61-6.191-8.57-7.379-1.648-1.001-2.96-1.149-4.529 0.067-1.662 1.297-3.947 3.636-6.69 5.973-3.446 2.948-2.581 5.286-0.216 5.516l1.081 0.109c0.041 0.838 0.216 5.717 0.325 6.433 0.040 0.298 0 0.635-0.109 0.744-0.797 0.797 1.839 1.068 6.894 0.717 9.623-0.676 10.394-0.798 9.718-1.554-0.242-0.271-0.027-6.933-0.027-6.933l0.608-0.204c2.23-0.717 2.853-2.176 1.515-3.487zM14.73 24.572c-0.189-1.488-0.431-3.514-0.040-4.677 0.594-1.217 1.581-1.595 2.513-0.987 0.838 0.555 1.164 1.514 1.176 3.528l0.014 1.825c0-0.014-2.893 0.216-3.663 0.31zM22.989 24.113l-3.109 0.081s-0.027-0.851-0.108-2.027c-0.189-3.069-1.068-4.164-3.352-4.15-2.825 0.014-3.636 1.527-3.068 5.758l0.121 0.906h-2.893l-0.527-6.231c-0.122-1.419 0.257-1.905 3.919-5.163 2.352-2.082 1.866-2.001 3.419-0.595 1.108 1.001 5.583 4.866 5.583 4.866v6.555h0.014zM24.989 16.287c-0.703 0.702-1.284 0.391-4.082-2.245-5.217-4.893-4.473-4.866-9.218-0.297-1.568 1.5-2.486 2.379-3.082 2.838-1.243 0.945-2.095-0.5-1.419-1.527 0.5-0.771 1.716-2.001 4.095-4.433 4.339-4.447 4.406-4.501 5.421-3.73 0.27 0.203 1.284 1.122 2.23 2.027 0.014 0.014 5.69 5.245 5.799 5.339 0.824 0.703 0.905 1.379 0.256 2.028z"></path>
<path d="M14.879 13.517c-1.108 0.487-1.379 2.176-0.473 3.027s3.122 0.608 3.744-0.405c1.176-1.92-0.96-3.623-3.271-2.622zM16.893 14.22c0.73 0.514 0.175 1.986-0.756 1.986-0.812 0-0.892-1.445-0.122-2.040 0.365-0.284 0.405-0.271 0.879 0.054z"></path>
</symbol>
<symbol id="icon-home-smile" viewBox="0 0 32 32">
<path d="M25.351 4.448c-4.808-2.443-7.784-0.324-4.216 0.515 9.043 2.137 10.284 13.299 1.603 19.537-10.303 7.384-23.24-2.613-16.676-12.879 2.787-4.349 5.933-6.696 9.081-6.792 2.767-0.076 1.889-1.469-0.933-1.469-6.967 0-14.463 8.872-13.072 15.473 1.127 5.4 5.552 8.911 12.325 9.749 15.779 1.965 25.28-17.343 11.887-24.135z"></path>
<path d="M13.675 19.253c-0.84-1.336-0.916-1.393-1.756-1.336-2.193 0.173-0.744 3.301 2.023 4.332 2.289 0.859 5.839 0.4 7.040-0.879 1.813-1.927 1.373-4.979-0.533-3.72-0.115 0.076-0.383 0.533-0.592 0.992-1.412 3.129-4.445 3.416-6.181 0.611zM21.973 13.148c-0.687-1.64-1.755-2.041-2.519-0.935-0.915 1.355-0.4 2.613 1.069 2.613s1.927-0.515 1.449-1.679zM14.056 13.415c0-1.335-0.859-1.947-2.041-1.449-1.068 0.439-1.565 2.461-0.801 3.167 1.201 1.088 2.843 0.076 2.843-1.717z"></path>
</symbol>
<symbol id="icon-home-sweat-waterdrop" viewBox="0 0 32 32">
<path d="M10.301 6.543c-3.178 0.99-4.697 4.866-3.735 9.493 0.306 1.464 1.519 1.506 2.996 0.586 1.561-0.989 3.402-3.067 4.753-5.729 1.45-2.886-0.822-5.353-4.015-4.35zM11.793 7.825c1.576 0.934 1.171 2.537-1.464 5.617l-1.532 1.799-0.042-1.353c-0.126-4.279 1.282-7.109 3.037-6.064zM19.348 9.136c-2.16 1.004-5.464 5.297-5.464 7.11 0 1.185 0.85 1.143 5.033-0.251 3.303-1.102 4.892-1.729 5.603-2.607 2.356-2.886-1.631-5.897-5.171-4.252zM22.61 10.447c0.739 1.129-1.073 3.457-3.234 4.168-1.771 0.586-2.984 0.906-2.858 0.724 0.070-0.083 0.501-0.655 0.961-1.268 2.175-2.886 4.531-4.544 5.13-3.624zM14.358 19.088c-3.054 0.53-4.154 2.621-0.489 3.876 0.641 0.223 2.022 0.864 3.067 1.422 3.053 1.658 4.572 1.687 5.855 0.126 0.989-1.2 0.738-3.122-0.209-4.545-2.327-3.499-6.579-1.17-8.225-0.879zM21.411 20.525c0.795 0.404 0.767 1.325-0.069 2.258-1.13 1.255-2.077 1.185-4.768-0.363l-1.951-1.115c0.306-0.055 1.408-0.237 3.247-0.669 1.687-0.418 2.871-0.446 3.54-0.111z"></path>
</symbol>
<symbol id="icon-licenses-content" viewBox="0 0 32 32">
<path d="M9.333 10.667c0-0.736 0.597-1.333 1.333-1.333v0h10.667c0.736 0 1.333 0.597 1.333 1.333s-0.597 1.333-1.333 1.333v0h-10.667c-0.736 0-1.333-0.597-1.333-1.333v0zM10.667 17.333h10.667c0.736 0 1.333-0.597 1.333-1.333s-0.597-1.333-1.333-1.333v0h-10.667c-0.736 0-1.333 0.597-1.333 1.333s0.597 1.333 1.333 1.333v0zM16 20h-5.333c-0.736 0-1.333 0.597-1.333 1.333s0.597 1.333 1.333 1.333v0h5.333c0.736 0 1.333-0.597 1.333-1.333s-0.597-1.333-1.333-1.333v0zM32 2.667v18.116c0 0.002 0 0.005 0 0.007 0 0.734-0.299 1.398-0.782 1.877l-8.551 8.551c-0.479 0.483-1.143 0.782-1.877 0.782-0.003 0-0.005 0-0.008 0h-18.115c-1.473 0-2.667-1.194-2.667-2.667v0-26.667c0-1.473 1.194-2.667 2.667-2.667v0h26.667c1.473 0 2.667 1.194 2.667 2.667v0zM2.667 29.333h17.333v-8c0-0.736 0.597-1.333 1.333-1.333v0h8v-17.333h-26.667v26.667zM22.667 22.667v4.782l4.782-4.782h-4.782z"></path>
</symbol>
<symbol id="icon-licenses-fonts" viewBox="0 0 32 32">
<path d="M31 2.5v6c0 0.828-0.672 1.5-1.5 1.5s-1.5-0.672-1.5-1.5v0-4.5h-10.5v24h4.5c0.828 0 1.5 0.672 1.5 1.5s-0.672 1.5-1.5 1.5v0h-12c-0.828 0-1.5-0.672-1.5-1.5s0.672-1.5 1.5-1.5v0h4.5v-24h-10.5v4.5c0 0.828-0.672 1.5-1.5 1.5s-1.5-0.672-1.5-1.5v0-6c0-0.828 0.672-1.5 1.5-1.5v0h27c0.828 0 1.5 0.672 1.5 1.5v0z"></path>
</symbol>
<symbol id="icon-licenses-icons" viewBox="0 0 32 32">
<path d="M30.033 22c0.092 0.156 0.146 0.344 0.146 0.545 0 0.401-0.216 0.751-0.538 0.94l-0.005 0.003-13.091 7.636c-0.157 0.093-0.347 0.149-0.55 0.149s-0.392-0.055-0.555-0.151l0.005 0.003-13.091-7.636c-0.326-0.193-0.541-0.543-0.541-0.943 0-0.603 0.489-1.091 1.091-1.091 0.203 0 0.392 0.055 0.555 0.151l-0.005-0.003 12.545 7.316 12.545-7.316c0.156-0.092 0.344-0.146 0.545-0.146 0.401 0 0.751 0.216 0.94 0.538l0.003 0.005zM28.545 15.057l-12.545 7.316-12.545-7.316c-0.143-0.073-0.311-0.116-0.49-0.116-0.603 0-1.091 0.488-1.091 1.091 0 0.379 0.193 0.712 0.486 0.908l0.004 0.003 13.091 7.636c0.158 0.093 0.347 0.149 0.55 0.149s0.392-0.055 0.555-0.151l-0.005 0.003 13.091-7.636c0.326-0.193 0.541-0.543 0.541-0.943 0-0.603-0.489-1.091-1.091-1.091-0.203 0-0.392 0.055-0.555 0.151l0.005-0.003zM1.818 9.455c0.001-0.401 0.218-0.751 0.54-0.94l0.005-0.003 13.091-7.636c0.158-0.093 0.347-0.149 0.55-0.149s0.392 0.055 0.555 0.151l-0.005-0.003 13.091 7.636c0.326 0.193 0.542 0.542 0.542 0.943s-0.215 0.75-0.537 0.94l-0.005 0.003-13.091 7.636c-0.157 0.093-0.347 0.149-0.55 0.149s-0.392-0.055-0.555-0.151l0.005 0.003-13.091-7.636c-0.328-0.192-0.545-0.542-0.545-0.942v-0zM5.075 9.455l10.925 6.374 10.925-6.374-10.925-6.374-10.925 6.374z"></path>
</symbol>
<symbol id="icon-licenses-illustrations" viewBox="0 0 32 32">
<path d="M30.857 13.24c0-0.001 0-0.003 0-0.005 0-0.63-0.256-1.199-0.67-1.61l-9.81-9.813c-0.414-0.414-0.985-0.67-1.617-0.67s-1.203 0.256-1.617 0.67l-4.061 4.061-8.286 3.11c-0.759 0.289-1.317 0.948-1.458 1.751l-0.002 0.014-3.32 19.921c-0.010 0.057-0.016 0.123-0.016 0.19 0 0.631 0.512 1.143 1.143 1.143 0.067 0 0.133-0.006 0.196-0.017l-0.007 0.001 19.919-3.322c0.816-0.139 1.475-0.694 1.759-1.435l0.005-0.016 3.11-8.286 4.061-4.069c0.414-0.411 0.67-0.981 0.67-1.611 0-0.002 0-0.004 0-0.006v0zM20.876 26.408l-16.402 2.735 6.767-6.767c0.55 0.303 1.205 0.481 1.902 0.481 2.209 0 4-1.791 4-4s-1.791-4-4-4c-2.209 0-4 1.791-4 4 0 0.697 0.178 1.352 0.492 1.923l-0.010-0.021-6.767 6.77 2.732-16.407 7.838-2.938 10.386 10.386-2.938 7.838zM11.429 18.856c0-0.947 0.768-1.714 1.714-1.714s1.714 0.767 1.714 1.714v0c0 0.947-0.768 1.714-1.714 1.714s-1.714-0.767-1.714-1.714v0zM25.143 16.667l-9.813-9.81 3.429-3.429 9.813 9.812-3.429 3.429z"></path>
</symbol>
<symbol id="icon-licenses-images" viewBox="0 0 32 32">
<path d="M29.2 2.8h-26.4c-1.325 0-2.4 1.075-2.4 2.4v0 21.6c0 1.325 1.075 2.4 2.4 2.4v0h26.4c1.325 0 2.4-1.075 2.4-2.4v0-21.6c0-1.325-1.075-2.4-2.4-2.4v0zM29.2 5.2v15.413l-3.91-3.909c-0.434-0.435-1.035-0.703-1.698-0.703s-1.263 0.269-1.698 0.703l-3 3-6.6-6.6c-0.434-0.434-1.034-0.702-1.696-0.702s-1.262 0.268-1.696 0.702l-6.102 6.101v-14.005h26.4zM2.8 22.6l7.8-7.8 12 12h-19.8v-4.2zM29.2 26.8h-3.205l-5.4-5.4 3-3 5.605 5.606v2.794zM18.4 11.8c0-0.994 0.806-1.8 1.8-1.8s1.8 0.806 1.8 1.8v0c0 0.994-0.806 1.8-1.8 1.8s-1.8-0.806-1.8-1.8v0z"></path>
</symbol>
<symbol id="icon-licenses-mockups" viewBox="0 0 32 32">
<path d="M29.047 7.567l-12-6.566c-0.302-0.17-0.663-0.27-1.047-0.27s-0.745 0.1-1.058 0.276l0.011-0.006-12 6.567c-0.68 0.377-1.133 1.091-1.135 1.91v13.042c0.002 0.819 0.455 1.532 1.123 1.904l0.011 0.006 12 6.569c0.302 0.17 0.663 0.27 1.047 0.27s0.745-0.1 1.058-0.276l-0.011 0.006 12-6.569c0.68-0.377 1.133-1.091 1.135-1.91v-13.040c-0-0.82-0.454-1.535-1.123-1.907l-0.011-0.006zM16 2.909l10.956 6-10.956 6-10.956-6 10.956-6zM4 10.819l10.909 5.969v11.699l-10.909-5.967v-11.702zM17.091 28.487v-11.695l10.909-5.974v11.696l-10.909 5.972z"></path>
</symbol>
<symbol id="icon-testimonials-vector" viewBox="0 0 32 32">
<path d="M29.912 1.842v0.16c0 0.322-0.134 0.804-0.4 1.444-0.27 0.59-0.59 1.23-0.964 1.926-0.32 0.64-0.668 1.256-1.042 1.844-0.32 0.588-0.536 0.99-0.642 1.204l-0.802 1.284c-0.268 0.374-0.4 0.668-0.4 0.88 0 0.43 0.106 0.83 0.32 1.204 0.212 0.376 0.32 0.856 0.32 1.444-0.16 0.054-0.32 0.32-0.48 0.802-0.108 0.428-0.16 0.776-0.16 1.044 0 0.694 0.16 1.256 0.48 1.684 0.374 0.374 0.614 0.8 0.72 1.282 0.108 0.428 0.216 0.99 0.322 1.686 0.16 0.694 0.294 1.416 0.4 2.164 0.16 0.75 0.296 1.472 0.402 2.166 0.108 0.696 0.16 1.284 0.16 1.766 0 0.588-0.16 1.148-0.48 1.684-0.268 0.534-0.642 1.016-1.124 1.444-0.407 0.409-0.853 0.778-1.332 1.102l-0.032 0.020c-0.48 0.268-0.908 0.428-1.282 0.48h0.080c0 0.054-0.348 0.216-1.042 0.482-0.642 0.214-1.258 0.32-1.846 0.32-0.16 0-0.4-0.052-0.72-0.16h0.080c0-0.052-0.108-0.16-0.322-0.32-0.223-0.221-0.458-0.43-0.704-0.626l-0.018-0.014c-0.21-0.265-0.419-0.501-0.641-0.725l0.001 0.001c-0.216-0.214-0.322-0.374-0.322-0.48v-0.56c0.052-0.216 0.080-0.402 0.080-0.564 0 0.054-0.188-0.4-0.56-1.362-0.322-0.964-0.536-2.194-0.644-3.69 0.108 0 0.214-0.080 0.32-0.24 0.16-0.16 0.24-0.296 0.24-0.402 0-0.32-0.106-0.64-0.32-0.962-0.16-0.376-0.24-0.856-0.24-1.444 0-0.75 0.16-1.658 0.48-2.728 0.322-1.122 0.564-2.22 0.724-3.288 0.054-0.16 0.214-0.454 0.48-0.882 0.268-0.48 0.562-0.99 0.884-1.524 0.32-0.536 0.614-1.016 0.88-1.444 0.268-0.48 0.43-0.802 0.482-0.962 0.16-0.856 0.348-1.472 0.562-1.846 0.268-0.374 0.534-0.668 0.802-0.88 0.281-0.223 0.595-0.436 0.925-0.625l0.037-0.019c0.376-0.266 0.802-0.72 1.284-1.362v-0.080c-0.006-0.146-0.035-0.283-0.083-0.411l0.003 0.009v-0.48c0-0.16 0.026-0.268 0.080-0.322 0.106-0.054 0.268-0.188 0.48-0.4 0.484-0.594 1.010-1.12 1.584-1.588l0.020-0.016c0.322-0.216 0.616-0.322 0.884-0.322 0.214 0 0.56 0.134 1.042 0.4 0.536 0.268 0.882 0.536 1.044 0.802zM15.152 1.842v0.16c0 0.322-0.132 0.804-0.4 1.444-0.384 0.841-0.705 1.473-1.046 2.093l0.084-0.167c-0.32 0.64-0.67 1.256-1.044 1.844-0.32 0.588-0.534 0.99-0.64 1.204l-0.804 1.284c-0.266 0.374-0.4 0.668-0.4 0.88 0 0.43 0.106 0.83 0.32 1.204 0.214 0.376 0.32 0.856 0.32 1.444-0.16 0.054-0.32 0.32-0.48 0.802-0.106 0.428-0.16 0.776-0.16 1.044 0 0.694 0.16 1.256 0.48 1.684 0.376 0.374 0.616 0.8 0.722 1.282 0.108 0.428 0.214 0.99 0.32 1.686 0.162 0.694 0.296 1.416 0.402 2.164 0.16 0.75 0.294 1.472 0.4 2.166 0.108 0.696 0.162 1.284 0.162 1.766 0 0.588-0.16 1.148-0.48 1.684-0.268 0.534-0.642 1.016-1.124 1.444-0.407 0.409-0.853 0.778-1.332 1.102l-0.032 0.020c-0.48 0.268-0.908 0.428-1.282 0.48h0.080c0 0.054-0.348 0.216-1.044 0.482-0.64 0.214-1.256 0.32-1.844 0.32-0.16 0-0.4-0.052-0.722-0.16h0.080c0-0.052-0.106-0.16-0.32-0.32-0.223-0.221-0.458-0.43-0.704-0.626l-0.018-0.014c-0.211-0.265-0.421-0.501-0.643-0.725l0.001 0.001c-0.214-0.214-0.32-0.374-0.32-0.48v-0.56c0.052-0.216 0.080-0.402 0.080-0.564 0 0.054-0.188-0.4-0.562-1.362-0.32-0.964-0.536-2.194-0.642-3.69 0.106 0 0.214-0.080 0.32-0.24 0.16-0.16 0.24-0.296 0.24-0.402 0-0.32-0.106-0.64-0.32-0.962-0.16-0.376-0.24-0.856-0.24-1.444 0-0.75 0.16-1.658 0.48-2.728 0.322-1.122 0.562-2.22 0.724-3.288 0.052-0.16 0.214-0.454 0.48-0.882 0.268-0.48 0.56-0.99 0.882-1.524 0.32-0.536 0.616-1.016 0.882-1.444 0.268-0.48 0.428-0.802 0.482-0.962 0.16-0.856 0.348-1.472 0.56-1.846 0.27-0.374 0.536-0.668 0.804-0.88 0.268-0.216 0.588-0.43 0.962-0.644 0.374-0.266 0.802-0.72 1.284-1.362v-0.080c-0.006-0.146-0.035-0.283-0.083-0.411l0.003 0.009v-0.48c0-0.16 0.026-0.268 0.080-0.322 0.183-0.115 0.341-0.247 0.478-0.398l0.002-0.002c0.484-0.595 1.010-1.121 1.584-1.59l0.020-0.016c0.324-0.216 0.616-0.32 0.886-0.32 0.214 0 0.56 0.134 1.042 0.4 0.534 0.268 0.882 0.536 1.042 0.802z"></path>
</symbol>
<symbol id="icon-ticker-bolt" viewBox="0 0 32 32">
<path d="M17.556 3.53c-2.773 1.409-9.023 8.363-11.061 12.26-1.229 2.353-1.079 2.488 2.893 2.713l2.833 0.165c-5.141 8.993-4.616 8.034-4.661 8.124-1.124 1.933 0.405 3.223 2.023 1.709 0.015-0.015 13.909-10.807 16.397-14.389 0.285-0.405 0.21-0.869-0.42-1.334-1.034-0.764-2.428-1.004-7.509-1.424-0.794-0.060-1.154-0.15-1.094-0.27 0.375-0.914 1.814-4.751 2.503-6.25 0.809-1.754 0.734-2.653-1.903-1.304zM16.521 6.887c-0.135 0.315-1.799 4.302-1.874 4.467-0.39 0.779-0.135 1.184 0.839 1.289 3.237 0.345 4.526 0.465 5.83 0.525 2.158 0.105 2.173 0.015-0.105 2.308-2.428 2.458-8.633 8.154-8.768 8.019-0.12-0.12 1.874-3.927 2.413-4.631 0.974-1.274 0.674-1.454-2.428-1.454-1.394 0-2.263-0.030-2.923-0.075-0.615-0.045-0.989-0.704-0.689-1.259 1.124-2.053 3.133-4.616 6.475-8.288 1.529-1.649 1.559-1.679 1.229-0.899z"></path>
</symbol>
<symbol id="icon-ticker-crown" viewBox="0 0 32 32">
<path d="M12.626 8.081c0.023 1.183 1.403 3.084 2.342 2.725 0.406-0.162 0.406-0.336-0.035-1.6-1.055-3.003-2.33-2.075-2.307-1.125zM20.279 10.759c-0.325 0.916 0.8 1.078 1.577 0.232 0.788-0.87 1.635-2.168 2.087-3.049 0.499-0.846-0.475-1.275-1.287-0.58-0.962 0.812-2.156 2.759-2.377 3.397zM4.302 10.052c-0.719 0.29 1.693 3.281 2.667 3.304 1.136 0.023 1.229-0.232 0.441-1.287-1.241-1.67-2.284-2.354-3.107-2.017zM15.2 14.353c-0.429 0.429-0.939 1.020-1.136 1.299-1.693 2.527-1.716 2.551-2.493 1.959-1.797-1.345-4.754-2.261-4.174 0.081 0.359 1.415 1.426 4 1.704 4.858 0.719 2.261 1.101 2.632 2.377 2.33 3.165-0.765 7.687-0.788 10.922-0.058 0.8 0.186 0.846 0.093 0.927-1.519 0.162-3.258 2.041-6.435 2.041-7.455 0-1.148-2.168-0.29-5.113 2.017l-0.301 0.232-0.429-0.29c-0.881-0.591-1.322-0.128-0.823 0.858 0.406 0.8 0.742 1.067 1.635 0.638 0.51-0.243 1.217-0.707 2.215-1.415 0.394-0.278 0.719-0.475 0.719-0.441 0 0.162-0.707 3.2-0.707 3.212l-1.762-0.151c-1.403-0.058-1.565 0.684-0.116 0.904 0.151 0.023 1.635 0.209 1.635 0.209s-0.058 0.649-0.22 1.020c-0.174 0.371-0.464 0.464-0.939 0.301-3.722-1.229-9.785 0.267-9.797 0.267-0.22 0.035-2.238-5.287-2.075-5.449 0.023-0.023 0.267 0.127 0.545 0.336 3.142 2.284 3.467 2.215 5.542-1.113l0.974-1.565 0.383 0.568c1.113 1.658 2.69 0.928 1.809-0.29-0.301-0.406-0.8-1.009-1.6-1.948-0.359-0.429-0.893-0.243-1.739 0.603zM30.284 14.179c-0.417 0.243-2.597 2.33-2.852 2.725-0.545 0.87 0.591 1.067 1.623 0.278 1.206-0.916 2.91-2.493 2.91-2.701 0.012-0.417-1.113-0.626-1.681-0.301zM1.566 19.733c1.693 0.417 2.667 0.522 3.049 0.313 0.626-0.336 0.336-0.58-1.148-0.951-0.139-0.035-1.507-0.417-2.446-0.417-0.672 0-2.168 0.371 0.545 1.055z"></path>
</symbol>
<symbol id="icon-ticker-element" viewBox="0 0 32 32">
<path d="M16.069 10.489l0.268 0.877c-0.223 0.178-2.141 1.889-2.26 1.695-0.015-0.015-3.317-1.74-5.548-1.13-2.439 0.669-4.209 3.227-3.837 6.47 0.431 3.688 6.306 5.696 9.206 3.138l0.55-0.491c0.208 0.089 1.681 0.788 1.919 0.788 0.119 0 0.149 0.089 0.074 0.268-1.71 4.254 5.339 7.838 8.864 4.491 2.112-2.008 1.101-7.183-1.487-7.525-0.907-0.119-0.982 0.253-0.208 1.041 2.677 2.766-0.803 8.418-3.822 6.202-3.287-2.395-0.848-7.258 2.32-7.288 0.431 0 0.565-0.253 0.238-0.431-1.249-0.669-3.094-0.134-4.521 1.324l-0.863 1.011c-0.149-0.060-1.487-0.595-1.889-0.773l0.342-0.848c0.595-1.487 0.625-2.707 0.059-4.016-0.416-0.996-0.446-1.13-0.223-1.264 0.327-0.193 1.755-1.264 1.993-1.443l0.788 0.521c4.135 2.737 9.34 0.327 9.325-4.328-0.015-2.424-1.933-3.703-3.941-4.298-6.023-1.755-8.373 2.707-7.347 6.009zM25.32 8.362c0 4.387-5.369 6.336-6.856 2.484-0.595-1.562-0.327-7.050 4.373-5.622 1.339 0.402 2.484 1.532 2.484 3.138zM13.898 14.46c1.219 1.785 0.238 5.429-2.424 6.782-1.547 0.788-3.614-0.238-4.224-2.097-0.535-1.591 0.030-3.555 0.996-4.834 1.74-2.305 5.027-0.759 5.652 0.149z"></path>
</symbol>
<symbol id="icon-ticker-instagram" viewBox="0 0 32 32">
<path d="M13.244 6.539c-2.173 0.175-2.629 0.368-2.033 0.859 0.158 0.14 1.665 0.193 4.942 0.158 5.871-0.053 6.799 0.053 7.518 0.824 0.754 0.806 2.191 1.051 2.191 0.368 0-0.315-1.244-1.455-1.84-1.682-1.192-0.456-7.746-0.771-10.778-0.526zM7.304 7.888c-3.295 3.295-1.367 17.595 2.261 16.788 0.683-0.158 0.666-0.403-0.070-0.701-1.419-0.596-1.788-1.753-1.419-4.399 0.21-1.507 0.245-2.769 0.158-6.134-0.123-4.609 0-5.257 0.999-5.59 0.578-0.175 0.263-0.508-0.526-0.578-0.648-0.053-0.806 0.018-1.402 0.613zM19.658 9.886c-1.034 0.824-0.456 1.91 1.034 1.91 1.069 0 1.665-0.508 1.665-1.419 0-0.894-1.77-1.227-2.699-0.491zM24.337 10.254c-0.508 1.472-0.473 2.313-0.473 10.62-0.053 0.158 0.473 1.998-1.805 2.489-0.894 0.193-2.489 0.245-5.888 0.28-5.695 0.088-5.976 0.123-5.345 0.859 0.999 1.209 11.373 1.472 13.582 0.351 1.402-0.719 1.998-3.61 1.998-9.761-0.035-3.68-1.367-6.87-2.068-4.837zM12.281 13.443c-2.944 2.751-0.14 7.588 4.854 6.782 3.137-0.508 4.223-7.045 1.122-7.045-0.613 0-0.701 0.263-0.21 0.648 2.523 1.98-0.21 6.116-3.26 5.135-3.119-0.999-2.418-5.941 0.999-5.941 0.771 0 1.244-0.351 0.473-0.666-0.666-0.28-2.155-0.596-3.978 1.086z"></path>
</symbol>
<symbol id="icon-ticker-smiley" viewBox="0 0 32 32">
<path d="M9.906 17.336c0.319 2.647 1.122 3.977 2.924 4.822 1.691 0.79 1.926 0.111 0.637-1.122-2.619-2.522-3.201-4.227-1.524-5.044 0.873-0.416 7.344-0.166 7.344-0.166 0.651-0.014 1.178 0.527 1.136 1.178-0.18 2.841-1.109 5.196-3.977 5.21-0.748 0-0.984 0.291-0.471 0.568 2.702 1.455 5.973-1.871 6.042-6.139 0.028-1.926-3.658-2.508-11.363-1.801-0.998 0.111-1.025 0.194-0.748 2.494z"></path>
<path d="M17.666 11.918c0.499 0.208 0.637 0.388 0.693 0.901 0.097 1.067 0.928 1.039 0.928-0.014v-0.79h1.15c1.774 0 1.705-0.818-0.083-1.109l-0.97-0.152-0.055-0.859c-0.069-1.067-0.596-1.483-1.15-0.928-0.125 0.125-0.236 0.513-0.236 0.873 0 0.582-0.055 0.637-0.582 0.637-1.136 0-0.929 0.915 0.305 1.441z"></path>
<path d="M19.911 6.402c-2.383-0.346-2.799 0.055-1.012 0.998 2.092 1.109 5.099 4.601 5.501 7.816 0.499 3.963-2.758 8.411-6.721 9.146-6.056 1.122-11.876-5.391-9.908-11.1 1.275-3.7 4.434-6.901 6.887-6.347 1.427 0.319 1.538-0.457 0.416-0.665-0.623-0.111-1.552-0.139-2.314 0-7.053 1.219-10.116 11.723-4.85 16.656 5.792 5.418 15.007 3.187 18.319-4.42 1.995-4.573-1.58-11.405-6.319-12.084z"></path>
<path d="M11 11.821c0.707 0 0.762 0.041 0.762 0.568 0 1.386 1.039 1.76 1.261 0.443 0.194-1.15 0.235-1.206 0.97-1.206 0.97 0 0.859-0.61-0.152-0.859-0.651-0.166-0.721-0.236-0.721-0.831 0-1.316-0.859-1.912-1.316-0.915-0.125 0.277-0.222 0.707-0.222 0.97 0 0.443-0.042 0.471-0.748 0.36-1.497-0.236-1.441 1.469 0.166 1.469z"></path>
</symbol>
<symbol id="icon-ticker-smiley-love" viewBox="0 0 32 32">
<path d="M26.41 13.039l-0.446-1.503 0.501-0.654c1.851-2.436-1.587-6.25-4.315-4.789-0.292 0.153-0.64 0.167-1.141 0.042-0.919-0.237-3.926-0.738-4.538-0.807-2.032-0.251-1.476 0.738-0.599 0.821 1.977 0.209 1.935 0.097 1.406 0.654-0.821 0.877-0.111 4.302 1.197 5.791 1.183 1.35 4.051 2.074 4.942 1.239 1.768-1.67 1.281 6.070-0.543 8.436-5.68 7.392-17.652 0.264-15.494-9.23l0.251-1.114 1.030 0.682c1.796 1.197 2.534 0.599 1.155-0.933-2.255-2.492-1.489-5.666 0.877-3.647 0.793 0.682 1.768 0.78 2.172 0.237 1.197-1.643 1.907-1.058 1.893 0.696 0 0.947-0.445 1.587-2.269 3.285-1.601 1.489-1.671 1.991-0.278 1.991 0.933 0 3.954-3.578 4.218-4.984 0.376-1.977-2.297-3.592-3.884-2.353-0.362 0.292-0.585 0.348-0.724 0.209s-0.111-0.39 0.334-0.64c0.445-0.251 1.128-0.445 0.974-0.863-0.209-0.557-1.754 0.167-1.963 0.292-0.209 0.111-0.961 0.599-1.601 0.599-2.2 0-3.035 0.668-2.854 2.269 0.097 0.891 0.042 1.142-0.459 2.032-3.912 6.933 1.378 15.689 9.578 15.856 8.339 0.195 12.919-5.721 10.58-13.615zM23.598 11.591c-1.503 1.671-1.726 1.74-2.965 1.016-0.988-0.585-1.796-2.102-1.963-3.703-0.167-1.684 0.696-2.13 2.172-1.128l0.724 0.501 0.724-0.473c2.074-1.378 4.803-0.084 1.309 3.786z"></path>
<path d="M9.134 16.144c0.097 0.292 0.306 1.267 0.473 2.172 1.239 6.752 12.069 6.626 12.626-0.139 0.070-0.835 0.223-1.573 0.334-1.643 0.974-0.626-1.629-1.462-3.466-1.1-0.571 0.111-2.756 0.139-5.36 0.070-4.817-0.139-4.844-0.139-4.608 0.64zM20.939 16.603v1.030c0 3.828-6.835 5.93-9.104 2.784-0.78-1.072-0.766-1.726-0.877-3.745 6.404-0.209 6.557-0.181 9.981-0.070z"></path>
</symbol>
<symbol id="icon-ticker-sweat-waterdrop" viewBox="0 0 32 32">
<path d="M10.373 6.248c-3.278 1.021-4.845 5.017-3.853 9.79 0.316 1.509 1.567 1.553 3.091 0.604 1.61-1.021 3.508-3.163 4.902-5.908 1.495-2.976-0.848-5.52-4.14-4.485zM11.911 7.57c1.624 0.963 1.208 2.616-1.509 5.793l-1.581 1.855-0.043-1.394c-0.129-4.413 1.323-7.332 3.134-6.253zM19.703 8.921c-2.228 1.035-5.635 5.463-5.635 7.332 0 1.222 0.877 1.179 5.189-0.259 3.407-1.136 5.046-1.783 5.779-2.688 2.429-2.976-1.682-6.081-5.333-4.385zM23.067 10.273c0.762 1.164-1.107 3.565-3.335 4.298-1.826 0.604-3.076 0.934-2.947 0.748 0.072-0.086 0.518-0.676 0.992-1.308 2.243-2.976 4.672-4.686 5.29-3.738zM14.556 19.185c-3.148 0.546-4.284 2.703-0.503 3.996 0.661 0.23 2.085 0.891 3.163 1.466 3.148 1.711 4.715 1.739 6.038 0.129 1.021-1.236 0.762-3.22-0.216-4.686-2.401-3.608-6.785-1.208-8.481-0.906zM21.83 20.666c0.819 0.417 0.791 1.366-0.072 2.329-1.164 1.294-2.142 1.222-4.916-0.374l-2.013-1.15c0.316-0.057 1.452-0.244 3.349-0.69 1.739-0.431 2.961-0.46 3.651-0.115z"></path>
</symbol>
<symbol id="icon-mobile-menu-close" viewBox="0 0 32 32">
<path d="M25.707 24.293c0.181 0.181 0.293 0.431 0.293 0.707 0 0.552-0.448 1-1 1-0.276 0-0.526-0.112-0.707-0.293v0l-8.293-8.293-8.291 8.293c-0.181 0.181-0.431 0.294-0.708 0.294-0.553 0-1.001-0.448-1.001-1.001 0-0.276 0.112-0.526 0.293-0.707v0l8.294-8.293-8.294-8.293c-0.181-0.181-0.293-0.431-0.293-0.707 0-0.553 0.448-1.001 1.001-1.001 0.277 0 0.527 0.112 0.708 0.293v0l8.291 8.293 8.293-8.293c0.181-0.181 0.431-0.293 0.707-0.293 0.552 0 1 0.448 1 1 0 0.276-0.112 0.526-0.293 0.707v0l-8.293 8.293 8.293 8.293z"></path>
</symbol>
<symbol id="icon-mobile-menu-open" viewBox="0 0 40 32">
<path d="M40 15c0 0.92-0.746 1.667-1.667 1.667v0h-36.667c-0.92 0-1.667-0.746-1.667-1.667s0.746-1.667 1.667-1.667v0h36.667c0.92 0 1.667 0.746 1.667 1.667v0zM1.667 3.333h36.667c0.92 0 1.667-0.746 1.667-1.667s-0.746-1.667-1.667-1.667v0h-36.667c-0.92 0-1.667 0.746-1.667 1.667s0.746 1.667 1.667 1.667v0zM38.333 26.667h-36.667c-0.92 0-1.667 0.746-1.667 1.667s0.746 1.667 1.667 1.667v0h36.667c0.92 0 1.667-0.746 1.667-1.667s-0.746-1.667-1.667-1.667v0z"></path>
</symbol>
</defs>
</svg>
