<svg width="40" height="40" viewBox="0 0 40 40" fill="none" xmlns="http://www.w3.org/2000/svg">
<g clip-path="url(#clip0_4148_5119)">
<rect width="40" height="40" rx="20" fill="#FFECB8"/>
<path fill-rule="evenodd" clip-rule="evenodd" d="M13.5 14C13.3145 14 13.1334 14.0556 12.9798 14.1595C12.8262 14.2635 12.7073 14.411 12.6383 14.5831L11.0783 18.4831H28.9217L27.3617 14.5831C27.2927 14.411 27.1738 14.2635 27.0202 14.1595C26.8666 14.0556 26.6854 14 26.5 14H13.5ZM12.5826 39.2126L11.1823 30.1163H28.8177L27.4174 39.2126C27.3837 39.4317 27.2727 39.6316 27.1044 39.776C26.9361 39.9205 26.7217 39.9999 26.5 40H13.5C13.2782 39.9999 13.0638 39.9205 12.8956 39.776C12.7273 39.6316 12.6163 39.4317 12.5826 39.2126ZM10.9297 20.8027H29.0721C30.1864 20.8027 31.0871 21.5864 31.0871 22.5521V26.0473C31.0871 27.013 30.1846 27.793 29.0721 27.793H10.9278C9.81356 27.793 8.91284 27.013 8.91284 26.0473V22.5521C8.91284 21.5864 9.81727 20.8027 10.9297 20.8027Z" fill="#1D4E1A"/>
</g>
<defs>
<clipPath id="clip0_4148_5119">
<rect width="40" height="40" rx="20" fill="white"/>
</clipPath>
</defs>
</svg>
