<svg xmlns="http://www.w3.org/2000/svg" width="16" height="16" fill="none"><path fill="#FFECB8" d="M9.339 7.37c.229.474.363.529.774.347 1.073-.481-.514-2.77-1.69-2.44-.371.103-1.019.435-.23.822.467.22.846.647 1.146 1.27ZM8.55 10.915c-1.793-.884-2.132-.269-2.132.087 0 .307-.269.434-.948-.403-1.192-1.469-1.326-1.84-.702-1.974 1.207-.26 1.255-1.152.165-3.095-.805-1.437-1.713-2.037-2.645-1.752C1.531 4.007.67 5.27.473 6.446c-.214 1.28.276 1.998.49 2.51.757 1.793 3.378 5.038 4.562 5.638 2.637 1.342 5.519.947 5.353-.742-.11-1.153-.797-2.18-2.329-2.937Zm-.222 3.434c-3.363-.055-6.947-4.855-6.947-7.445 0-1.445 1.034-3.26 1.429-2.542.007.008 1.776 2.953 1.91 3.474.04.158 0 .197-.34.308-1.026.34-1.16.868-.544 2.131 1.018 2.1 3.15 2.827 3.292 1.137.079-.892.648-.663 1.99 1.098 1.144 1.515.805 1.863-.79 1.84Z"/><path fill="#FFECB8" d="M8.004 3.265c-.765.379-.734.56.111.71 1.99.347 3.663 2.345 3.663 4.374 0 .908.735 1.255 1.216-.316.663-2.171-3.055-5.732-4.99-4.768Z"/><path fill="#FFECB8" d="M8.502.975c-.924.331-.845.703.174.774 3.363.236 6.063 3.908 5.408 7.35-.15.805.552 1.16 1.215-.245 1.572-3.324-3.402-9.08-6.797-7.88Z"/></svg>