<svg xmlns="http://www.w3.org/2000/svg" width="16" height="12" fill="none"><path fill="#FFECB8" fill-rule="evenodd" d="M5.307.5C.823.703.517 1.048.517 5.723c.01 4.09.354 5.509 1.36 5.509.057 0 .44.115.853.249 2.06.69 11.946-.048 12.358-.93.326-.69.498-6.322.25-7.894-.26-1.59-.901-2.088-2.597-2.05-1.456.038-1.236.652.24.652 1.101 0 1.111.028 1.13 4.531.02 4.311.029 4.206-.632 4.369-1.207.297-8.172.364-11.161.412-.278-.527-.336-.355-.613-4.532-.26-4.004-.25-4.024 2.557-4.397 1.964-.259 2.319-.288 4.455-.345 1.983-.058 2.3-.096 2.3-.24-.01-.44-2.625-.699-5.71-.555Zm7.52 1.62c-.325.259-1.073 1.054-3.525 3.67-.815.871-.786.871-1.62.287-1.273-.882-2.375-1.552-3.237-2.328-1.227-1.102-2.003-1.533-2.271-1.265-.163.163 1.226 1.303 3.075 3.171l.805.814c-.029.03-1.677 1.303-2.414 2.3-.498.67.029.795.47.479.46-.345 1.225-1.198 2.356-2.367l.402.163c.642.259 1.878.086 2.31-.316.306-.287.584-.383.584-.21 0 .124 2.002 2.097 2.71 2.71.403.345 1.591.729.585-.44-.737-.843-2.194-2.309-2.72-2.673-.125-.086-.211-.173-.192-.192 1.39-.9 2.826-2.424 3.324-3.305.623-1.063-.479-.623-.642-.498Z" clip-rule="evenodd"/></svg>