<svg xmlns="http://www.w3.org/2000/svg" width="1210" height="224" 
fill="none">
<g filter="url(#a)"><mask id="b" width="1202" height="215"
 x="4" y=".615" fill="#000" maskUnits="userSpaceOnUse">
 <path fill="#fff" d="M4 .615h1202v215H4z"/>
 <path d="M80.914 213.636c-8.346 0-18.024-.355-29.034-1.065-11.01-.71-24.683-1.066-41.02-1.066C6.953 206.711 5 201.117 5 194.725c6.038 0 10.3-.977 12.785-2.93 2.487-2.131 3.73-5.682 3.73-10.654V55.952c0-4.972-1.243-8.434-3.73-10.388C15.3 43.434 11.038 42.368 5 42.368c0-6.393 1.953-11.986 5.86-16.78 12.608 0 22.641-.09 30.1-.267 7.457-.355 13.761-.621 18.911-.799a479.897 479.897 0 0 1 15.982-.266c15.45 0 28.146 1.42 38.09 4.261 9.944 2.664 17.669 6.215 23.174 10.655 5.682 4.262 9.589 9.056 11.72 14.383 2.308 5.15 3.463 10.3 3.463 15.449 0 9.944-2.575 18.467-7.725 25.57-5.15 7.103-13.851 13.229-26.104 18.379 15.272 3.196 26.37 8.168 33.296 14.916 7.103 6.748 10.655 17.224 10.655 31.43a60.648 60.648 0 0 1-3.463 20.243c-2.309 6.393-6.482 12.164-12.519 17.314-5.86 5.149-14.118 9.233-24.772 12.252-10.655 3.019-24.24 4.528-40.754 4.528ZM73.456 106.56c12.963 0 22.108-2.841 27.435-8.523 5.505-5.683 8.258-13.318 8.258-22.907s-2.664-17.224-7.991-22.907c-5.15-5.682-13.407-8.523-24.772-8.523-1.776 0-3.73.089-5.86.266-1.954.178-3.64.444-5.061.8v61.262c1.243.177 2.575.355 3.995.532h3.996Zm3.196 87.632c24.861 0 37.291-10.743 37.291-32.229 0-12.075-3.107-21.131-9.323-27.169-6.037-6.037-16.16-9.056-30.365-9.056-1.42 0-3.019.089-4.795.266h-3.995v67.389c1.243.178 2.841.355 4.794.533 1.954.177 4.085.266 6.393.266ZM180.472 211.505c-1.953-1.953-3.463-4.084-4.528-6.392-1.066-2.309-1.598-4.972-1.598-7.991 5.149 0 8.79-1.065 10.92-3.196 2.309-2.309 3.463-6.126 3.463-11.454v-76.977c0-4.617-1.243-7.902-3.729-9.855-2.486-2.131-7.103-3.197-13.851-3.197V80.457c4.262-2.486 9.323-4.617 15.183-6.392 5.86-1.954 11.631-3.463 17.314-4.528 5.682-1.244 10.122-1.865 13.318-1.865 4.084 0 7.014 1.42 8.79 4.262 1.953 2.84 2.93 8.967 2.93 18.379 1.953-3.73 4.794-7.37 8.524-10.921a50.582 50.582 0 0 1 13.051-9.056c4.795-2.309 9.767-3.463 14.917-3.463 8.346 0 14.295 2.13 17.846 6.392 3.552 4.262 5.328 9.767 5.328 16.515 0 7.635-1.954 13.85-5.86 18.645-3.907 4.794-9.323 7.191-16.249 7.191-6.037 0-10.832-1.686-14.383-5.06-3.552-3.552-5.328-7.547-5.328-11.986 0-2.842.267-5.061.799-6.66a45.69 45.69 0 0 0-8.257 2.93c-2.664 1.066-5.327 2.842-7.991 5.328v79.907c0 4.084.622 7.369 1.865 9.855 1.243 2.486 3.64 4.351 7.192 5.594 3.729 1.065 9.234 1.598 16.514 1.598 0 3.019-.355 5.682-1.065 7.991-.711 2.308-2.042 4.439-3.996 6.392h-71.119ZM355.632 213.903c-19.889 0-35.782-6.304-47.68-18.912-11.72-12.607-17.58-30.187-17.58-52.739 0-15.448 2.93-28.766 8.79-39.953 5.86-11.365 13.763-20.066 23.707-26.104 10.122-6.037 21.575-9.056 34.361-9.056 15.982 0 28.767 4.706 38.356 14.117 9.767 9.234 14.65 22.286 14.65 39.155 0 6.748-1.154 12.696-3.462 17.846-2.131 4.972-6.659 7.458-13.585 7.458h-57.535c.533 14.028 3.729 23.972 9.589 29.832 6.038 5.86 13.851 8.79 23.441 8.79 6.037 0 11.631-.888 16.781-2.664a57.189 57.189 0 0 0 14.383-7.99c1.598 1.42 2.841 3.64 3.729 6.658 1.066 2.842 1.599 5.239 1.599 7.192 0 2.841-2.043 6.393-6.127 10.654-3.907 4.085-9.589 7.725-17.047 10.921-7.281 3.196-16.071 4.795-26.37 4.795Zm-19.978-88.431h26.903c3.019 0 4.884-1.154 5.594-3.463.888-2.308 1.332-5.15 1.332-8.523 0-11.365-1.421-18.823-4.262-22.374-2.664-3.73-5.86-5.594-9.589-5.594-3.019 0-6.038 1.154-9.057 3.463-3.019 2.308-5.505 6.392-7.458 12.252-1.953 5.682-3.108 13.762-3.463 24.239ZM462.121 213.37 425.896 99.901c-1.598-4.794-3.463-8.257-5.594-10.388-1.953-2.308-5.238-3.462-9.855-3.462 0-2.841.444-5.683 1.331-8.524.888-3.018 2.309-5.505 4.262-7.458h59.932c1.954 1.953 3.463 4.44 4.529 7.458 1.065 2.841 1.598 5.683 1.598 8.524-3.552 0-6.571.976-9.057 2.93-2.308 1.953-3.462 4.972-3.462 9.056 0 .71.088 1.598.266 2.663a24.81 24.81 0 0 1 .799 2.93l6.926 36.225 7.99 37.557 11.721-37.557 7.724-27.701c2.131-8.346 4.439-15.36 6.926-21.042 2.663-5.86 7.191-8.79 13.584-8.79h20.51l13.851 57.267 11.72 36.757 5.86-36.757 8.79-37.557c.711-2.663 1.066-5.06 1.066-7.191 0-5.86-3.552-8.79-10.655-8.79 0-2.841.355-5.683 1.066-8.524.71-3.018 2.042-5.505 3.995-7.458h50.876c2.131 1.953 3.551 4.44 4.262 7.458a35.04 35.04 0 0 1 1.065 8.524c-4.972 0-8.879.888-11.72 2.663-2.664 1.599-4.706 4.795-6.126 9.59l-23.707 86.033c-1.776 6.925-3.64 12.519-5.593 16.78-1.954 4.262-4.529 7.37-7.725 9.323-3.019 1.953-7.458 2.93-13.318 2.93H548.69l-25.038-79.908-14.384 51.408c-2.309 8.701-4.706 15.36-7.192 19.976-2.486 4.44-6.748 7.192-12.785 8.258v.266h-27.17Z"/><path d="M755.12 213.104c-8.701 0-15.36-1.332-19.977-3.996-4.617-2.663-6.925-6.925-6.925-12.785v-85.767c0-5.683-1.598-10.033-4.795-13.052-3.196-3.196-7.369-4.794-12.519-4.794-3.374 0-7.014 1.154-10.921 3.462-3.729 2.131-6.57 5.061-8.524 8.79v77.777c0 5.149 1.066 8.878 3.197 11.187 2.308 2.131 6.126 3.196 11.453 3.196 0 5.505-2.042 10.299-6.126 14.383h-58.867c-4.084-4.084-6.126-8.878-6.126-14.383 5.327 0 9.056-1.065 11.187-3.196 2.309-2.309 3.463-6.038 3.463-11.187V38.373c0-4.084-1.154-7.28-3.463-9.59-2.308-2.308-7.103-3.462-14.383-3.462v-10.92c4.439-2.309 9.589-4.44 15.449-6.393 6.037-1.953 11.986-3.463 17.846-4.528 6.038-1.243 11.01-1.865 14.917-1.865 4.084 0 7.014.977 8.79 2.93 1.775 1.776 2.663 4.883 2.663 9.323V66.34l-.532 21.309c4.617-5.86 10.565-10.832 17.846-14.916 7.281-4.084 15.538-6.126 24.772-6.126 25.216 0 37.824 13.14 37.824 39.421v74.58c0 9.056 4.262 14.383 12.785 15.981l.267 7.725c-6.393 5.86-16.16 8.79-29.301 8.79ZM839.454 213.37c-13.318 0-24.15-3.64-32.496-10.921-8.169-7.458-12.253-16.958-12.253-28.5 0-11.542 3.729-20.865 11.187-27.968 7.636-7.103 19.356-10.654 35.16-10.654 5.15 0 10.566.533 16.248 1.598 5.683.888 10.3 2.309 13.851 4.262v-35.426c0-7.458-1.953-12.607-5.86-15.448-3.729-3.02-8.346-4.529-13.851-4.529-5.86 0-10.654 1.421-14.383 4.262 3.551 1.243 6.126 3.196 7.724 5.86 1.599 2.486 2.398 5.238 2.398 8.257 0 5.86-2.131 10.566-6.393 14.117-4.084 3.374-9.145 5.061-15.183 5.061-6.748 0-12.164-1.953-16.248-5.86-4.084-4.084-6.127-9.145-6.127-15.182 0-6.038 2.043-11.72 6.127-17.047 4.084-5.505 10.388-10.033 18.912-13.585 8.701-3.551 19.888-5.327 33.562-5.327 35.693 0 53.539 14.117 53.539 42.351v70.585c0 8.524 4.084 13.673 12.253 15.449v8.523c-2.309 3.374-6.215 5.949-11.72 7.725-5.505 1.598-10.832 2.397-15.982 2.397-12.075 0-20.599-4.173-25.571-12.519-3.552 3.196-8.257 6.126-14.118 8.79-5.86 2.486-12.785 3.729-20.776 3.729Zm17.314-21.575c2.486 0 5.061-.355 7.724-1.066 2.664-.887 4.884-1.953 6.659-3.196v-25.837c-1.775-1.243-4.084-2.308-6.925-3.196-2.664-.888-5.327-1.332-7.991-1.332-4.617 0-8.612 1.51-11.986 4.528-3.374 2.842-5.061 7.37-5.061 13.585 0 4.794 1.598 8.789 4.794 11.986 3.197 3.019 7.458 4.528 12.786 4.528ZM987.366 213.37c-12.431 0-22.109-3.818-29.034-11.454-6.926-7.635-10.388-17.934-10.388-30.897V97.77c0-3.018-1.155-5.15-3.463-6.392-2.309-1.243-5.505-1.865-9.589-1.865v-11.72c2.308-1.953 7.103-3.995 14.383-6.126 7.459-2.308 15.805-3.462 25.039-3.462 6.925 0 11.453.799 13.584 2.397 2.309 1.598 3.463 5.505 3.463 11.72v89.496c0 5.327.888 9.411 2.664 12.252 1.775 2.842 4.883 4.262 9.325 4.262 3.73 0 7.28-1.154 10.65-3.462 3.55-2.309 6.48-4.972 8.79-7.991V97.771c0-3.02-1.33-5.15-3.99-6.393-2.67-1.243-6.31-1.865-10.92-1.865v-11.72c2.48-1.953 7.36-3.995 14.65-6.126 7.28-2.308 15.89-3.462 25.83-3.462 6.93 0 11.63.799 14.12 2.397 2.49 1.598 3.73 5.505 3.73 11.72v98.019c0 4.262 1.06 7.814 3.2 10.655 2.3 2.841 5.5 4.439 9.58 4.794v7.458c-2.84 3.374-7.36 5.949-13.58 7.725-6.04 1.598-11.9 2.397-17.58 2.397-5.86 0-11.01-1.509-15.45-4.528-4.26-3.196-7.1-7.725-8.52-13.584-8.7 12.074-20.87 18.112-36.494 18.112ZM1146.13 214.169c-6.39 0-12.87-.71-19.44-2.131-6.39-1.42-12.34-3.463-17.85-6.126-5.32-2.664-9.68-5.949-13.05-9.855-3.37-4.085-5.06-8.701-5.06-13.851 0-6.215 1.78-11.187 5.33-14.916 3.55-3.907 8.08-5.86 13.58-5.86 4.97 0 9.15 1.598 12.52 4.795 3.55 3.196 5.33 7.369 5.33 12.518 0 2.309-.36 4.351-1.07 6.127-.71 1.598-1.77 3.373-3.19 5.327 1.59 1.598 4.44 2.752 8.52 3.462 4.08.711 8.08 1.066 11.99 1.066 6.21 0 11.01-1.154 14.38-3.463 3.37-2.308 5.06-5.149 5.06-8.523 0-5.327-2.84-9.856-8.52-13.585-5.69-3.906-12.17-7.813-19.45-11.719a556.159 556.159 0 0 1-19.71-11.187c-6.39-4.085-11.81-9.145-16.25-15.183-4.26-6.037-6.39-13.673-6.39-22.907 0-11.72 4.88-21.397 14.65-29.033 9.77-7.635 23.62-11.453 41.55-11.453 12.43 0 22.38 1.598 29.84 4.794 7.45 3.02 12.87 6.926 16.24 11.72 3.38 4.617 5.07 9.5 5.07 14.65 0 5.505-1.78 9.944-5.33 13.318-3.38 3.196-7.55 4.794-12.52 4.794-4.44 0-8.35-1.332-11.72-3.995-3.37-2.841-5.06-6.481-5.06-10.921 0-2.13.35-4.44 1.06-6.925.71-2.486 1.69-4.528 2.93-6.126-1.95-1.599-4.26-2.664-6.92-3.197-2.49-.71-5.51-1.065-9.06-1.065-5.86 0-10.39 1.42-13.58 4.262-3.02 2.663-4.53 5.948-4.53 9.855 0 6.037 2.84 11.009 8.52 14.916 5.86 3.907 12.34 7.724 19.45 11.453a255.289 255.289 0 0 1 19.18 10.921c6.39 3.907 11.72 8.79 15.98 14.65 4.26 5.86 6.39 13.406 6.39 22.64 0 9.944-2.84 17.935-8.52 23.972-5.69 5.86-13.06 10.122-22.11 12.786-8.88 2.663-18.29 3.995-28.24 3.995Z"/></mask><path fill="#FFECB8" d="M80.914 213.636c-8.346 0-18.024-.355-29.034-1.065-11.01-.71-24.683-1.066-41.02-1.066C6.953 206.711 5 201.117 5 194.725c6.038 0 10.3-.977 12.785-2.93 2.487-2.131 3.73-5.682 3.73-10.654V55.952c0-4.972-1.243-8.434-3.73-10.388C15.3 43.434 11.038 42.368 5 42.368c0-6.393 1.953-11.986 5.86-16.78 12.608 0 22.641-.09 30.1-.267 7.457-.355 13.761-.621 18.911-.799a479.897 479.897 0 0 1 15.982-.266c15.45 0 28.146 1.42 38.09 4.261 9.944 2.664 17.669 6.215 23.174 10.655 5.682 4.262 9.589 9.056 11.72 14.383 2.308 5.15 3.463 10.3 3.463 15.449 0 9.944-2.575 18.467-7.725 25.57-5.15 7.103-13.851 13.229-26.104 18.379 15.272 3.196 26.37 8.168 33.296 14.916 7.103 6.748 10.655 17.224 10.655 31.43a60.648 60.648 0 0 1-3.463 20.243c-2.309 6.393-6.482 12.164-12.519 17.314-5.86 5.149-14.118 9.233-24.772 12.252-10.655 3.019-24.24 4.528-40.754 4.528ZM73.456 106.56c12.963 0 22.108-2.841 27.435-8.523 5.505-5.683 8.258-13.318 8.258-22.907s-2.664-17.224-7.991-22.907c-5.15-5.682-13.407-8.523-24.772-8.523-1.776 0-3.73.089-5.86.266-1.954.178-3.64.444-5.061.8v61.262c1.243.177 2.575.355 3.995.532h3.996Zm3.196 87.632c24.861 0 37.291-10.743 37.291-32.229 0-12.075-3.107-21.131-9.323-27.169-6.037-6.037-16.16-9.056-30.365-9.056-1.42 0-3.019.089-4.795.266h-3.995v67.389c1.243.178 2.841.355 4.794.533 1.954.177 4.085.266 6.393.266ZM180.472 211.505c-1.953-1.953-3.463-4.084-4.528-6.392-1.066-2.309-1.598-4.972-1.598-7.991 5.149 0 8.79-1.065 10.92-3.196 2.309-2.309 3.463-6.126 3.463-11.454v-76.977c0-4.617-1.243-7.902-3.729-9.855-2.486-2.131-7.103-3.197-13.851-3.197V80.457c4.262-2.486 9.323-4.617 15.183-6.392 5.86-1.954 11.631-3.463 17.314-4.528 5.682-1.244 10.122-1.865 13.318-1.865 4.084 0 7.014 1.42 8.79 4.262 1.953 2.84 2.93 8.967 2.93 18.379 1.953-3.73 4.794-7.37 8.524-10.921a50.582 50.582 0 0 1 13.051-9.056c4.795-2.309 9.767-3.463 14.917-3.463 8.346 0 14.295 2.13 17.846 6.392 3.552 4.262 5.328 9.767 5.328 16.515 0 7.635-1.954 13.85-5.86 18.645-3.907 4.794-9.323 7.191-16.249 7.191-6.037 0-10.832-1.686-14.383-5.06-3.552-3.552-5.328-7.547-5.328-11.986 0-2.842.267-5.061.799-6.66a45.69 45.69 0 0 0-8.257 2.93c-2.664 1.066-5.327 2.842-7.991 5.328v79.907c0 4.084.622 7.369 1.865 9.855 1.243 2.486 3.64 4.351 7.192 5.594 3.729 1.065 9.234 1.598 16.514 1.598 0 3.019-.355 5.682-1.065 7.991-.711 2.308-2.042 4.439-3.996 6.392h-71.119ZM355.632 213.903c-19.889 0-35.782-6.304-47.68-18.912-11.72-12.607-17.58-30.187-17.58-52.739 0-15.448 2.93-28.766 8.79-39.953 5.86-11.365 13.763-20.066 23.707-26.104 10.122-6.037 21.575-9.056 34.361-9.056 15.982 0 28.767 4.706 38.356 14.117 9.767 9.234 14.65 22.286 14.65 39.155 0 6.748-1.154 12.696-3.462 17.846-2.131 4.972-6.659 7.458-13.585 7.458h-57.535c.533 14.028 3.729 23.972 9.589 29.832 6.038 5.86 13.851 8.79 23.441 8.79 6.037 0 11.631-.888 16.781-2.664a57.189 57.189 0 0 0 14.383-7.99c1.598 1.42 2.841 3.64 3.729 6.658 1.066 2.842 1.599 5.239 1.599 7.192 0 2.841-2.043 6.393-6.127 10.654-3.907 4.085-9.589 7.725-17.047 10.921-7.281 3.196-16.071 4.795-26.37 4.795Zm-19.978-88.431h26.903c3.019 0 4.884-1.154 5.594-3.463.888-2.308 1.332-5.15 1.332-8.523 0-11.365-1.421-18.823-4.262-22.374-2.664-3.73-5.86-5.594-9.589-5.594-3.019 0-6.038 1.154-9.057 3.463-3.019 2.308-5.505 6.392-7.458 12.252-1.953 5.682-3.108 13.762-3.463 24.239ZM462.121 213.37 425.896 99.901c-1.598-4.794-3.463-8.257-5.594-10.388-1.953-2.308-5.238-3.462-9.855-3.462 0-2.841.444-5.683 1.331-8.524.888-3.018 2.309-5.505 4.262-7.458h59.932c1.954 1.953 3.463 4.44 4.529 7.458 1.065 2.841 1.598 5.683 1.598 8.524-3.552 0-6.571.976-9.057 2.93-2.308 1.953-3.462 4.972-3.462 9.056 0 .71.088 1.598.266 2.663a24.81 24.81 0 0 1 .799 2.93l6.926 36.225 7.99 37.557 11.721-37.557 7.724-27.701c2.131-8.346 4.439-15.36 6.926-21.042 2.663-5.86 7.191-8.79 13.584-8.79h20.51l13.851 57.267 11.72 36.757 5.86-36.757 8.79-37.557c.711-2.663 1.066-5.06 1.066-7.191 0-5.86-3.552-8.79-10.655-8.79 0-2.841.355-5.683 1.066-8.524.71-3.018 2.042-5.505 3.995-7.458h50.876c2.131 1.953 3.551 4.44 4.262 7.458a35.04 35.04 0 0 1 1.065 8.524c-4.972 0-8.879.888-11.72 2.663-2.664 1.599-4.706 4.795-6.126 9.59l-23.707 86.033c-1.776 6.925-3.64 12.519-5.593 16.78-1.954 4.262-4.529 7.37-7.725 9.323-3.019 1.953-7.458 2.93-13.318 2.93H548.69l-25.038-79.908-14.384 51.408c-2.309 8.701-4.706 15.36-7.192 19.976-2.486 4.44-6.748 7.192-12.785 8.258v.266h-27.17Z"/><path fill="#FFECB8" d="M755.12 213.104c-8.701 0-15.36-1.332-19.977-3.996-4.617-2.663-6.925-6.925-6.925-12.785v-85.767c0-5.683-1.598-10.033-4.795-13.052-3.196-3.196-7.369-4.794-12.519-4.794-3.374 0-7.014 1.154-10.921 3.462-3.729 2.131-6.57 5.061-8.524 8.79v77.777c0 5.149 1.066 8.878 3.197 11.187 2.308 2.131 6.126 3.196 11.453 3.196 0 5.505-2.042 10.299-6.126 14.383h-58.867c-4.084-4.084-6.126-8.878-6.126-14.383 5.327 0 9.056-1.065 11.187-3.196 2.309-2.309 3.463-6.038 3.463-11.187V38.373c0-4.084-1.154-7.28-3.463-9.59-2.308-2.308-7.103-3.462-14.383-3.462v-10.92c4.439-2.309 9.589-4.44 15.449-6.393 6.037-1.953 11.986-3.463 17.846-4.528 6.038-1.243 11.01-1.865 14.917-1.865 4.084 0 7.014.977 8.79 2.93 1.775 1.776 2.663 4.883 2.663 9.323V66.34l-.532 21.309c4.617-5.86 10.565-10.832 17.846-14.916 7.281-4.084 15.538-6.126 24.772-6.126 25.216 0 37.824 13.14 37.824 39.421v74.58c0 9.056 4.262 14.383 12.785 15.981l.267 7.725c-6.393 5.86-16.16 8.79-29.301 8.79ZM839.454 213.37c-13.318 0-24.15-3.64-32.496-10.921-8.169-7.458-12.253-16.958-12.253-28.5 0-11.542 3.729-20.865 11.187-27.968 7.636-7.103 19.356-10.654 35.16-10.654 5.15 0 10.566.533 16.248 1.598 5.683.888 10.3 2.309 13.851 4.262v-35.426c0-7.458-1.953-12.607-5.86-15.448-3.729-3.02-8.346-4.529-13.851-4.529-5.86 0-10.654 1.421-14.383 4.262 3.551 1.243 6.126 3.196 7.724 5.86 1.599 2.486 2.398 5.238 2.398 8.257 0 5.86-2.131 10.566-6.393 14.117-4.084 3.374-9.145 5.061-15.183 5.061-6.748 0-12.164-1.953-16.248-5.86-4.084-4.084-6.127-9.145-6.127-15.182 0-6.038 2.043-11.72 6.127-17.047 4.084-5.505 10.388-10.033 18.912-13.585 8.701-3.551 19.888-5.327 33.562-5.327 35.693 0 53.539 14.117 53.539 42.351v70.585c0 8.524 4.084 13.673 12.253 15.449v8.523c-2.309 3.374-6.215 5.949-11.72 7.725-5.505 1.598-10.832 2.397-15.982 2.397-12.075 0-20.599-4.173-25.571-12.519-3.552 3.196-8.257 6.126-14.118 8.79-5.86 2.486-12.785 3.729-20.776 3.729Zm17.314-21.575c2.486 0 5.061-.355 7.724-1.066 2.664-.887 4.884-1.953 6.659-3.196v-25.837c-1.775-1.243-4.084-2.308-6.925-3.196-2.664-.888-5.327-1.332-7.991-1.332-4.617 0-8.612 1.51-11.986 4.528-3.374 2.842-5.061 7.37-5.061 13.585 0 4.794 1.598 8.789 4.794 11.986 3.197 3.019 7.458 4.528 12.786 4.528ZM987.366 213.37c-12.431 0-22.109-3.818-29.034-11.454-6.926-7.635-10.388-17.934-10.388-30.897V97.77c0-3.018-1.155-5.15-3.463-6.392-2.309-1.243-5.505-1.865-9.589-1.865v-11.72c2.308-1.953 7.103-3.995 14.383-6.126 7.459-2.308 15.805-3.462 25.039-3.462 6.925 0 11.453.799 13.584 2.397 2.309 1.598 3.463 5.505 3.463 11.72v89.496c0 5.327.888 9.411 2.664 12.252 1.775 2.842 4.883 4.262 9.325 4.262 3.73 0 7.28-1.154 10.65-3.462 3.55-2.309 6.48-4.972 8.79-7.991V97.771c0-3.02-1.33-5.15-3.99-6.393-2.67-1.243-6.31-1.865-10.92-1.865v-11.72c2.48-1.953 7.36-3.995 14.65-6.126 7.28-2.308 15.89-3.462 25.83-3.462 6.93 0 11.63.799 14.12 2.397 2.49 1.598 3.73 5.505 3.73 11.72v98.019c0 4.262 1.06 7.814 3.2 10.655 2.3 2.841 5.5 4.439 9.58 4.794v7.458c-2.84 3.374-7.36 5.949-13.58 7.725-6.04 1.598-11.9 2.397-17.58 2.397-5.86 0-11.01-1.509-15.45-4.528-4.26-3.196-7.1-7.725-8.52-13.584-8.7 12.074-20.87 18.112-36.494 18.112ZM1146.13 214.169c-6.39 0-12.87-.71-19.44-2.131-6.39-1.42-12.34-3.463-17.85-6.126-5.32-2.664-9.68-5.949-13.05-9.855-3.37-4.085-5.06-8.701-5.06-13.851 0-6.215 1.78-11.187 5.33-14.916 3.55-3.907 8.08-5.86 13.58-5.86 4.97 0 9.15 1.598 12.52 4.795 3.55 3.196 5.33 7.369 5.33 12.518 0 2.309-.36 4.351-1.07 6.127-.71 1.598-1.77 3.373-3.19 5.327 1.59 1.598 4.44 2.752 8.52 3.462 4.08.711 8.08 1.066 11.99 1.066 6.21 0 11.01-1.154 14.38-3.463 3.37-2.308 5.06-5.149 5.06-8.523 0-5.327-2.84-9.856-8.52-13.585-5.69-3.906-12.17-7.813-19.45-11.719a556.159 556.159 0 0 1-19.71-11.187c-6.39-4.085-11.81-9.145-16.25-15.183-4.26-6.037-6.39-13.673-6.39-22.907 0-11.72 4.88-21.397 14.65-29.033 9.77-7.635 23.62-11.453 41.55-11.453 12.43 0 22.38 1.598 29.84 4.794 7.45 3.02 12.87 6.926 16.24 11.72 3.38 4.617 5.07 9.5 5.07 14.65 0 5.505-1.78 9.944-5.33 13.318-3.38 3.196-7.55 4.794-12.52 4.794-4.44 0-8.35-1.332-11.72-3.995-3.37-2.841-5.06-6.481-5.06-10.921 0-2.13.35-4.44 1.06-6.925.71-2.486 1.69-4.528 2.93-6.126-1.95-1.599-4.26-2.664-6.92-3.197-2.49-.71-5.51-1.065-9.06-1.065-5.86 0-10.39 1.42-13.58 4.262-3.02 2.663-4.53 5.948-4.53 9.855 0 6.037 2.84 11.009 8.52 14.916 5.86 3.907 12.34 7.724 19.45 11.453a255.289 255.289 0 0 1 19.18 10.921c6.39 3.907 11.72 8.79 15.98 14.65 4.26 5.86 6.39 13.406 6.39 22.64 0 9.944-2.84 17.935-8.52 23.972-5.69 5.86-13.06 10.122-22.11 12.786-8.88 2.663-18.29 3.995-28.24 3.995Z"/><path stroke="#000" stroke-width="2" d="M80.914 213.636c-8.346 0-18.024-.355-29.034-1.065-11.01-.71-24.683-1.066-41.02-1.066C6.953 206.711 5 201.117 5 194.725c6.038 0 10.3-.977 12.785-2.93 2.487-2.131 3.73-5.682 3.73-10.654V55.952c0-4.972-1.243-8.434-3.73-10.388C15.3 43.434 11.038 42.368 5 42.368c0-6.393 1.953-11.986 5.86-16.78 12.608 0 22.641-.09 30.1-.267 7.457-.355 13.761-.621 18.911-.799a479.897 479.897 0 0 1 15.982-.266c15.45 0 28.146 1.42 38.09 4.261 9.944 2.664 17.669 6.215 23.174 10.655 5.682 4.262 9.589 9.056 11.72 14.383 2.308 5.15 3.463 10.3 3.463 15.449 0 9.944-2.575 18.467-7.725 25.57-5.15 7.103-13.851 13.229-26.104 18.379 15.272 3.196 26.37 8.168 33.296 14.916 7.103 6.748 10.655 17.224 10.655 31.43a60.648 60.648 0 0 1-3.463 20.243c-2.309 6.393-6.482 12.164-12.519 17.314-5.86 5.149-14.118 9.233-24.772 12.252-10.655 3.019-24.24 4.528-40.754 4.528ZM73.456 106.56c12.963 0 22.108-2.841 27.435-8.523 5.505-5.683 8.258-13.318 8.258-22.907s-2.664-17.224-7.991-22.907c-5.15-5.682-13.407-8.523-24.772-8.523-1.776 0-3.73.089-5.86.266-1.954.178-3.64.444-5.061.8v61.262c1.243.177 2.575.355 3.995.532h3.996Zm3.196 87.632c24.861 0 37.291-10.743 37.291-32.229 0-12.075-3.107-21.131-9.323-27.169-6.037-6.037-16.16-9.056-30.365-9.056-1.42 0-3.019.089-4.795.266h-3.995v67.389c1.243.178 2.841.355 4.794.533 1.954.177 4.085.266 6.393.266Z" mask="url(#b)"/><path stroke="#000" stroke-opacity=".2" stroke-width="2" d="M80.914 213.636c-8.346 0-18.024-.355-29.034-1.065-11.01-.71-24.683-1.066-41.02-1.066C6.953 206.711 5 201.117 5 194.725c6.038 0 10.3-.977 12.785-2.93 2.487-2.131 3.73-5.682 3.73-10.654V55.952c0-4.972-1.243-8.434-3.73-10.388C15.3 43.434 11.038 42.368 5 42.368c0-6.393 1.953-11.986 5.86-16.78 12.608 0 22.641-.09 30.1-.267 7.457-.355 13.761-.621 18.911-.799a479.897 479.897 0 0 1 15.982-.266c15.45 0 28.146 1.42 38.09 4.261 9.944 2.664 17.669 6.215 23.174 10.655 5.682 4.262 9.589 9.056 11.72 14.383 2.308 5.15 3.463 10.3 3.463 15.449 0 9.944-2.575 18.467-7.725 25.57-5.15 7.103-13.851 13.229-26.104 18.379 15.272 3.196 26.37 8.168 33.296 14.916 7.103 6.748 10.655 17.224 10.655 31.43a60.648 60.648 0 0 1-3.463 20.243c-2.309 6.393-6.482 12.164-12.519 17.314-5.86 5.149-14.118 9.233-24.772 12.252-10.655 3.019-24.24 4.528-40.754 4.528ZM73.456 106.56c12.963 0 22.108-2.841 27.435-8.523 5.505-5.683 8.258-13.318 8.258-22.907s-2.664-17.224-7.991-22.907c-5.15-5.682-13.407-8.523-24.772-8.523-1.776 0-3.73.089-5.86.266-1.954.178-3.64.444-5.061.8v61.262c1.243.177 2.575.355 3.995.532h3.996Zm3.196 87.632c24.861 0 37.291-10.743 37.291-32.229 0-12.075-3.107-21.131-9.323-27.169-6.037-6.037-16.16-9.056-30.365-9.056-1.42 0-3.019.089-4.795.266h-3.995v67.389c1.243.178 2.841.355 4.794.533 1.954.177 4.085.266 6.393.266Z" mask="url(#b)"/><path stroke="#000" stroke-width="2" d="M180.472 211.505c-1.953-1.953-3.463-4.084-4.528-6.392-1.066-2.309-1.598-4.972-1.598-7.991 5.149 0 8.79-1.065 10.92-3.196 2.309-2.309 3.463-6.126 3.463-11.454v-76.977c0-4.617-1.243-7.902-3.729-9.855-2.486-2.131-7.103-3.197-13.851-3.197V80.457c4.262-2.486 9.323-4.617 15.183-6.392 5.86-1.954 11.631-3.463 17.314-4.528 5.682-1.244 10.122-1.865 13.318-1.865 4.084 0 7.014 1.42 8.79 4.262 1.953 2.84 2.93 8.967 2.93 18.379 1.953-3.73 4.794-7.37 8.524-10.921a50.582 50.582 0 0 1 13.051-9.056c4.795-2.309 9.767-3.463 14.917-3.463 8.346 0 14.295 2.13 17.846 6.392 3.552 4.262 5.328 9.767 5.328 16.515 0 7.635-1.954 13.85-5.86 18.645-3.907 4.794-9.323 7.191-16.249 7.191-6.037 0-10.832-1.686-14.383-5.06-3.552-3.552-5.328-7.547-5.328-11.986 0-2.842.267-5.061.799-6.66a45.69 45.69 0 0 0-8.257 2.93c-2.664 1.066-5.327 2.842-7.991 5.328v79.907c0 4.084.622 7.369 1.865 9.855 1.243 2.486 3.64 4.351 7.192 5.594 3.729 1.065 9.234 1.598 16.514 1.598 0 3.019-.355 5.682-1.065 7.991-.711 2.308-2.042 4.439-3.996 6.392h-71.119Z" mask="url(#b)"/><path stroke="#000" stroke-opacity=".2" stroke-width="2" d="M180.472 211.505c-1.953-1.953-3.463-4.084-4.528-6.392-1.066-2.309-1.598-4.972-1.598-7.991 5.149 0 8.79-1.065 10.92-3.196 2.309-2.309 3.463-6.126 3.463-11.454v-76.977c0-4.617-1.243-7.902-3.729-9.855-2.486-2.131-7.103-3.197-13.851-3.197V80.457c4.262-2.486 9.323-4.617 15.183-6.392 5.86-1.954 11.631-3.463 17.314-4.528 5.682-1.244 10.122-1.865 13.318-1.865 4.084 0 7.014 1.42 8.79 4.262 1.953 2.84 2.93 8.967 2.93 18.379 1.953-3.73 4.794-7.37 8.524-10.921a50.582 50.582 0 0 1 13.051-9.056c4.795-2.309 9.767-3.463 14.917-3.463 8.346 0 14.295 2.13 17.846 6.392 3.552 4.262 5.328 9.767 5.328 16.515 0 7.635-1.954 13.85-5.86 18.645-3.907 4.794-9.323 7.191-16.249 7.191-6.037 0-10.832-1.686-14.383-5.06-3.552-3.552-5.328-7.547-5.328-11.986 0-2.842.267-5.061.799-6.66a45.69 45.69 0 0 0-8.257 2.93c-2.664 1.066-5.327 2.842-7.991 5.328v79.907c0 4.084.622 7.369 1.865 9.855 1.243 2.486 3.64 4.351 7.192 5.594 3.729 1.065 9.234 1.598 16.514 1.598 0 3.019-.355 5.682-1.065 7.991-.711 2.308-2.042 4.439-3.996 6.392h-71.119Z" mask="url(#b)"/><path stroke="#000" stroke-width="2" d="M355.632 213.903c-19.889 0-35.782-6.304-47.68-18.912-11.72-12.607-17.58-30.187-17.58-52.739 0-15.448 2.93-28.766 8.79-39.953 5.86-11.365 13.763-20.066 23.707-26.104 10.122-6.037 21.575-9.056 34.361-9.056 15.982 0 28.767 4.706 38.356 14.117 9.767 9.234 14.65 22.286 14.65 39.155 0 6.748-1.154 12.696-3.462 17.846-2.131 4.972-6.659 7.458-13.585 7.458h-57.535c.533 14.028 3.729 23.972 9.589 29.832 6.038 5.86 13.851 8.79 23.441 8.79 6.037 0 11.631-.888 16.781-2.664a57.189 57.189 0 0 0 14.383-7.99c1.598 1.42 2.841 3.64 3.729 6.658 1.066 2.842 1.599 5.239 1.599 7.192 0 2.841-2.043 6.393-6.127 10.654-3.907 4.085-9.589 7.725-17.047 10.921-7.281 3.196-16.071 4.795-26.37 4.795Zm-19.978-88.431h26.903c3.019 0 4.884-1.154 5.594-3.463.888-2.308 1.332-5.15 1.332-8.523 0-11.365-1.421-18.823-4.262-22.374-2.664-3.73-5.86-5.594-9.589-5.594-3.019 0-6.038 1.154-9.057 3.463-3.019 2.308-5.505 6.392-7.458 12.252-1.953 5.682-3.108 13.762-3.463 24.239Z" mask="url(#b)"/><path stroke="#000" stroke-opacity=".2" stroke-width="2" d="M355.632 213.903c-19.889 0-35.782-6.304-47.68-18.912-11.72-12.607-17.58-30.187-17.58-52.739 0-15.448 2.93-28.766 8.79-39.953 5.86-11.365 13.763-20.066 23.707-26.104 10.122-6.037 21.575-9.056 34.361-9.056 15.982 0 28.767 4.706 38.356 14.117 9.767 9.234 14.65 22.286 14.65 39.155 0 6.748-1.154 12.696-3.462 17.846-2.131 4.972-6.659 7.458-13.585 7.458h-57.535c.533 14.028 3.729 23.972 9.589 29.832 6.038 5.86 13.851 8.79 23.441 8.79 6.037 0 11.631-.888 16.781-2.664a57.189 57.189 0 0 0 14.383-7.99c1.598 1.42 2.841 3.64 3.729 6.658 1.066 2.842 1.599 5.239 1.599 7.192 0 2.841-2.043 6.393-6.127 10.654-3.907 4.085-9.589 7.725-17.047 10.921-7.281 3.196-16.071 4.795-26.37 4.795Zm-19.978-88.431h26.903c3.019 0 4.884-1.154 5.594-3.463.888-2.308 1.332-5.15 1.332-8.523 0-11.365-1.421-18.823-4.262-22.374-2.664-3.73-5.86-5.594-9.589-5.594-3.019 0-6.038 1.154-9.057 3.463-3.019 2.308-5.505 6.392-7.458 12.252-1.953 5.682-3.108 13.762-3.463 24.239Z" mask="url(#b)"/><path stroke="#000" stroke-width="2" d="M462.121 213.37 425.896 99.901c-1.598-4.794-3.463-8.257-5.594-10.388-1.953-2.308-5.238-3.462-9.855-3.462 0-2.841.444-5.683 1.331-8.524.888-3.018 2.309-5.505 4.262-7.458h59.932c1.954 1.953 3.463 4.44 4.529 7.458 1.065 2.841 1.598 5.683 1.598 8.524-3.552 0-6.571.976-9.057 2.93-2.308 1.953-3.462 4.972-3.462 9.056 0 .71.088 1.598.266 2.663a24.81 24.81 0 0 1 .799 2.93l6.926 36.225 7.99 37.557 11.721-37.557 7.724-27.701c2.131-8.346 4.439-15.36 6.926-21.042 2.663-5.86 7.191-8.79 13.584-8.79h20.51l13.851 57.267 11.72 36.757 5.86-36.757 8.79-37.557c.711-2.663 1.066-5.06 1.066-7.191 0-5.86-3.552-8.79-10.655-8.79 0-2.841.355-5.683 1.066-8.524.71-3.018 2.042-5.505 3.995-7.458h50.876c2.131 1.953 3.551 4.44 4.262 7.458a35.04 35.04 0 0 1 1.065 8.524c-4.972 0-8.879.888-11.72 2.663-2.664 1.599-4.706 4.795-6.126 9.59l-23.707 86.033c-1.776 6.925-3.64 12.519-5.593 16.78-1.954 4.262-4.529 7.37-7.725 9.323-3.019 1.953-7.458 2.93-13.318 2.93H548.69l-25.038-79.908-14.384 51.408c-2.309 8.701-4.706 15.36-7.192 19.976-2.486 4.44-6.748 7.192-12.785 8.258v.266h-27.17Z" mask="url(#b)"/><path stroke="#000" stroke-opacity=".2" stroke-width="2" d="M462.121 213.37 425.896 99.901c-1.598-4.794-3.463-8.257-5.594-10.388-1.953-2.308-5.238-3.462-9.855-3.462 0-2.841.444-5.683 1.331-8.524.888-3.018 2.309-5.505 4.262-7.458h59.932c1.954 1.953 3.463 4.44 4.529 7.458 1.065 2.841 1.598 5.683 1.598 8.524-3.552 0-6.571.976-9.057 2.93-2.308 1.953-3.462 4.972-3.462 9.056 0 .71.088 1.598.266 2.663a24.81 24.81 0 0 1 .799 2.93l6.926 36.225 7.99 37.557 11.721-37.557 7.724-27.701c2.131-8.346 4.439-15.36 6.926-21.042 2.663-5.86 7.191-8.79 13.584-8.79h20.51l13.851 57.267 11.72 36.757 5.86-36.757 8.79-37.557c.711-2.663 1.066-5.06 1.066-7.191 0-5.86-3.552-8.79-10.655-8.79 0-2.841.355-5.683 1.066-8.524.71-3.018 2.042-5.505 3.995-7.458h50.876c2.131 1.953 3.551 4.44 4.262 7.458a35.04 35.04 0 0 1 1.065 8.524c-4.972 0-8.879.888-11.72 2.663-2.664 1.599-4.706 4.795-6.126 9.59l-23.707 86.033c-1.776 6.925-3.64 12.519-5.593 16.78-1.954 4.262-4.529 7.37-7.725 9.323-3.019 1.953-7.458 2.93-13.318 2.93H548.69l-25.038-79.908-14.384 51.408c-2.309 8.701-4.706 15.36-7.192 19.976-2.486 4.44-6.748 7.192-12.785 8.258v.266h-27.17Z" mask="url(#b)"/><path stroke="#000" stroke-width="2" d="M755.12 213.104c-8.701 0-15.36-1.332-19.977-3.996-4.617-2.663-6.925-6.925-6.925-12.785v-85.767c0-5.683-1.598-10.033-4.795-13.052-3.196-3.196-7.369-4.794-12.519-4.794-3.374 0-7.014 1.154-10.921 3.462-3.729 2.131-6.57 5.061-8.524 8.79v77.777c0 5.149 1.066 8.878 3.197 11.187 2.308 2.131 6.126 3.196 11.453 3.196 0 5.505-2.042 10.299-6.126 14.383h-58.867c-4.084-4.084-6.126-8.878-6.126-14.383 5.327 0 9.056-1.065 11.187-3.196 2.309-2.309 3.463-6.038 3.463-11.187V38.373c0-4.084-1.154-7.28-3.463-9.59-2.308-2.308-7.103-3.462-14.383-3.462v-10.92c4.439-2.309 9.589-4.44 15.449-6.393 6.037-1.953 11.986-3.463 17.846-4.528 6.038-1.243 11.01-1.865 14.917-1.865 4.084 0 7.014.977 8.79 2.93 1.775 1.776 2.663 4.883 2.663 9.323V66.34l-.532 21.309c4.617-5.86 10.565-10.832 17.846-14.916 7.281-4.084 15.538-6.126 24.772-6.126 25.216 0 37.824 13.14 37.824 39.421v74.58c0 9.056 4.262 14.383 12.785 15.981l.267 7.725c-6.393 5.86-16.16 8.79-29.301 8.79Z" mask="url(#b)"/><path stroke="#000" stroke-opacity=".2" stroke-width="2" d="M755.12 213.104c-8.701 0-15.36-1.332-19.977-3.996-4.617-2.663-6.925-6.925-6.925-12.785v-85.767c0-5.683-1.598-10.033-4.795-13.052-3.196-3.196-7.369-4.794-12.519-4.794-3.374 0-7.014 1.154-10.921 3.462-3.729 2.131-6.57 5.061-8.524 8.79v77.777c0 5.149 1.066 8.878 3.197 11.187 2.308 2.131 6.126 3.196 11.453 3.196 0 5.505-2.042 10.299-6.126 14.383h-58.867c-4.084-4.084-6.126-8.878-6.126-14.383 5.327 0 9.056-1.065 11.187-3.196 2.309-2.309 3.463-6.038 3.463-11.187V38.373c0-4.084-1.154-7.28-3.463-9.59-2.308-2.308-7.103-3.462-14.383-3.462v-10.92c4.439-2.309 9.589-4.44 15.449-6.393 6.037-1.953 11.986-3.463 17.846-4.528 6.038-1.243 11.01-1.865 14.917-1.865 4.084 0 7.014.977 8.79 2.93 1.775 1.776 2.663 4.883 2.663 9.323V66.34l-.532 21.309c4.617-5.86 10.565-10.832 17.846-14.916 7.281-4.084 15.538-6.126 24.772-6.126 25.216 0 37.824 13.14 37.824 39.421v74.58c0 9.056 4.262 14.383 12.785 15.981l.267 7.725c-6.393 5.86-16.16 8.79-29.301 8.79Z" mask="url(#b)"/><path stroke="#000" stroke-width="2" d="M839.454 213.37c-13.318 0-24.15-3.64-32.496-10.921-8.169-7.458-12.253-16.958-12.253-28.5 0-11.542 3.729-20.865 11.187-27.968 7.636-7.103 19.356-10.654 35.16-10.654 5.15 0 10.566.533 16.248 1.598 5.683.888 10.3 2.309 13.851 4.262v-35.426c0-7.458-1.953-12.607-5.86-15.448-3.729-3.02-8.346-4.529-13.851-4.529-5.86 0-10.654 1.421-14.383 4.262 3.551 1.243 6.126 3.196 7.724 5.86 1.599 2.486 2.398 5.238 2.398 8.257 0 5.86-2.131 10.566-6.393 14.117-4.084 3.374-9.145 5.061-15.183 5.061-6.748 0-12.164-1.953-16.248-5.86-4.084-4.084-6.127-9.145-6.127-15.182 0-6.038 2.043-11.72 6.127-17.047 4.084-5.505 10.388-10.033 18.912-13.585 8.701-3.551 19.888-5.327 33.562-5.327 35.693 0 53.539 14.117 53.539 42.351v70.585c0 8.524 4.084 13.673 12.253 15.449v8.523c-2.309 3.374-6.215 5.949-11.72 7.725-5.505 1.598-10.832 2.397-15.982 2.397-12.075 0-20.599-4.173-25.571-12.519-3.552 3.196-8.257 6.126-14.118 8.79-5.86 2.486-12.785 3.729-20.776 3.729Zm17.314-21.575c2.486 0 5.061-.355 7.724-1.066 2.664-.887 4.884-1.953 6.659-3.196v-25.837c-1.775-1.243-4.084-2.308-6.925-3.196-2.664-.888-5.327-1.332-7.991-1.332-4.617 0-8.612 1.51-11.986 4.528-3.374 2.842-5.061 7.37-5.061 13.585 0 4.794 1.598 8.789 4.794 11.986 3.197 3.019 7.458 4.528 12.786 4.528Z" mask="url(#b)"/><path stroke="#000" stroke-opacity=".2" stroke-width="2" d="M839.454 213.37c-13.318 0-24.15-3.64-32.496-10.921-8.169-7.458-12.253-16.958-12.253-28.5 0-11.542 3.729-20.865 11.187-27.968 7.636-7.103 19.356-10.654 35.16-10.654 5.15 0 10.566.533 16.248 1.598 5.683.888 10.3 2.309 13.851 4.262v-35.426c0-7.458-1.953-12.607-5.86-15.448-3.729-3.02-8.346-4.529-13.851-4.529-5.86 0-10.654 1.421-14.383 4.262 3.551 1.243 6.126 3.196 7.724 5.86 1.599 2.486 2.398 5.238 2.398 8.257 0 5.86-2.131 10.566-6.393 14.117-4.084 3.374-9.145 5.061-15.183 5.061-6.748 0-12.164-1.953-16.248-5.86-4.084-4.084-6.127-9.145-6.127-15.182 0-6.038 2.043-11.72 6.127-17.047 4.084-5.505 10.388-10.033 18.912-13.585 8.701-3.551 19.888-5.327 33.562-5.327 35.693 0 53.539 14.117 53.539 42.351v70.585c0 8.524 4.084 13.673 12.253 15.449v8.523c-2.309 3.374-6.215 5.949-11.72 7.725-5.505 1.598-10.832 2.397-15.982 2.397-12.075 0-20.599-4.173-25.571-12.519-3.552 3.196-8.257 6.126-14.118 8.79-5.86 2.486-12.785 3.729-20.776 3.729Zm17.314-21.575c2.486 0 5.061-.355 7.724-1.066 2.664-.887 4.884-1.953 6.659-3.196v-25.837c-1.775-1.243-4.084-2.308-6.925-3.196-2.664-.888-5.327-1.332-7.991-1.332-4.617 0-8.612 1.51-11.986 4.528-3.374 2.842-5.061 7.37-5.061 13.585 0 4.794 1.598 8.789 4.794 11.986 3.197 3.019 7.458 4.528 12.786 4.528Z" mask="url(#b)"/><path stroke="#000" stroke-width="2" d="M987.366 213.37c-12.431 0-22.109-3.818-29.034-11.454-6.926-7.635-10.388-17.934-10.388-30.897V97.77c0-3.018-1.155-5.15-3.463-6.392-2.309-1.243-5.505-1.865-9.589-1.865v-11.72c2.308-1.953 7.103-3.995 14.383-6.126 7.459-2.308 15.805-3.462 25.039-3.462 6.925 0 11.453.799 13.584 2.397 2.309 1.598 3.463 5.505 3.463 11.72v89.496c0 5.327.888 9.411 2.664 12.252 1.775 2.842 4.883 4.262 9.325 4.262 3.73 0 7.28-1.154 10.65-3.462 3.55-2.309 6.48-4.972 8.79-7.991V97.771c0-3.02-1.33-5.15-3.99-6.393-2.67-1.243-6.31-1.865-10.92-1.865v-11.72c2.48-1.953 7.36-3.995 14.65-6.126 7.28-2.308 15.89-3.462 25.83-3.462 6.93 0 11.63.799 14.12 2.397 2.49 1.598 3.73 5.505 3.73 11.72v98.019c0 4.262 1.06 7.814 3.2 10.655 2.3 2.841 5.5 4.439 9.58 4.794v7.458c-2.84 3.374-7.36 5.949-13.58 7.725-6.04 1.598-11.9 2.397-17.58 2.397-5.86 0-11.01-1.509-15.45-4.528-4.26-3.196-7.1-7.725-8.52-13.584-8.7 12.074-20.87 18.112-36.494 18.112Z" mask="url(#b)"/><path stroke="#000" stroke-opacity=".2" stroke-width="2" d="M987.366 213.37c-12.431 0-22.109-3.818-29.034-11.454-6.926-7.635-10.388-17.934-10.388-30.897V97.77c0-3.018-1.155-5.15-3.463-6.392-2.309-1.243-5.505-1.865-9.589-1.865v-11.72c2.308-1.953 7.103-3.995 14.383-6.126 7.459-2.308 15.805-3.462 25.039-3.462 6.925 0 11.453.799 13.584 2.397 2.309 1.598 3.463 5.505 3.463 11.72v89.496c0 5.327.888 9.411 2.664 12.252 1.775 2.842 4.883 4.262 9.325 4.262 3.73 0 7.28-1.154 10.65-3.462 3.55-2.309 6.48-4.972 8.79-7.991V97.771c0-3.02-1.33-5.15-3.99-6.393-2.67-1.243-6.31-1.865-10.92-1.865v-11.72c2.48-1.953 7.36-3.995 14.65-6.126 7.28-2.308 15.89-3.462 25.83-3.462 6.93 0 11.63.799 14.12 2.397 2.49 1.598 3.73 5.505 3.73 11.72v98.019c0 4.262 1.06 7.814 3.2 10.655 2.3 2.841 5.5 4.439 9.58 4.794v7.458c-2.84 3.374-7.36 5.949-13.58 7.725-6.04 1.598-11.9 2.397-17.58 2.397-5.86 0-11.01-1.509-15.45-4.528-4.26-3.196-7.1-7.725-8.52-13.584-8.7 12.074-20.87 18.112-36.494 18.112Z" mask="url(#b)"/><path stroke="#000" stroke-width="2" d="M1146.13 214.169c-6.39 0-12.87-.71-19.44-2.131-6.39-1.42-12.34-3.463-17.85-6.126-5.32-2.664-9.68-5.949-13.05-9.855-3.37-4.085-5.06-8.701-5.06-13.851 0-6.215 1.78-11.187 5.33-14.916 3.55-3.907 8.08-5.86 13.58-5.86 4.97 0 9.15 1.598 12.52 4.795 3.55 3.196 5.33 7.369 5.33 12.518 0 2.309-.36 4.351-1.07 6.127-.71 1.598-1.77 3.373-3.19 5.327 1.59 1.598 4.44 2.752 8.52 3.462 4.08.711 8.08 1.066 11.99 1.066 6.21 0 11.01-1.154 14.38-3.463 3.37-2.308 5.06-5.149 5.06-8.523 0-5.327-2.84-9.856-8.52-13.585-5.69-3.906-12.17-7.813-19.45-11.719a556.159 556.159 0 0 1-19.71-11.187c-6.39-4.085-11.81-9.145-16.25-15.183-4.26-6.037-6.39-13.673-6.39-22.907 0-11.72 4.88-21.397 14.65-29.033 9.77-7.635 23.62-11.453 41.55-11.453 12.43 0 22.38 1.598 29.84 4.794 7.45 3.02 12.87 6.926 16.24 11.72 3.38 4.617 5.07 9.5 5.07 14.65 0 5.505-1.78 9.944-5.33 13.318-3.38 3.196-7.55 4.794-12.52 4.794-4.44 0-8.35-1.332-11.72-3.995-3.37-2.841-5.06-6.481-5.06-10.921 0-2.13.35-4.44 1.06-6.925.71-2.486 1.69-4.528 2.93-6.126-1.95-1.599-4.26-2.664-6.92-3.197-2.49-.71-5.51-1.065-9.06-1.065-5.86 0-10.39 1.42-13.58 4.262-3.02 2.663-4.53 5.948-4.53 9.855 0 6.037 2.84 11.009 8.52 14.916 5.86 3.907 12.34 7.724 19.45 11.453a255.289 255.289 0 0 1 19.18 10.921c6.39 3.907 11.72 8.79 15.98 14.65 4.26 5.86 6.39 13.406 6.39 22.64 0 9.944-2.84 17.935-8.52 23.972-5.69 5.86-13.06 10.122-22.11 12.786-8.88 2.663-18.29 3.995-28.24 3.995Z" mask="url(#b)"/><path stroke="#000" stroke-opacity=".2" stroke-width="2" d="M1146.13 214.169c-6.39 0-12.87-.71-19.44-2.131-6.39-1.42-12.34-3.463-17.85-6.126-5.32-2.664-9.68-5.949-13.05-9.855-3.37-4.085-5.06-8.701-5.06-13.851 0-6.215 1.78-11.187 5.33-14.916 3.55-3.907 8.08-5.86 13.58-5.86 4.97 0 9.15 1.598 12.52 4.795 3.55 3.196 5.33 7.369 5.33 12.518 0 2.309-.36 4.351-1.07 6.127-.71 1.598-1.77 3.373-3.19 5.327 1.59 1.598 4.44 2.752 8.52 3.462 4.08.711 8.08 1.066 11.99 1.066 6.21 0 11.01-1.154 14.38-3.463 3.37-2.308 5.06-5.149 5.06-8.523 0-5.327-2.84-9.856-8.52-13.585-5.69-3.906-12.17-7.813-19.45-11.719a556.159 556.159 0 0 1-19.71-11.187c-6.39-4.085-11.81-9.145-16.25-15.183-4.26-6.037-6.39-13.673-6.39-22.907 0-11.72 4.88-21.397 14.65-29.033 9.77-7.635 23.62-11.453 41.55-11.453 12.43 0 22.38 1.598 29.84 4.794 7.45 3.02 12.87 6.926 16.24 11.72 3.38 4.617 5.07 9.5 5.07 14.65 0 5.505-1.78 9.944-5.33 13.318-3.38 3.196-7.55 4.794-12.52 4.794-4.44 0-8.35-1.332-11.72-3.995-3.37-2.841-5.06-6.481-5.06-10.921 0-2.13.35-4.44 1.06-6.925.71-2.486 1.69-4.528 2.93-6.126-1.95-1.599-4.26-2.664-6.92-3.197-2.49-.71-5.51-1.065-9.06-1.065-5.86 0-10.39 1.42-13.58 4.262-3.02 2.663-4.53 5.948-4.53 9.855 0 6.037 2.84 11.009 8.52 14.916 5.86 3.907 12.34 7.724 19.45 11.453a255.289 255.289 0 0 1 19.18 10.921c6.39 3.907 11.72 8.79 15.98 14.65 4.26 5.86 6.39 13.406 6.39 22.64 0 9.944-2.84 17.935-8.52 23.972-5.69 5.86-13.06 10.122-22.11 12.786-8.88 2.663-18.29 3.995-28.24 3.995Z" mask="url(#b)"/></g><defs><filter id="a" width="1210" height="222.554" x="0" y=".615" color-interpolation-filters="sRGB" filterUnits="userSpaceOnUse"><feFlood flood-opacity="0" result="BackgroundImageFix"/><feColorMatrix in="SourceAlpha" result="hardAlpha" values="0 0 0 0 0 0 0 0 0 0 0 0 0 0 0 0 0 0 127 0"/><feOffset dy="4"/><feGaussianBlur stdDeviation="2"/><feComposite in2="hardAlpha" operator="out"/><feColorMatrix values="0 0 0 0 0 0 0 0 0 0 0 0 0 0 0 0 0 0 0.25 0"/><feBlend in2="BackgroundImageFix" result="effect1_dropShadow_4276_5165"/><feBlend in="SourceGraphic" in2="effect1_dropShadow_4276_5165" result="shape"/></filter></defs></svg>