<svg xmlns="http://www.w3.org/2000/svg" width="16" height="16" fill="none"><path fill="#1D4E1A" d="M7.999 1.842c2.006 0 2.244.008 3.033.044.733.032 1.13.155 1.393.258.35.135.602.3.863.56.264.264.425.514.56.863.103.264.226.663.258 1.393.036.792.044 1.03.044 3.034 0 2.006-.008 2.244-.043 3.033-.033.734-.156 1.13-.259 1.394-.135.349-.299.601-.56.862a2.31 2.31 0 0 1-.863.56c-.264.103-.663.226-1.393.259-.792.035-1.03.044-3.033.044-2.007 0-2.245-.01-3.034-.044-.733-.033-1.13-.156-1.393-.259-.35-.134-.602-.299-.863-.56a2.31 2.31 0 0 1-.56-.862c-.103-.264-.226-.663-.258-1.394-.036-.792-.044-1.03-.044-3.033 0-2.007.008-2.245.044-3.034.032-.733.155-1.13.258-1.393.135-.35.299-.602.56-.863a2.31 2.31 0 0 1 .863-.56c.264-.103.663-.226 1.393-.258.79-.036 1.027-.044 3.034-.044Zm0-1.353c-2.04 0-2.295.01-3.095.044-.798.035-1.347.165-1.822.35a3.666 3.666 0 0 0-1.332.868A3.68 3.68 0 0 0 .88 3.08C.697 3.558.567 4.104.532 4.902.497 5.705.488 5.96.488 8c0 2.038.01 2.294.044 3.095.035.797.165 1.346.35 1.821.193.496.448.916.868 1.332.416.417.836.675 1.329.866.478.185 1.024.314 1.822.349.8.035 1.056.044 3.095.044 2.038 0 2.294-.009 3.095-.044.798-.035 1.346-.164 1.822-.35a3.67 3.67 0 0 0 1.329-.865c.416-.416.674-.836.865-1.329.185-.478.314-1.024.349-1.822.035-.8.044-1.056.044-3.095 0-2.038-.009-2.294-.044-3.095-.035-.798-.164-1.346-.35-1.821a3.518 3.518 0 0 0-.859-1.335 3.672 3.672 0 0 0-1.329-.866C12.44.7 11.895.571 11.097.536 10.293.498 10.037.49 7.999.49Z"/><path fill="#1D4E1A" d="M7.999 4.142a3.859 3.859 0 0 0 0 7.715 3.859 3.859 0 0 0 0-7.715Zm0 6.36a2.503 2.503 0 1 1 0-5.006 2.503 2.503 0 0 1 0 5.006ZM12.91 3.99a.9.9 0 1 1-1.802-.001.9.9 0 0 1 1.802 0Z"/></svg>