<svg xmlns="http://www.w3.org/2000/svg" width="24" height="24" fill="none"><path fill="#FFECB8" d="M20.485 7.204c-.042-.057-.084-.128-.084-.199-.21-2.444-.561-4.078-.561-4.078a.675.675 0 0 0-.561-.526l-1.936-.241h-.056a.41.41 0 0 0-.406.412v.682c0 .014-.015.028-.029.028h-.014A27.574 27.574 0 0 0 12.94.298 1.724 1.724 0 0 0 11.986 0c-.35 0-.687.114-.954.298C4.371 4.462.696 11.254.556 11.623a.644.644 0 0 0-.056.285c0 .312.21.582.505.653l1.921.37a.668.668 0 0 1 .477.568c.014.341.379 8.014.842 10.004.07.284.336.497.645.497h.014c1.122-.028 2.145-.043 3.253-.057h.098c.113 0 .21-.1.21-.213-.041-.668-.14-2.203-.224-3.808 0-.043 0-.085-.014-.128a.424.424 0 0 0-.196-.327 2.14 2.14 0 0 1-1.01-1.69c-.098-2.686-.154-5.798 0-8.228.014-.2.183-.37.379-.37.21 0 .393.17.393.384v.028c-.098 1.62-.098 3.539-.07 5.429 0 .255.21.454.462.454a.458.458 0 0 0 .45-.469c-.029-1.904-.029-3.836.07-5.456.013-.2.182-.37.378-.37.21 0 .393.17.393.384v.028c-.099 1.62-.099 3.525-.07 5.4 0 .256.21.455.462.455a.458.458 0 0 0 .45-.47c-.029-1.889-.029-3.822.07-5.441.013-.2.181-.37.378-.37.21 0 .393.17.393.384v.028c-.14 2.36-.099 5.357 0 7.986v.1c0 .724-.351 1.35-.898 1.733a.366.366 0 0 0-.168.299s-.042.397.126 2.358c.084.853.14 1.45.168 1.705.014.1.098.185.197.185H13.5l1.094.014c.098 0 .182-.085.21-.184.252-2.345.308-3.652.308-3.652a.23.23 0 0 0-.21-.228l-1.318-.213c-.21-.042-.337-.17-.379-.326-.028-.1-.014-.214-.014-.214.533-7.8 3.071-10.444 3.071-10.444.07-.07.127-.113.127-.113a.485.485 0 0 1 .238-.086.42.42 0 0 1 .379.256s.014.057.028.185c.224 2.458.112 6.636-.028 9.89a225.78 225.78 0 0 1-.253 4.93c0 .086.07.157.154.157l2.188.042h.014c.309 0 .561-.213.646-.497.462-1.99.813-9.663.841-10.004a.668.668 0 0 1 .477-.568l1.921-.37a.684.684 0 0 0 .505-.653c0-.1-.028-.199-.056-.284-.098-.156-1.094-2.032-2.96-4.377Z"/></svg>