<svg xmlns="http://www.w3.org/2000/svg" width="40" height="40" fill="none"><g clip-path="url(#a)"><rect width="40" height="40" fill="#FFECB8" rx="20"/><path fill="#1D4E1A" fill-rule="evenodd" d="M13.5 14a.928.928 0 0 0-.862.583l-1.56 3.9h17.844l-1.56-3.9A.929.929 0 0 0 26.5 14h-13Zm-.917 25.213-1.4-9.097h17.635l-1.4 9.097A.928.928 0 0 1 26.5 40h-13a.928.928 0 0 1-.917-.787Zm-1.653-18.41h18.142c1.114 0 2.015.783 2.015 1.75v3.494c0 .966-.902 1.746-2.015 1.746H10.928c-1.114 0-2.015-.78-2.015-1.746v-3.495c0-.966.904-1.75 2.017-1.75Z" clip-rule="evenodd"/></g><defs><clipPath id="a"><rect width="40" height="40" fill="#fff" rx="20"/></clipPath></defs></svg>