<svg xmlns="http://www.w3.org/2000/svg" width="42" height="14" fill="none"><path fill="#FFECB8" d="M41.495 5.56V3.796h-.702c-1.114 0-1.94.49-2.436 1.258V3.867H36.36v9.58h2.015V8.005c0-1.488.958-2.445 2.28-2.445h.841Zm-14.5 2.215c.363-1.463 1.618-2.444 3.113-2.444 1.494 0 2.758.973 3.097 2.444h-6.21Zm3.154-4.09c-2.973 0-5.235 2.27-5.235 4.976 0 2.856 2.353 5 5.417 5 1.858 0 3.377-.768 4.393-2.05L33.262 10.6c-.76.957-1.759 1.408-2.94 1.408-1.717 0-3.096-1.162-3.377-2.72h8.29v-.618c.01-2.863-2.146-4.983-5.086-4.983Zm-11.528 8.322c-1.957 0-3.518-1.487-3.518-3.322 0-1.859 1.578-3.322 3.518-3.322 1.916 0 3.493 1.463 3.493 3.322.009 1.835-1.569 3.322-3.493 3.322Zm-5.491 1.448h1.998v-1.202c.917.886 2.221 1.424 3.634 1.424 2.997 0 5.35-2.24 5.35-5 0-2.777-2.353-5.015-5.35-5.015-1.42 0-2.7.546-3.617 1.424V.3H13.13v13.155Zm-7.094-1.543c1.94 0 3.436-1.408 3.436-3.496V.3h2.097v13.147H9.49V12.23c-.942.918-2.239 1.448-3.7 1.448-2.998 0-5.294-2.05-5.294-5.15V.3h2.106v8.116c0 2.128 1.478 3.496 3.435 3.496Z"/></svg>