<svg xmlns="http://www.w3.org/2000/svg" width="18" height="24" fill="none"><path fill="#FFECB8" fill-rule="evenodd" d="M10.361 1.089C7.935 2.32 2.466 8.407.682 11.817c-1.075 2.059-.944 2.177 2.532 2.373l2.478.145c-4.498 7.868-4.04 7.03-4.078 7.108-.984 1.692.354 2.82 1.77 1.495.013-.013 12.17-9.456 14.348-12.59.249-.354.183-.761-.368-1.168-.905-.668-2.124-.878-6.57-1.245-.695-.053-1.01-.132-.957-.236.327-.8 1.586-4.158 2.19-5.47.708-1.534.642-2.32-1.666-1.14Zm-.905 2.937c-.118.276-1.574 3.764-1.64 3.909-.34.682-.117 1.036.735 1.127 2.833.302 3.96.407 5.102.46 1.888.091 1.902.013-.092 2.02-2.124 2.15-7.554 7.134-7.672 7.016-.105-.105 1.64-3.437 2.111-4.053.853-1.115.59-1.272-2.124-1.272-1.22 0-1.98-.026-2.558-.066a.746.746 0 0 1-.603-1.101c.984-1.797 2.741-4.04 5.666-7.253 1.337-1.442 1.364-1.469 1.075-.787Z" clip-rule="evenodd"/></svg>