<svg xmlns="http://www.w3.org/2000/svg" width="30" height="28" fill="none"><path fill="#FFECB8" d="M28.749 11.304c-4.67-4.6-8.52-7.98-11.047-9.514-2.125-1.289-3.815-1.48-5.837.088-2.143 1.672-5.087 4.686-8.624 7.7-4.443 3.8-3.328 6.813-.279 7.11l1.394.139c.052 1.08.279 7.37.418 8.293.052.384 0 .82-.14.959-1.027 1.028 2.37 1.376 8.887.923 12.405-.87 13.398-1.028 12.527-2.003-.313-.349-.035-8.939-.035-8.939l.784-.261c2.875-.923 3.677-2.805 1.952-4.495ZM13.05 25.05c-.244-1.917-.557-4.53-.052-6.029.767-1.568 2.038-2.056 3.24-1.272 1.08.715 1.5 1.952 1.517 4.548l.017 2.352c0-.017-3.729.279-4.722.4Zm10.646-.593-4.007.105s-.035-1.098-.14-2.614c-.244-3.955-1.376-5.366-4.32-5.349-3.642.018-4.688 1.97-3.956 7.423l.157 1.167H7.7l-.68-8.032c-.156-1.83.332-2.457 5.054-6.656 3.031-2.683 2.404-2.579 4.408-.767 1.428 1.29 7.196 6.273 7.196 6.273v8.45h.017Zm2.579-10.088c-.906.906-1.655.506-5.262-2.892-6.726-6.307-5.768-6.273-11.883-.383-2.021 1.933-3.206 3.066-3.973 3.658-1.603 1.22-2.7-.644-1.83-1.968.646-.993 2.214-2.579 5.28-5.715 5.593-5.733 5.68-5.802 6.987-4.81.349.262 1.655 1.447 2.875 2.614.017.018 7.335 6.76 7.475 6.883 1.062.906 1.167 1.777.33 2.613Z"/><path fill="#FFECB8" d="M13.242 10.798c-1.429.628-1.777 2.806-.61 3.903 1.168 1.098 4.025.784 4.826-.523 1.516-2.474-1.237-4.669-4.216-3.38Zm2.596.906c.94.662.226 2.562-.976 2.562-1.045 0-1.15-1.865-.157-2.631.47-.366.523-.349 1.133.07Z"/></svg>