<svg xmlns="http://www.w3.org/2000/svg" width="28" height="28" fill="none"><path fill="#FFECB8" d="m27.013 10.299-.557-1.88.627-.817c2.314-3.045-1.984-7.813-5.395-5.986-.365.191-.8.209-1.427.052-1.148-.296-4.907-.922-5.672-1.01-2.541-.312-1.845.923-.749 1.027 2.471.261 2.419.122 1.758.818-1.027 1.097-.14 5.377 1.496 7.24 1.48 1.687 5.064 2.592 6.178 1.548 2.21-2.088 1.6 7.587-.679 10.545-7.1 9.24-22.065.33-19.367-11.537l.313-1.392 1.287.853c2.245 1.496 3.167.748 1.445-1.166-2.82-3.115-1.862-7.083 1.096-4.56.992.853 2.21.975 2.715.296 1.496-2.053 2.383-1.322 2.366.87 0 1.184-.557 1.984-2.836 4.107-2.001 1.862-2.088 2.489-.348 2.489 1.166 0 4.942-4.473 5.272-6.23.47-2.471-2.87-4.49-4.855-2.94-.452.365-.73.434-.904.26-.174-.174-.14-.487.417-.8.557-.314 1.41-.557 1.218-1.08-.26-.695-2.192.21-2.453.366-.261.14-1.201.748-2.001.748-2.75 0-3.794.836-3.568 2.837.122 1.114.053 1.427-.574 2.54-4.89 8.666 1.723 19.611 11.972 19.82 10.423.244 16.148-7.152 13.225-17.018Zm-3.515-1.81c-1.88 2.088-2.158 2.175-3.707 1.27-1.235-.73-2.244-2.627-2.453-4.628-.209-2.106.87-2.663 2.714-1.41l.905.627.905-.592c2.593-1.723 6.004-.104 1.636 4.733Z"/><path fill="#FFECB8" d="M5.418 14.18c.122.365.383 1.583.592 2.714 1.549 8.44 15.087 8.283 15.783-.174.087-1.044.278-1.966.417-2.053 1.218-.783-2.036-1.827-4.333-1.375-.713.14-3.445.174-6.699.087-6.02-.174-6.056-.174-5.76.8Zm14.756.574v1.287c0 4.786-8.544 7.413-11.38 3.48-.974-1.34-.957-2.157-1.096-4.68 8.004-.261 8.196-.226 12.476-.087Z"/></svg>