<svg xmlns="http://www.w3.org/2000/svg" width="18" height="18" fill="none"><path fill="#FFECB8" fill-rule="evenodd" d="M4.076.467C1.208 1.36-.163 4.857.706 9.033c.276 1.32 1.37 1.358 2.704.528 1.408-.893 3.069-2.767 4.289-5.17C9.007 1.787 6.957-.439 4.076.467Zm1.346 1.157c1.422.843 1.057 2.29-1.32 5.069L2.717 8.316l-.038-1.22C2.567 3.234 3.837.68 5.422 1.624Zm6.818 1.182c-1.95.906-4.931 4.78-4.931 6.415 0 1.07.767 1.032 4.54-.226 2.982-.994 4.416-1.56 5.057-2.352 2.126-2.604-1.471-5.321-4.666-3.837Zm2.943 1.183c.667 1.018-.968 3.12-2.918 3.76-1.598.529-2.692.818-2.579.655.063-.076.453-.592.868-1.145 1.962-2.604 4.088-4.1 4.63-3.27Zm-7.446 7.798c-2.755.478-3.749 2.365-.44 3.497.578.201 1.823.78 2.767 1.283 2.754 1.497 4.125 1.522 5.283.113.893-1.081.666-2.817-.189-4.1-2.1-3.157-5.937-1.057-7.421-.793Zm6.364 1.296c.717.365.692 1.195-.063 2.038-1.018 1.132-1.874 1.069-4.301-.327l-1.761-1.007c.276-.05 1.27-.214 2.93-.604 1.522-.377 2.592-.402 3.195-.1Z" clip-rule="evenodd"/></svg>