<svg xmlns="http://www.w3.org/2000/svg" width="24" height="22" fill="none"><path fill="#1D4E1A" d="m22.41 8.04-.445-1.504.501-.655c1.851-2.436-1.587-6.25-4.316-4.788-.292.153-.64.167-1.141.041-.919-.236-3.926-.737-4.538-.807-2.033-.25-1.476.738-.599.821 1.977.21 1.935.098 1.406.655-.821.877-.111 4.301 1.197 5.79 1.184 1.351 4.051 2.075 4.942 1.24 1.768-1.67 1.281 6.07-.543 8.436-5.68 7.392-17.651.264-15.494-9.23l.251-1.114 1.03.683c1.796 1.197 2.534.598 1.156-.933-2.256-2.492-1.49-5.666.877-3.647.793.682 1.768.78 2.171.236 1.197-1.642 1.907-1.058 1.893.696 0 .947-.445 1.587-2.269 3.286-1.6 1.49-1.67 1.99-.278 1.99.933 0 3.954-3.577 4.218-4.983C12.805 2.276 10.132.66 8.545 1.9c-.362.292-.585.348-.724.209-.139-.14-.111-.39.334-.64.446-.251 1.128-.446.975-.864C8.92.05 7.376.772 7.167.898c-.209.111-.96.598-1.601.598-2.2 0-3.035.669-2.854 2.27.098.89.042 1.14-.46 2.032-3.91 6.932 1.379 15.689 9.578 15.856 8.34.195 12.919-5.722 10.58-13.615ZM19.598 6.59c-1.503 1.67-1.726 1.74-2.965 1.017-.988-.585-1.796-2.102-1.963-3.703-.167-1.685.696-2.13 2.172-1.128l.724.501.724-.473c2.074-1.378 4.802-.084 1.308 3.786Z"/><path fill="#1D4E1A" d="M5.135 11.143c.097.293.306 1.267.473 2.172 1.239 6.752 12.07 6.627 12.626-.139.07-.835.223-1.573.334-1.643.975-.626-1.629-1.461-3.466-1.1-.57.112-2.756.14-5.36.07-4.816-.14-4.844-.14-4.607.64Zm11.804.46v1.03c0 3.828-6.835 5.93-9.104 2.784-.78-1.072-.765-1.726-.877-3.745 6.404-.208 6.557-.18 9.981-.07Z"/></svg>