<svg xmlns="http://www.w3.org/2000/svg" width="28" height="16" fill="none"><path fill="#FFECB8" fill-rule="evenodd" d="M11.048 1.07c.02 1.036 1.228 2.7 2.05 2.385.354-.142.354-.294-.031-1.4-.923-2.628-2.04-1.816-2.019-.984Zm6.696 2.344c-.284.802.7.944 1.38.203.69-.76 1.43-1.897 1.826-2.668.436-.74-.416-1.116-1.127-.507-.842.71-1.887 2.414-2.08 2.972Zm-13.98-.619c-.629.254 1.481 2.871 2.333 2.892.995.02 1.076-.203.386-1.126C5.397 3.1 4.484 2.5 3.764 2.795ZM13.3 6.56c-.375.375-.822.893-.994 1.136-1.481 2.212-1.501 2.232-2.181 1.715-1.573-1.177-4.16-1.978-3.652.07.314 1.239 1.248 3.5 1.491 4.252.629 1.978.964 2.303 2.08 2.039 2.77-.67 6.726-.69 9.556-.051.7.162.74.081.812-1.329.142-2.85 1.785-5.63 1.785-6.523 0-1.005-1.897-.254-4.473 1.765l-.264.203-.376-.254c-.77-.517-1.156-.111-.72.751.355.7.65.933 1.43.558.447-.213 1.066-.619 1.938-1.238.345-.243.63-.416.63-.385 0 .142-.62 2.8-.62 2.81l-1.542-.132c-1.227-.05-1.37.599-.101.791.132.02 1.43.183 1.43.183s-.05.568-.192.893c-.153.324-.406.406-.822.263-3.257-1.075-8.563.234-8.573.234-.192.03-1.958-4.626-1.816-4.768.02-.02.234.111.477.294 2.75 1.998 3.034 1.938 4.85-.974l.852-1.37.334.498c.974 1.45 2.354.811 1.583-.254-.264-.355-.7-.883-1.4-1.704-.314-.376-.781-.213-1.522.527ZM26.5 6.407c-.365.213-2.273 2.04-2.496 2.384-.477.76.518.933 1.42.243 1.056-.801 2.547-2.18 2.547-2.363.01-.365-.974-.548-1.471-.264Zm-25.13 4.86c1.482.365 2.334.456 2.669.273.548-.294.294-.507-1.004-.832-.122-.03-1.32-.365-2.141-.365-.588 0-1.897.325.477.923Z" clip-rule="evenodd"/></svg>