<svg width="40" height="40" viewBox="0 0 40 40" fill="none" xmlns="http://www.w3.org/2000/svg">
<path d="M9.99033 25.7597C3.71895 17.6549 4.65652 9.92502 12.1572 8.02902C14.449 7.44564 17.3869 8.11237 19.012 9.57082L19.8454 10.3209L21.0747 9.59166C28.1795 5.29962 36.9302 13.217 33.2215 20.5718C29.8462 27.2599 18.8662 34.448 16.616 31.4477C15.9492 30.5518 16.2826 30.4268 18.0536 30.8643C19.7412 31.281 27.5335 24.3638 29.4712 20.7176C31.8047 16.3422 31.3464 13.967 27.6169 10.9668C26.0751 9.7375 23.6791 10.2792 21.8039 12.3211C20.3246 13.9045 18.7828 14.0295 17.5118 12.0294C13.9074 6.40388 7.99016 10.8626 9.67781 17.9257C10.3862 20.8426 11.1571 22.3011 14.0949 26.1764C16.0951 28.8017 16.1575 28.9267 15.4908 29.2809C14.2198 29.9684 12.2405 28.6975 9.99033 25.7597Z" fill="#FFECB8"/>
<path d="M25.4709 13.7172C24.45 13.5297 25.3042 12.3838 26.2626 12.7171C27.0543 13.0088 28.1586 13.488 28.5962 14.7173C29.0754 16.0091 28.1169 17.2592 27.5752 17.1133C27.096 16.9883 26.9502 16.4466 27.0127 15.3423C27.0752 14.2381 26.4918 13.9047 25.4709 13.7172Z" fill="#FFECB8"/>
<path d="M27.8045 20.3217C26.4502 20.6342 25.4293 19.6133 26.0335 18.9257C26.4919 18.4257 28.2212 18.384 28.7212 18.8841C29.1379 19.3216 28.8671 20.0717 27.8045 20.3217Z" fill="#FFECB8"/>
</svg>
