<svg xmlns="http://www.w3.org/2000/svg" width="22" height="20" fill="none"><path fill="#1D4E1A" fill-rule="evenodd" d="M16.223.305c-1.055.475-1.624 1.402-1.705 2.77-.104 1.832-.522 2.459-.997 1.508C11.793 1.174 5.857.212 5.254 3.249c-.07.325-.08.325-.834.325-3.316-.023-5.23 6.504-2.853 9.74.163.22-.07.996-.753 2.515-.383.846-.336.986.336 1.287.615.278.812-.011 2.04-3.026a1.867 1.867 0 0 0 0-1.415 23.71 23.71 0 0 0-.88-1.913C1.428 9.035 2.008 6.6 3.654 5.14c1.508-1.333 3.05-.232 1.728 1.24-1.82 2.018-.093 4.465 2.585 3.665 2.4-.708 2.493-4.058.128-4.696-1.252-.336-1.786-2.099-.835-2.736 2.365-1.6 5.31 1.68 4.997 5.577-.162 2.029 1.879 1.101 1.879-.29 0-.36.092-.557.463-.986.789-.916 1.16-1.878 1.334-3.536.162-1.53 2.156-2.806 2.724-1.74.36.673-.208 4.268-.846 5.3-.51.834-2.319 2.886-2.899 3.28-.753.51-.672.951.22 1.102.441.07.51.046 1.334-.638 2.052-1.704 2.701-2.539 3.188-4.139.348-1.136.858-.88.87.302.012 2.423-2.527 5.252-4.962 6.249-.58.243-.615.51-.116.881.742.545 2.063-.023 3.582-1.542.951-.95.998-.974.893-.591-.568 2.203-2.4 4.023-4.73 4.707-1.542.452-2.98.777-4.058.916-.151.046-1.067.012-1.832.823-1.125 1.194.603 2.145 1.194 1.194.44-.719.58-.788 1.438-.8.846 0 .893-.011 3.293-.684 2.04-.568 3.246-1.16 4.115-2.005 1.832-1.798 2.598-4.395 1.647-5.647-.209-.278-.209-.29.127-1.02.684-1.461.522-3.386-.382-4.476-.325-.394-.348-.498-.383-1.449-.046-2.25-2.284-3.93-4.127-3.095ZM7.91 6.055c.962.487.394 3.003-.73 3.281-.395.105-2.146-.8-.778-2.69.626-.869.812-.95 1.508-.59Z" clip-rule="evenodd"/></svg>