<svg xmlns="http://www.w3.org/2000/svg" width="24" height="22" fill="none"><path fill="#1D4E1A" fill-rule="evenodd" d="M9.002.13c-1.3.155-1.266.086-1.266 2.565v2.219L6.488 4.41c-2.704-1.057-3.12-.797-4.75 3.034-.728 1.699-.745 1.664 1.075 2.583l1.491.745s-3.433 2.722-3.38 2.67a1.043 1.043 0 0 0-.157 1.387c2.6 3.745 5.08 4.785 7.021 2.964l.486-.45.035.936c.017.52.017 1.352-.018 1.837-.086 1.769 1.803 2.167 7.264 1.543 1.647-.19 1.543-.052 1.422-2.028l-.105-1.75.503.26c1.786.918 2.445.606 4.403-1.977 1.994-2.635 1.925-2.375.85-3.277-1.266-1.074-2.74-2.219-2.982-2.305.954-1.04 2.705-3 2.705-3 .242-.242.364-.571.364-.9 0-.33-.156-.66-.4-.885-2.894-2.652-4.541-3.26-5.963-2.167l-.797.607s-.052-3.017-.07-3.207C15.417.25 12.002-.235 9.003.129Zm5.478 7.263c.78-.121 1.699-.624 2.67-1.49 1.023-.92 1.005-.92 1.994-.105.433.364.866.71.97.78.121.087 0 .295-.33.59-3.206 2.79-4.056 4.039-2.773 4.039.226 0 3.242 2.444 3.242 2.444l-2.011 2.913-.538-.33c-3.432-2.097-4.385-1.768-3.588 1.248.659 2.497.694 2.896.139 2.896-.226 0-3.017.225-3.017.225l-.104-2.063c-.104-2.236.052-6.518-4.022-2.947-1.179 1.04-1.335 1.283-1.872.71a194.88 194.88 0 0 1-1.508-1.82s2.046-1.664 2.479-1.976c2.063-1.404 1.785-1.56-.624-2.808-.919-.486-1.716-.92-1.786-.989-.07-.069 1.491-3.05 1.491-3.05l1.647.849c2.323 1.213 3.64 1.387 3.38-.122-.173-1.04-.173-4.854-.173-4.854l2.86-.034s-.329 3.12-.173 4.715c.104.694.226 1.387 1.647 1.179Z" clip-rule="evenodd"/></svg>