<svg width="26" height="26" viewBox="0 0 26 26" fill="none" xmlns="http://www.w3.org/2000/svg">
<path fill-rule="evenodd" clip-rule="evenodd" d="M6.49998 0C6.31454 4.31599e-05 6.13336 0.0556098 5.97978 0.159542C5.8262 0.263473 5.70726 0.411009 5.63827 0.583143L4.07827 4.48314H21.9217L20.3617 0.583143C20.2927 0.411009 20.1738 0.263473 20.0202 0.159542C19.8666 0.0556098 19.6854 4.31599e-05 19.5 0L6.49998 0ZM5.58256 25.2126L4.18227 16.1163H21.8177L20.4174 25.2126C20.3837 25.4317 20.2727 25.6316 20.1044 25.776C19.9361 25.9205 19.7217 25.9999 19.5 26H6.49998C6.27823 25.9999 6.06383 25.9205 5.89556 25.776C5.72729 25.6316 5.61626 25.4317 5.58256 25.2126ZM3.9297 6.80271H22.0721C23.1864 6.80271 24.0871 7.58643 24.0871 8.55214V12.0473C24.0871 13.013 23.1846 13.793 22.0721 13.793H3.92784C2.81356 13.793 1.91284 13.013 1.91284 12.0473V8.55214C1.91284 7.58643 2.81727 6.80271 3.9297 6.80271Z" fill="#1D4E1A"/>
</svg>
