<svg xmlns="http://www.w3.org/2000/svg" width="14" height="16" fill="none"><path fill="#1D4E1A" d="M13.956.921v.08c0 .161-.067.402-.2.722-.135.295-.295.615-.482.963-.16.32-.334.628-.521.922-.16.294-.268.495-.321.602l-.401.642c-.134.187-.2.334-.2.44 0 .215.053.415.16.602.106.188.16.428.16.722-.08.027-.16.16-.24.401-.054.214-.08.388-.08.522 0 .347.08.628.24.842.187.187.307.4.36.641.054.214.108.495.161.843.08.347.147.708.2 1.082.08.375.148.736.201 1.083.054.348.08.642.08.883 0 .294-.08.574-.24.842-.134.267-.321.508-.562.722a4.474 4.474 0 0 1-.682.561c-.24.134-.454.214-.641.24h.04c0 .027-.174.108-.521.241-.321.107-.629.16-.923.16-.08 0-.2-.026-.36-.08h.04c0-.026-.054-.08-.161-.16a4.375 4.375 0 0 0-.361-.32 4.38 4.38 0 0 0-.32-.362c-.108-.107-.161-.187-.161-.24v-.28c.026-.108.04-.201.04-.282 0 .027-.094-.2-.28-.681-.161-.482-.268-1.097-.322-1.845.054 0 .107-.04.16-.12.08-.08.12-.148.12-.201 0-.16-.053-.32-.16-.481-.08-.188-.12-.428-.12-.722 0-.375.08-.829.24-1.364.161-.561.282-1.11.362-1.644.027-.08.107-.227.24-.441.134-.24.281-.495.442-.762.16-.268.307-.508.44-.722.134-.24.215-.401.241-.481.08-.428.174-.736.281-.923.134-.187.267-.334.401-.44a3.75 3.75 0 0 1 .481-.322c.188-.133.401-.36.642-.681v-.04a.658.658 0 0 0-.04-.201v-.24c0-.08.013-.134.04-.161.053-.027.134-.094.24-.2a5.478 5.478 0 0 1 .802-.802c.161-.108.308-.161.442-.161.107 0 .28.067.521.2.268.134.441.268.522.401Zm-7.38 0v.08c0 .161-.066.402-.2.722a16.11 16.11 0 0 1-.481.963c-.16.32-.335.628-.522.922-.16.294-.267.495-.32.602l-.402.642c-.133.187-.2.334-.2.44 0 .215.053.415.16.602.107.188.16.428.16.722-.08.027-.16.16-.24.401-.053.214-.08.388-.08.522 0 .347.08.628.24.842.188.187.308.4.361.641.054.214.107.495.16.843.081.347.148.708.201 1.082.08.375.147.736.2 1.083.054.348.081.642.081.883 0 .294-.08.574-.24.842-.134.267-.321.508-.562.722a4.477 4.477 0 0 1-.682.561c-.24.134-.454.214-.641.24h.04c0 .027-.174.108-.522.241-.32.107-.628.16-.922.16-.08 0-.2-.026-.361-.08h.04c0-.026-.053-.08-.16-.16a4.373 4.373 0 0 0-.361-.32 4.383 4.383 0 0 0-.321-.362c-.107-.107-.16-.187-.16-.24v-.28c.026-.108.04-.201.04-.282 0 .027-.094-.2-.281-.681-.16-.482-.268-1.097-.321-1.845.053 0 .107-.04.16-.12.08-.08.12-.148.12-.201 0-.16-.053-.32-.16-.481-.08-.188-.12-.428-.12-.722 0-.375.08-.829.24-1.364.161-.561.281-1.11.362-1.644.026-.08.107-.227.24-.441.134-.24.28-.495.441-.762.16-.268.308-.508.441-.722.134-.24.214-.401.241-.481.08-.428.174-.736.28-.923.135-.187.268-.334.402-.44.134-.108.294-.215.481-.322.187-.133.401-.36.642-.681v-.04a.66.66 0 0 0-.04-.201v-.24c0-.08.013-.134.04-.161a1.14 1.14 0 0 0 .24-.2A5.468 5.468 0 0 1 5.092.48C5.254.372 5.4.32 5.535.32c.107 0 .28.067.521.2.267.134.441.268.521.401Z"/></svg>